<?xml version="1.0" encoding="utf-8"?>
<!-- Generator: Adobe Illustrator 21.0.2, SVG Export Plug-In . SVG Version: 6.00 Build 0)  -->
<svg version="1.1" id="Layer_1" xmlns="http://www.w3.org/2000/svg" xmlns:xlink="http://www.w3.org/1999/xlink" x="0px" y="0px"
	 viewBox="0 0 1292 1017" style="enable-background:new 0 0 1292 1017;" xml:space="preserve">
<style type="text/css">
	.st0{fill:#808080;}
	.st1{fill:#4D4E4E;}
	.st2{fill:#CBCBCA;}
	.st3{fill:none;stroke:#1A1A1A;stroke-miterlimit:10;}
	.st4{fill:#E5E5E4;}
	.st5{fill:#333333;}
	.st6{font-family:'MyriadPro-Regular';}
	.st7{font-size:9.4579px;}
	.st8{fill:#4B0082;}
	.st9{fill:#D090FF;}
	.st10{fill:#FFFFFF;stroke:#333333;stroke-width:5;stroke-miterlimit:10;}
	.st11{fill:none;stroke:#333333;stroke-width:4;stroke-miterlimit:10;}
	.st12{fill:none;stroke:#333333;stroke-width:5;stroke-miterlimit:10;}
	.st13{fill:#FFFFFF;stroke:#00A551;stroke-width:5;stroke-miterlimit:10;}
	.st14{font-family:'Calibri-Italic';}
	.st15{font-size:32.226px;}
	.st16{fill:#B3B3B4;}
	.st17{font-family:'Calibri';}
	.st18{font-size:26.539px;}
	.st19{font-family:'MyriadPro-Bold';}
	.st20{font-size:85.0394px;}
</style>
<g>
	<polygon class="st0" points="192.1,206.8 455.9,341.3 600.1,267 336.3,132.5 	"/>
	<polygon class="st1" points="600.1,267 600.1,300.5 456.7,374.8 192.1,240.3 192.1,206.8 455.9,341.3 	"/>
	<g>
		
			<ellipse transform="matrix(0.735 -0.6781 0.6781 0.735 -74.514 391.5981)" class="st2" cx="463.7" cy="291.1" rx="29.8" ry="22.8"/>
		
			<ellipse transform="matrix(0.7595 -0.6506 0.6506 0.7595 -68.3054 377.0191)" class="st1" cx="475.7" cy="280.9" rx="8.6" ry="3.4"/>
		<path class="st3" d="M479.3,301.8"/>
		<path class="st3" d="M454.7,274"/>
	</g>
	
		<ellipse transform="matrix(0.4303 -0.9027 0.9027 0.4303 55.2338 515.2975)" class="st1" cx="435.9" cy="213.9" rx="21.9" ry="33.4"/>
	<g>
		<polygon class="st1" points="497.1,247.7 372,180.8 372,47.7 497.1,111.6 		"/>
		<polygon class="st4" points="488.4,231.5 380.6,174.3 380.6,62.4 489.1,117.4 		"/>
		<polygon class="st5" points="372,47.7 380.9,45.1 505,107.5 505,242.7 497.1,247.7 497.1,111.6 		"/>
	</g>
	<polygon class="st0" points="413.6,181.6 389.1,168.9 389.1,151.8 413.6,164.5 	"/>
	<polygon class="st0" points="443.3,197.2 418.8,184.5 418.8,167.5 443.3,180.1 	"/>
	<polygon class="st0" points="474.5,213.5 450,200.9 450,183.8 474.5,196.4 	"/>
	<text transform="matrix(0.8755 0.4328 -3.188000e-02 0.9995 404.776 107.1039)"><tspan x="0" y="0" class="st6 st7">-----------------------</tspan><tspan x="0" y="11.3" class="st6 st7">-----------------------</tspan><tspan x="0" y="22.7" class="st6 st7">-----------------------</tspan><tspan x="0" y="34" class="st6 st7">-----------------------</tspan></text>
	<g>
		<g>
			<ellipse class="st2" cx="257.4" cy="181.1" rx="57.8" ry="57.8"/>
		</g>
		<path class="st2" d="M295.4,223.7c0,0,39.7,75.8,51.3,205.9H171c0,0,11.7-124.3,48.1-205.9"/>
		<ellipse class="st8" cx="248.2" cy="181" rx="25.5" ry="29.4"/>
		<path class="st8" d="M266,120.5c0,0-13.3,14.4-16.1,40.5h-10c0,0,6.7-28.3,15.5-40.5C255.4,120.5,261,116.6,266,120.5z"/>
		<polygon class="st2" points="314.2,170.5 321.4,189.9 310.9,189.9 		"/>
	</g>
</g>
<polygon class="st0" points="800.8,206.8 1064.5,341.3 1208.7,267 944.9,132.5 "/>
<polygon class="st1" points="1208.7,267 1208.7,300.5 1065.3,374.8 800.8,240.3 800.8,206.8 1064.5,341.3 "/>
<g>
	
		<ellipse transform="matrix(0.735 -0.6781 0.6781 0.735 86.7715 804.2816)" class="st2" cx="1072.3" cy="291.1" rx="29.8" ry="22.8"/>
	
		<ellipse transform="matrix(0.7595 -0.6506 0.6506 0.7595 78.0918 772.9563)" class="st1" cx="1084.3" cy="280.9" rx="8.6" ry="3.4"/>
	<path class="st3" d="M1087.9,301.8"/>
	<path class="st3" d="M1063.3,274"/>
</g>
<ellipse transform="matrix(0.4303 -0.9027 0.9027 0.4303 401.9507 1064.6788)" class="st1" cx="1044.5" cy="213.9" rx="21.9" ry="33.4"/>
<g>
	<polygon class="st1" points="1105.7,247.7 980.6,180.8 980.6,47.7 1105.7,111.6 	"/>
	<polygon class="st4" points="1097,231.5 989.3,174.3 989.3,62.4 1097.8,117.4 	"/>
	<polygon class="st5" points="980.6,47.7 989.5,45.1 1113.6,107.5 1113.6,242.7 1105.7,247.7 1105.7,111.6 	"/>
</g>
<polygon class="st0" points="1022.2,181.6 997.7,168.9 997.7,151.8 1022.2,164.5 "/>
<polygon class="st0" points="1051.9,197.2 1027.4,184.5 1027.4,167.5 1051.9,180.1 "/>
<polygon class="st0" points="1083.1,213.5 1058.6,200.9 1058.6,183.8 1083.1,196.4 "/>
<text transform="matrix(0.8755 0.4328 -3.188000e-02 0.9995 1013.3834 107.107)"><tspan x="0" y="0" class="st6 st7">-----------------------</tspan><tspan x="0" y="11.3" class="st6 st7">-----------------------</tspan><tspan x="0" y="22.7" class="st6 st7">-----------------------</tspan><tspan x="0" y="34" class="st6 st7">-----------------------</tspan></text>
<g>
	<ellipse class="st2" cx="866" cy="181.1" rx="57.8" ry="57.8"/>
</g>
<path class="st2" d="M904,223.7c0,0,39.7,75.8,51.3,205.9H779.6c0,0,11.7-124.3,48.1-205.9"/>
<polygon class="st2" points="922.8,170.5 930.1,189.9 919.5,189.9 "/>
<g>
	<path class="st9" d="M1162.8,205.7c0-18.8-7.4-36.7-18.1-38.7c-12.3-2.4-22.7,15.2-22.7,34.1l-2.9,48.3c0,0,13.9,22.9,43.6,11.4
		L1162.8,205.7z"/>
	<g>
		<ellipse class="st1" cx="1141.6" cy="200.9" rx="13.3" ry="14"/>
		<ellipse class="st5" cx="1141.6" cy="200.6" rx="9.4" ry="9.5"/>
	</g>
	<g>
		<ellipse class="st1" cx="1141.6" cy="234.4" rx="13.3" ry="14"/>
		<ellipse class="st5" cx="1141.6" cy="234" rx="9.4" ry="9.5"/>
	</g>
</g>
<g>
	<path class="st9" d="M976.3,106.2c0-18.8-7.4-36.7-18.1-38.7c-12.3-2.4-22.7,15.2-22.7,34.1l-2.9,48.3c0,0,13.9,22.9,43.6,11.4
		L976.3,106.2z"/>
	<g>
		<ellipse class="st1" cx="955.1" cy="101.4" rx="13.3" ry="14"/>
		<ellipse class="st5" cx="955.1" cy="101" rx="9.4" ry="9.5"/>
	</g>
	<g>
		<ellipse class="st1" cx="955.1" cy="134.8" rx="13.3" ry="14"/>
		<ellipse class="st5" cx="955.1" cy="134.5" rx="9.4" ry="9.5"/>
	</g>
</g>
<rect x="483.7" y="533.8" class="st10" width="105.6" height="105.6"/>
<g>
	<rect x="389.6" y="612.3" class="st10" width="105.6" height="105.6"/>
	<g>
		<g>
			<path class="st5" d="M424,676.8h-0.5c-3.9,0-7-3.2-7-7v-9c0-3.9,3.2-7,7-7h0.5c3.9,0,7,3.2,7,7v9
				C431,673.7,427.8,676.8,424,676.8z"/>
			<path class="st5" d="M458.2,665.3c0,10.4-2.7,16.6-4.1,19.2c-1.6,3.2-3.7,0.8-3.7,0.8c-18.7-17.6-25.7-15.6-25.7-15.6v-4.4v-4.4
				c0,0,6.9,2,25.7-15.6c0,0,2-2.4,3.7,0.8C455.4,648.7,458.2,654.9,458.2,665.3z"/>
		</g>
		<path class="st11" d="M461.6,659.7c0,0,1.6,5.8,0,11.2"/>
		<path class="st11" d="M464,648.1c0,0,9,18,0,34.5"/>
	</g>
</g>
<g>
	<g>
		<line class="st12" x1="198.7" y1="964.9" x2="621.1" y2="614.4"/>
		<g>
			<polygon class="st5" points="626.2,626.3 634.9,602.9 610.3,607.1 			"/>
		</g>
	</g>
</g>
<rect x="302.7" y="682.1" class="st13" width="105.6" height="105.6"/>
<g>
	<g>
		<path class="st5" d="M337,746.6h-0.5c-3.9,0-7-3.2-7-7v-9c0-3.9,3.2-7,7-7h0.5c3.9,0,7,3.2,7,7v9
			C344.1,743.4,340.9,746.6,337,746.6z"/>
		<path class="st5" d="M371.2,735.1c0,10.4-2.7,16.6-4.1,19.2c-1.6,3.2-3.7,0.8-3.7,0.8c-18.7-17.6-25.7-15.6-25.7-15.6v-4.4v-4.4
			c0,0,6.9,2,25.7-15.6c0,0,2-2.4,3.7,0.8C368.5,718.5,371.2,724.6,371.2,735.1z"/>
	</g>
	<path class="st11" d="M374.7,729.5c0,0,1.6,5.8,0,11.2"/>
	<path class="st11" d="M377,717.8c0,0,9,18,0,34.5"/>
</g>
<g>
	<rect x="210.3" y="761.5" class="st10" width="105.6" height="105.6"/>
	<g>
		<g>
			<path class="st5" d="M244.7,826h-0.5c-3.9,0-7-3.2-7-7v-9c0-3.9,3.2-7,7-7h0.5c3.9,0,7,3.2,7,7v9
				C251.7,822.8,248.5,826,244.7,826z"/>
			<path class="st5" d="M278.8,814.5c0,10.4-2.7,16.6-4.1,19.2c-1.6,3.2-3.7,0.8-3.7,0.8c-18.7-17.6-25.7-15.6-25.7-15.6v-4.4V810
				c0,0,6.9,2,25.7-15.6c0,0,2-2.4,3.7,0.8C276.1,797.9,278.8,804,278.8,814.5z"/>
		</g>
		<path class="st11" d="M282.3,808.9c0,0,1.6,5.8,0,11.2"/>
		<path class="st11" d="M284.6,797.2c0,0,9,18,0,34.5"/>
	</g>
</g>
<g>
	<text transform="matrix(1.0001 0 0 1 176.8525 746.3706)" class="st14 st15">noise</text>
</g>
<g>
	<text transform="matrix(1.0001 0 0 1 181.1206 666.3882)" class="st14 st15">Huggins pitch</text>
</g>
<g>
	<text transform="matrix(1.0001 0 0 1 356.5659 601.9868)" class="st14 st15">noise</text>
</g>
<g>
	<text transform="matrix(1.0001 0 0 1 424.9429 524.0815)" class="st14 st15">response</text>
</g>
<rect x="1090.3" y="533.7" class="st10" width="105.6" height="105.6"/>
<g>
	<rect x="996.2" y="612.3" class="st10" width="105.6" height="105.6"/>
	<g>
		<g>
			<path class="st5" d="M1030.6,676.8h-0.5c-3.9,0-7-3.2-7-7v-9c0-3.9,3.2-7,7-7h0.5c3.9,0,7,3.2,7,7v9
				C1037.6,673.6,1034.5,676.8,1030.6,676.8z"/>
			<path class="st5" d="M1064.8,665.3c0,10.4-2.7,16.6-4.1,19.3c-1.6,3.2-3.7,0.8-3.7,0.8c-18.7-17.6-25.7-15.6-25.7-15.6v-4.4v-4.4
				c0,0,6.9,2,25.7-15.6c0,0,2-2.4,3.7,0.8C1062.1,648.7,1064.8,654.9,1064.8,665.3z"/>
		</g>
		<path class="st11" d="M1068.2,659.7c0,0,1.6,5.8,0,11.2"/>
		<path class="st11" d="M1070.6,648c0,0,9,18,0,34.5"/>
	</g>
</g>
<g>
	<g>
		<line class="st12" x1="805.3" y1="964.9" x2="1227.7" y2="614.3"/>
		<g>
			<polygon class="st5" points="1232.9,626.2 1241.6,602.9 1217,607 			"/>
		</g>
	</g>
</g>
<rect x="909.3" y="682" class="st13" width="105.6" height="105.6"/>
<g>
	<g>
		<path class="st5" d="M943.7,746.6h-0.5c-3.9,0-7-3.2-7-7v-9c0-3.9,3.2-7,7-7h0.5c3.9,0,7,3.2,7,7v9
			C950.7,743.4,947.5,746.6,943.7,746.6z"/>
		<path class="st5" d="M977.8,735c0,10.4-2.7,16.6-4.1,19.3c-1.6,3.2-3.7,0.8-3.7,0.8c-18.7-17.6-25.7-15.6-25.7-15.6V735v-4.4
			c0,0,6.9,2,25.7-15.6c0,0,2-2.4,3.7,0.8C975.1,718.4,977.8,724.6,977.8,735z"/>
	</g>
	<path class="st11" d="M981.3,729.4c0,0,1.6,5.8,0,11.2"/>
	<path class="st11" d="M983.6,717.8c0,0,9,18,0,34.5"/>
</g>
<g>
	<rect x="816.9" y="761.4" class="st10" width="105.6" height="105.6"/>
	<g>
		<g>
			<path class="st5" d="M851.3,826h-0.5c-3.9,0-7-3.2-7-7v-9c0-3.9,3.2-7,7-7h0.5c3.9,0,7,3.2,7,7v9
				C858.3,822.8,855.1,826,851.3,826z"/>
			<path class="st5" d="M885.5,814.4c0,10.4-2.7,16.6-4.1,19.3c-1.6,3.2-3.7,0.8-3.7,0.8c-18.7-17.6-25.7-15.6-25.7-15.6v-4.4V810
				c0,0,6.9,2,25.7-15.6c0,0,2-2.4,3.7,0.8C882.7,797.8,885.5,804,885.5,814.4z"/>
		</g>
		<path class="st11" d="M888.9,808.9c0,0,1.6,5.8,0,11.2"/>
		<path class="st11" d="M891.3,797.2c0,0,9,18,0,34.5"/>
	</g>
</g>
<g>
	<text transform="matrix(1.0001 0 0 1 761.6353 746.3452)" class="st14 st15">noise</text>
</g>
<g>
	<text transform="matrix(1.0001 0 0 1 840.0464 666.354)" class="st14 st15">noise -6dB</text>
</g>
<g>
	<text transform="matrix(1.0001 0 0 1 833.1011 600.9058)" class="st14 st15">anti-phase noise</text>
</g>
<g>
	<text transform="matrix(1.0001 0 0 1 1031.5757 524.0308)" class="st14 st15">response</text>
</g>
<g>
	<rect x="490.8" y="572.9" class="st16" width="26.5" height="26.5"/>
	<g>
		<text transform="matrix(1.0001 0 0 1 497.0498 595.3569)" class="st17 st18">1</text>
	</g>
</g>
<g>
	<rect x="524" y="572.9" class="st16" width="26.5" height="26.5"/>
	<g>
		<text transform="matrix(1.0001 0 0 1 530.2261 595.3569)" class="st17 st18">2</text>
	</g>
</g>
<g>
	<rect x="556.2" y="572.9" class="st16" width="26.5" height="26.5"/>
	<g>
		<text transform="matrix(1.0001 0 0 1 562.4546 595.3569)" class="st17 st18">3</text>
	</g>
</g>
<g>
	<rect x="1097.5" y="572.9" class="st16" width="26.5" height="26.5"/>
	<g>
		<text transform="matrix(1.0001 0 0 1 1103.7007 595.3569)" class="st17 st18">1</text>
	</g>
</g>
<g>
	<rect x="1130.6" y="572.9" class="st16" width="26.5" height="26.5"/>
	<g>
		<text transform="matrix(1.0001 0 0 1 1136.8765 595.3569)" class="st17 st18">2</text>
	</g>
</g>
<g>
	<rect x="1162.9" y="572.9" class="st16" width="26.5" height="26.5"/>
	<g>
		<text transform="matrix(1.0001 0 0 1 1169.105 595.3569)" class="st17 st18">3</text>
	</g>
</g>
<text transform="matrix(1.0001 0 0 1 51 87.4409)" class="st19 st20">a</text>
<text transform="matrix(1.0001 0 0 1 51 572.9253)" class="st19 st20">b</text>
<text transform="matrix(1.0001 0 0 1 738 572.9253)" class="st19 st20">c</text>
</svg>
