<?xml version="1.0" encoding="utf-8"?>
<!-- Generator: Adobe Illustrator 21.0.2, SVG Export Plug-In . SVG Version: 6.00 Build 0)  -->
<svg version="1.1" id="Layer_1" xmlns="http://www.w3.org/2000/svg" xmlns:xlink="http://www.w3.org/1999/xlink" x="0px" y="0px"
	 viewBox="0 0 968 928" style="enable-background:new 0 0 968 928;" xml:space="preserve">
<style type="text/css">
	.st0{fill:#CC0000;}
	.st1{fill:#0B6EC7;}
	.st2{fill:none;stroke:#262626;stroke-width:2.5;stroke-linecap:square;stroke-linejoin:round;stroke-miterlimit:10;}
	.st3{fill:none;stroke:#CC0000;stroke-width:5;stroke-linejoin:round;stroke-miterlimit:10;}
	.st4{fill:none;stroke:#FF9090;stroke-width:5;stroke-linejoin:round;stroke-miterlimit:10;}
	.st5{fill:#FF9090;}
	.st6{fill:none;stroke:#0B6EC7;stroke-width:5;stroke-linejoin:round;stroke-miterlimit:10;}
	.st7{fill:none;stroke:#70AFEE;stroke-width:5;stroke-linejoin:round;stroke-miterlimit:10;}
	.st8{fill:#70AFEE;}
	.st9{fill:none;stroke:#000000;stroke-width:2.5;stroke-linejoin:bevel;stroke-miterlimit:1;stroke-dasharray:8,8;}
	.st10{font-family:'ArialMT';}
	.st11{font-size:39.685px;}
	.st12{fill:#FFFFFF;}
</style>
<g>
	<path class="st0" d="M876.2,208.9c0-8.3-6.8-15.1-15.1-15.1s-15.1,6.8-15.1,15.1l4.2-0.1c0-7.2,3.7-10.9,10.9-10.9
		c7.2,0,10.9,3.7,10.9,10.9L876.2,208.9z"/>
	<path class="st0" d="M850.1,221c-5,0-9.1-4.1-9.1-9.1c0-5,4.1-9.1,9.1-9.1V221z"/>
	<path class="st0" d="M871.9,221c5,0,9.1-4.1,9.1-9.1c0-5-4.1-9.1-9.1-9.1V221z"/>
</g>
<g>
	<path class="st1" d="M876.2,303.7c0-8.3-6.8-15.1-15.1-15.1s-15.1,6.8-15.1,15.1l4.2-0.1c0-7.2,3.7-10.9,10.9-10.9
		c7.2,0,10.9,3.7,10.9,10.9L876.2,303.7z"/>
	<path class="st1" d="M850.1,315.8c-5,0-9.1-4.1-9.1-9.1c0-5,4.1-9.1,9.1-9.1V315.8z"/>
	<path class="st1" d="M871.9,315.8c5,0,9.1-4.1,9.1-9.1c0-5-4.1-9.1-9.1-9.1V315.8z"/>
</g>
<g>
	<line class="st2" x1="902" y1="802" x2="158" y2="802"/>
	<line class="st2" x1="848.9" y1="802" x2="848.9" y2="794.6"/>
	<line class="st2" x1="742.6" y1="802" x2="742.6" y2="794.6"/>
	<line class="st2" x1="636.3" y1="802" x2="636.3" y2="794.6"/>
	<line class="st2" x1="530" y1="802" x2="530" y2="794.6"/>
	<line class="st2" x1="423.7" y1="802" x2="423.7" y2="794.6"/>
	<line class="st2" x1="317.4" y1="802" x2="317.4" y2="794.6"/>
	<line class="st2" x1="211.1" y1="802" x2="211.1" y2="794.6"/>
</g>
<g>
	<line class="st2" x1="158" y1="802" x2="158" y2="58"/>
	<line class="st2" x1="158" y1="802" x2="165.4" y2="802"/>
	<line class="st2" x1="158" y1="727.6" x2="165.4" y2="727.6"/>
	<line class="st2" x1="158" y1="653.2" x2="165.4" y2="653.2"/>
	<line class="st2" x1="158" y1="578.8" x2="165.4" y2="578.8"/>
	<line class="st2" x1="158" y1="504.4" x2="165.4" y2="504.4"/>
	<line class="st2" x1="158" y1="430" x2="165.4" y2="430"/>
	<line class="st2" x1="158" y1="355.6" x2="165.4" y2="355.6"/>
	<line class="st2" x1="158" y1="281.2" x2="165.4" y2="281.2"/>
	<line class="st2" x1="158" y1="206.8" x2="165.4" y2="206.8"/>
	<line class="st2" x1="158" y1="132.4" x2="165.4" y2="132.4"/>
	<line class="st2" x1="158" y1="58" x2="165.4" y2="58"/>
</g>
<g>
	<path class="st3" d="M848.9,794.6l-106.3-22.3l-106.3,7.4L530,787.1l-106.3-22.3l-106.3,7.4L211.1,199.4"/>
	<path class="st0" d="M848.9,788.7c3.2,0,5.8,2.6,5.8,5.8l0,0c0,3.2-2.6,5.8-5.8,5.8s-5.8-2.6-5.8-5.8S845.6,788.7,848.9,788.7z
		 M848.9,783.7c-6,0-10.8,4.9-10.8,10.8s4.9,10.8,10.8,10.8s10.8-4.9,10.8-10.8l0,0C859.7,788.6,854.8,783.7,848.9,783.7z"/>
	<path class="st0" d="M742.6,766.4c3.2,0,5.8,2.6,5.8,5.8l0,0c0,3.2-2.6,5.8-5.8,5.8s-5.8-2.6-5.8-5.8S739.3,766.4,742.6,766.4z
		 M742.6,761.4c-6,0-10.8,4.9-10.8,10.8s4.9,10.8,10.8,10.8s10.8-4.9,10.8-10.8l0,0C753.4,766.3,748.6,761.4,742.6,761.4z"/>
	<path class="st0" d="M636.3,773.8c3.2,0,5.8,2.6,5.8,5.8l0,0c0,3.2-2.6,5.8-5.8,5.8s-5.8-2.6-5.8-5.8S633.1,773.8,636.3,773.8z
		 M636.3,768.8c-6,0-10.8,4.9-10.8,10.8s4.9,10.8,10.8,10.8s10.8-4.9,10.8-10.8l0,0C647.1,773.7,642.3,768.8,636.3,768.8z"/>
	<path class="st0" d="M530,781.3c3.2,0,5.8,2.6,5.8,5.8l0,0c0,3.2-2.6,5.8-5.8,5.8s-5.8-2.6-5.8-5.8S526.8,781.3,530,781.3z
		 M530,776.3c-6,0-10.8,4.9-10.8,10.8S524,798,530,798s10.8-4.9,10.8-10.8l0,0C540.8,781.1,536,776.3,530,776.3z"/>
	<path class="st0" d="M423.7,759c3.2,0,5.8,2.6,5.8,5.8l0,0c0,3.2-2.6,5.8-5.8,5.8s-5.8-2.6-5.8-5.8S420.5,759,423.7,759z
		 M423.7,754c-6,0-10.8,4.9-10.8,10.8s4.9,10.8,10.8,10.8s10.8-4.9,10.8-10.8l0,0C434.5,758.8,429.7,754,423.7,754z"/>
	<path class="st0" d="M317.4,766.4c3.2,0,5.8,2.6,5.8,5.8l0,0c0,3.2-2.6,5.8-5.8,5.8s-5.8-2.6-5.8-5.8S314.2,766.4,317.4,766.4z
		 M317.4,761.4c-6,0-10.8,4.9-10.8,10.8s4.9,10.8,10.8,10.8s10.8-4.9,10.8-10.8l0,0C328.3,766.3,323.4,761.4,317.4,761.4z"/>
	<path class="st0" d="M211.1,193.5c3.2,0,5.8,2.6,5.8,5.8l0,0c0,3.2-2.6,5.8-5.8,5.8s-5.8-2.6-5.8-5.8S207.9,193.5,211.1,193.5z
		 M211.1,188.5c-6,0-10.8,4.9-10.8,10.8c0,6,4.9,10.8,10.8,10.8s10.8-4.9,10.8-10.8l0,0C222,193.4,217.1,188.5,211.1,188.5z"/>
	<path class="st4" d="M848.9,772.2l-106.3-96.7l-106.3-52.1L530,660.6l-106.3,96.7l-106.3-29.8l-106.3-74.4"/>
	<path class="st5" d="M848.9,766.4c3.2,0,5.8,2.6,5.8,5.8l0,0c0,3.2-2.6,5.8-5.8,5.8s-5.8-2.6-5.8-5.8S845.6,766.4,848.9,766.4z
		 M848.9,761.4c-6,0-10.8,4.9-10.8,10.8S843,783,848.9,783s10.8-4.9,10.8-10.8l0,0C859.7,766.3,854.8,761.4,848.9,761.4z"/>
	<path class="st5" d="M742.6,669.7c3.2,0,5.8,2.6,5.8,5.8l0,0c0,3.2-2.6,5.8-5.8,5.8s-5.8-2.6-5.8-5.8S739.3,669.7,742.6,669.7z
		 M742.6,664.7c-6,0-10.8,4.9-10.8,10.8s4.9,10.8,10.8,10.8s10.8-4.9,10.8-10.8l0,0C753.4,669.5,748.6,664.7,742.6,664.7z"/>
	<path class="st5" d="M636.3,617.6c3.2,0,5.8,2.6,5.8,5.8l0,0c0,3.2-2.6,5.8-5.8,5.8s-5.8-2.6-5.8-5.8S633.1,617.6,636.3,617.6z
		 M636.3,612.6c-6,0-10.8,4.9-10.8,10.8s4.9,10.8,10.8,10.8s10.8-4.9,10.8-10.8l0,0C647.1,617.5,642.3,612.6,636.3,612.6z"/>
	<path class="st5" d="M530,654.8c3.2,0,5.8,2.6,5.8,5.8l0,0c0,3.2-2.6,5.8-5.8,5.8s-5.8-2.6-5.8-5.8S526.8,654.8,530,654.8z
		 M530,649.8c-6,0-10.8,4.9-10.8,10.8s4.9,10.8,10.8,10.8s10.8-4.9,10.8-10.8l0,0C540.8,654.7,536,649.8,530,649.8z"/>
	<path class="st5" d="M423.7,751.5c3.2,0,5.8,2.6,5.8,5.8l0,0c0,3.2-2.6,5.8-5.8,5.8s-5.8-2.6-5.8-5.8S420.5,751.5,423.7,751.5z
		 M423.7,746.5c-6,0-10.8,4.9-10.8,10.8s4.9,10.8,10.8,10.8s10.8-4.9,10.8-10.8l0,0C434.5,751.4,429.7,746.5,423.7,746.5z"/>
	<path class="st5" d="M317.4,721.8c3.2,0,5.8,2.6,5.8,5.8l0,0c0,3.2-2.6,5.8-5.8,5.8s-5.8-2.6-5.8-5.8S314.2,721.8,317.4,721.8z
		 M317.4,716.8c-6,0-10.8,4.9-10.8,10.8s4.9,10.8,10.8,10.8s10.8-4.9,10.8-10.8l0,0C328.3,721.6,323.4,716.8,317.4,716.8z"/>
	<path class="st5" d="M211.1,647.4c3.2,0,5.8,2.6,5.8,5.8l0,0c0,3.2-2.6,5.8-5.8,5.8s-5.8-2.6-5.8-5.8S207.9,647.4,211.1,647.4z
		 M211.1,642.4c-6,0-10.8,4.9-10.8,10.8s4.9,10.8,10.8,10.8s10.8-4.9,10.8-10.8l0,0C222,647.2,217.1,642.4,211.1,642.4z"/>
	<path class="st6" d="M848.9,779.7l-106.3,7.4l-106.3-7.4H530H423.7L317.4,683L211.1,281.2"/>
	<path class="st1" d="M848.9,773.8c3.2,0,5.8,2.6,5.8,5.8l0,0c0,3.2-2.6,5.8-5.8,5.8s-5.8-2.6-5.8-5.8S845.6,773.8,848.9,773.8z
		 M848.9,768.8c-6,0-10.8,4.9-10.8,10.8s4.9,10.8,10.8,10.8s10.8-4.9,10.8-10.8l0,0C859.7,773.7,854.8,768.8,848.9,768.8z"/>
	<path class="st1" d="M742.6,781.3c3.2,0,5.8,2.6,5.8,5.8l0,0c0,3.2-2.6,5.8-5.8,5.8s-5.8-2.6-5.8-5.8S739.3,781.3,742.6,781.3z
		 M742.6,776.3c-6,0-10.8,4.9-10.8,10.8s4.9,10.8,10.8,10.8s10.8-4.9,10.8-10.8l0,0C753.4,781.1,748.6,776.3,742.6,776.3z"/>
	<path class="st1" d="M636.3,773.8c3.2,0,5.8,2.6,5.8,5.8l0,0c0,3.2-2.6,5.8-5.8,5.8s-5.8-2.6-5.8-5.8S633.1,773.8,636.3,773.8z
		 M636.3,768.8c-6,0-10.8,4.9-10.8,10.8s4.9,10.8,10.8,10.8s10.8-4.9,10.8-10.8l0,0C647.1,773.7,642.3,768.8,636.3,768.8z"/>
	<path class="st1" d="M530,773.8c3.2,0,5.8,2.6,5.8,5.8l0,0c0,3.2-2.6,5.8-5.8,5.8s-5.8-2.6-5.8-5.8S526.8,773.8,530,773.8z
		 M530,768.8c-6,0-10.8,4.9-10.8,10.8s4.9,10.8,10.8,10.8s10.8-4.9,10.8-10.8l0,0C540.8,773.7,536,768.8,530,768.8z"/>
	<path class="st1" d="M423.7,773.8c3.2,0,5.8,2.6,5.8,5.8l0,0c0,3.2-2.6,5.8-5.8,5.8s-5.8-2.6-5.8-5.8S420.5,773.8,423.7,773.8z
		 M423.7,768.8c-6,0-10.8,4.9-10.8,10.8s4.9,10.8,10.8,10.8s10.8-4.9,10.8-10.8l0,0C434.5,773.7,429.7,768.8,423.7,768.8z"/>
	<path class="st1" d="M317.4,677.1c3.2,0,5.8,2.6,5.8,5.8l0,0c0,3.2-2.6,5.8-5.8,5.8s-5.8-2.6-5.8-5.8S314.2,677.1,317.4,677.1z
		 M317.4,672.1c-6,0-10.8,4.9-10.8,10.8s4.9,10.8,10.8,10.8s10.8-4.9,10.8-10.8l0,0C328.3,677,323.4,672.1,317.4,672.1z"/>
	<path class="st1" d="M211.1,275.4c3.2,0,5.8,2.6,5.8,5.8l0,0c0,3.2-2.6,5.8-5.8,5.8s-5.8-2.6-5.8-5.8S207.9,275.4,211.1,275.4z
		 M211.1,270.4c-6,0-10.8,4.9-10.8,10.8s4.9,10.8,10.8,10.8s10.8-4.9,10.8-10.8l0,0C222,275.2,217.1,270.4,211.1,270.4z"/>
	<path class="st7" d="M848.9,690.4H742.6l-106.3,74.4L530,705.3l-106.3,22.3l-106.3-7.4L211.1,571.4"/>
	<path class="st8" d="M848.9,684.6c3.2,0,5.8,2.6,5.8,5.8l0,0c0,3.2-2.6,5.8-5.8,5.8s-5.8-2.6-5.8-5.8S845.6,684.6,848.9,684.6z
		 M848.9,679.6c-6,0-10.8,4.9-10.8,10.8s4.9,10.8,10.8,10.8s10.8-4.9,10.8-10.8l0,0C859.7,684.4,854.8,679.6,848.9,679.6z"/>
	<path class="st8" d="M742.6,684.6c3.2,0,5.8,2.6,5.8,5.8l0,0c0,3.2-2.6,5.8-5.8,5.8s-5.8-2.6-5.8-5.8S739.3,684.6,742.6,684.6z
		 M742.6,679.6c-6,0-10.8,4.9-10.8,10.8s4.9,10.8,10.8,10.8s10.8-4.9,10.8-10.8l0,0C753.4,684.4,748.6,679.6,742.6,679.6z"/>
	<path class="st8" d="M636.3,759c3.2,0,5.8,2.6,5.8,5.8l0,0c0,3.2-2.6,5.8-5.8,5.8s-5.8-2.6-5.8-5.8S633.1,759,636.3,759z
		 M636.3,754c-6,0-10.8,4.9-10.8,10.8s4.9,10.8,10.8,10.8s10.8-4.9,10.8-10.8l0,0C647.1,758.8,642.3,754,636.3,754z"/>
	<path class="st8" d="M530,699.4c3.2,0,5.8,2.6,5.8,5.8l0,0c0,3.2-2.6,5.8-5.8,5.8s-5.8-2.6-5.8-5.8S526.8,699.4,530,699.4z
		 M530,694.4c-6,0-10.8,4.9-10.8,10.8S524.1,716,530,716s10.8-4.9,10.8-10.8l0,0C540.8,699.3,536,694.4,530,694.4z"/>
	<path class="st8" d="M423.7,721.8c3.2,0,5.8,2.6,5.8,5.8l0,0c0,3.2-2.6,5.8-5.8,5.8s-5.8-2.6-5.8-5.8S420.5,721.8,423.7,721.8z
		 M423.7,716.8c-6,0-10.8,4.9-10.8,10.8s4.9,10.8,10.8,10.8s10.8-4.9,10.8-10.8l0,0C434.5,721.6,429.7,716.8,423.7,716.8z"/>
	<path class="st8" d="M317.4,714.3c3.2,0,5.8,2.6,5.8,5.8l0,0c0,3.2-2.6,5.8-5.8,5.8s-5.8-2.6-5.8-5.8S314.2,714.3,317.4,714.3z
		 M317.4,709.3c-6,0-10.8,4.9-10.8,10.8s4.9,10.8,10.8,10.8s10.8-4.9,10.8-10.8l0,0C328.3,714.2,323.4,709.3,317.4,709.3z"/>
	<path class="st8" d="M211.1,565.5c3.2,0,5.8,2.6,5.8,5.8l0,0c0,3.2-2.6,5.8-5.8,5.8s-5.8-2.6-5.8-5.8S207.9,565.5,211.1,565.5z
		 M211.1,560.5c-6,0-10.8,4.9-10.8,10.8s4.9,10.8,10.8,10.8s10.8-4.9,10.8-10.8l0,0C222,565.4,217.1,560.5,211.1,560.5z"/>
</g>
<g>
	<line class="st9" x1="636.3" y1="802" x2="636.3" y2="235.1"/>
</g>
<text transform="matrix(1 0 0 1 76.5085 74.8799)" class="st10 st11">100</text>
<text transform="matrix(1 0 0 1 98.5795 148.4238)" class="st10 st11">90</text>
<text transform="matrix(1 0 0 1 98.5798 369.0549)" class="st10 st11">60</text>
<text transform="matrix(1 0 0 1 98.5795 442.5984)" class="st10 st11">50</text>
<text transform="matrix(1 0 0 1 98.5795 221.967)" class="st10 st11">80</text>
<text transform="matrix(1 0 0 1 98.5796 295.5112)" class="st10 st11">70</text>
<text transform="matrix(1 0 0 1 98.5798 516.1422)" class="st10 st11">40</text>
<text transform="matrix(1 0 0 1 98.5795 589.6855)" class="st10 st11">30</text>
<text transform="matrix(1 0 0 1 98.5793 663.2292)" class="st10 st11">20</text>
<text transform="matrix(1 0 0 1 98.5795 736.7733)" class="st10 st11">10</text>
<text transform="matrix(1 0 0 1 120.6505 810.317)" class="st10 st11">0</text>
<text transform="matrix(0 -1 1 0 74.9521 581.7988)" class="st10 st11">% participants</text>
<text transform="matrix(1 0 0 1 199.9644 844.8898)" class="st10 st11">6</text>
<text transform="matrix(1 0 0 1 306.4645 844.8898)" class="st10 st11">5</text>
<text transform="matrix(1 0 0 1 412.9645 844.8898)" class="st10 st11">4</text>
<text transform="matrix(1 0 0 1 519.4644 844.8898)" class="st10 st11">3</text>
<text transform="matrix(1 0 0 1 625.9644 844.8898)" class="st10 st11">2</text>
<text transform="matrix(1 0 0 1 732.4644 844.8898)" class="st10 st11">1</text>
<text transform="matrix(1 0 0 1 838.9644 844.8898)" class="st10 st11">0</text>
<text transform="matrix(1 0 0 1 345.2026 893.8898)" class="st10 st11">Performance out of 6</text>
<g>
	<line class="st3" x1="691.9" y1="213.1" x2="760.1" y2="213.1"/>
	<path class="st0" d="M726,205.1c4.4,0,7.9,3.6,7.9,7.9l0,0c0,4.4-3.6,7.9-7.9,7.9c-4.4,0-7.9-3.6-7.9-7.9S721.6,205.1,726,205.1z
		 M726,198.3c-8.2,0-14.8,6.6-14.8,14.8c0,8.2,6.6,14.8,14.8,14.8s14.8-6.6,14.8-14.8l0,0C740.8,204.9,734.2,198.3,726,198.3z"/>
</g>
<text transform="matrix(1 0 0 1 774 223.6792)" class="st10 st11">HP</text>
<g>
	<line class="st4" x1="691.9" y1="259.8" x2="760.1" y2="259.8"/>
	<path class="st5" d="M726,251.9c4.4,0,7.9,3.6,7.9,7.9l0,0c0,4.4-3.6,7.9-7.9,7.9c-4.4,0-7.9-3.6-7.9-7.9
		C718.1,255.4,721.6,251.9,726,251.9z M726,245.1c-8.2,0-14.8,6.6-14.8,14.8c0,8.2,6.6,14.8,14.8,14.8s14.8-6.6,14.8-14.8l0,0
		C740.8,251.7,734.2,245.1,726,245.1z"/>
</g>
<text transform="matrix(1 0 0 1 774 270.3994)" class="st10 st11">HP </text>
<g>
	<line class="st6" x1="691.9" y1="306.5" x2="760.1" y2="306.5"/>
	<path class="st1" d="M726,298.6c4.4,0,7.9,3.6,7.9,7.9l0,0c0,4.4-3.6,7.9-7.9,7.9c-4.4,0-7.9-3.6-7.9-7.9S721.6,298.6,726,298.6z
		 M726,291.8c-8.2,0-14.8,6.6-14.8,14.8c0,8.2,6.6,14.8,14.8,14.8s14.8-6.6,14.8-14.8l0,0C740.8,298.4,734.2,291.8,726,291.8z"/>
</g>
<text transform="matrix(1 0 0 1 774.0605 317.1196)" class="st10 st11">AP</text>
<g>
	<line class="st7" x1="691.9" y1="353.3" x2="760.1" y2="353.3"/>
	<path class="st8" d="M726,345.3c4.4,0,7.9,3.6,7.9,7.9l0,0c0,4.4-3.6,7.9-7.9,7.9c-4.4,0-7.9-3.6-7.9-7.9S721.6,345.3,726,345.3z
		 M726,338.5c-8.2,0-14.8,6.6-14.8,14.8c0,8.2,6.6,14.8,14.8,14.8s14.8-6.6,14.8-14.8l0,0C740.8,345.1,734.2,338.5,726,338.5z"/>
</g>
<text transform="matrix(1 0 0 1 774.0605 363.8401)" class="st10 st11">AP </text>
<path class="st5" d="M855.6,271h-12.3c-2.3,0-4.2-1.9-4.2-4.2v-21.6c0-2.3,1.9-4.2,4.2-4.2h12.3c2.3,0,4.2,1.9,4.2,4.2v21.6
	C859.8,269.1,857.9,271,855.6,271z"/>
<g>
	<circle class="st12" cx="849.5" cy="246.5" r="1.7"/>
</g>
<circle class="st12" cx="849.5" cy="260.3" r="8"/>
<circle class="st5" cx="849.5" cy="260.3" r="1.7"/>
<path class="st5" d="M879.6,271h-12.3c-2.3,0-4.2-1.9-4.2-4.2v-21.6c0-2.3,1.9-4.2,4.2-4.2h12.3c2.3,0,4.2,1.9,4.2,4.2v21.6
	C883.8,269.1,881.9,271,879.6,271z"/>
<g>
	<circle class="st12" cx="873.5" cy="246.5" r="1.7"/>
</g>
<circle class="st12" cx="873.5" cy="260.3" r="8"/>
<circle class="st5" cx="873.5" cy="260.3" r="1.7"/>
<path class="st8" d="M855.6,366h-12.3c-2.3,0-4.2-1.9-4.2-4.2v-21.6c0-2.3,1.9-4.2,4.2-4.2h12.3c2.3,0,4.2,1.9,4.2,4.2v21.6
	C859.8,364.1,857.9,366,855.6,366z"/>
<g>
	<circle class="st12" cx="849.5" cy="341.5" r="1.7"/>
</g>
<circle class="st12" cx="849.5" cy="355.3" r="8"/>
<circle class="st8" cx="849.5" cy="355.3" r="1.7"/>
<path class="st8" d="M879.6,366h-12.3c-2.3,0-4.2-1.9-4.2-4.2v-21.6c0-2.3,1.9-4.2,4.2-4.2h12.3c2.3,0,4.2,1.9,4.2,4.2v21.6
	C883.8,364.1,881.9,366,879.6,366z"/>
<g>
	<circle class="st12" cx="873.5" cy="341.5" r="1.7"/>
</g>
<circle class="st12" cx="873.5" cy="355.3" r="8"/>
<circle class="st8" cx="873.5" cy="355.3" r="1.7"/>
</svg>
