<?xml version="1.0" encoding="utf-8"?>
<!-- Generator: Adobe Illustrator 21.0.2, SVG Export Plug-In . SVG Version: 6.00 Build 0)  -->
<svg version="1.1" id="Layer_1" xmlns="http://www.w3.org/2000/svg" xmlns:xlink="http://www.w3.org/1999/xlink" x="0px" y="0px"
	 viewBox="0 0 1306 1117" style="enable-background:new 0 0 1306 1117;" xml:space="preserve">
<style type="text/css">
	.st0{fill:none;stroke:#70AFEE;stroke-width:5;stroke-miterlimit:10;}
	.st1{fill:none;stroke:#0B6EC7;stroke-width:5;stroke-linejoin:round;}
	.st2{fill:none;stroke:#0B6EC7;stroke-width:5;stroke-linejoin:round;stroke-dasharray:12.0644,12.0644;}
	.st3{fill:none;stroke:#FF9090;stroke-width:5;stroke-miterlimit:10;}
	.st4{fill:none;stroke:#CC0000;stroke-width:5;stroke-linejoin:round;}
	.st5{fill:none;stroke:#CC0000;stroke-width:5;stroke-linejoin:round;stroke-dasharray:12.252,12.252;}
	.st6{fill:none;stroke:#CC0000;stroke-width:5;stroke-linejoin:round;stroke-dasharray:12.2582,12.2582;}
	.st7{fill:none;stroke:#262626;stroke-width:2.5;stroke-linejoin:round;stroke-miterlimit:10;stroke-opacity:0.149;}
	.st8{fill:none;stroke:#262626;stroke-width:2.5;stroke-linecap:square;stroke-linejoin:round;stroke-miterlimit:10;}
	.st9{fill:#262626;}
	.st10{fill:#CC0000;}
	.st11{fill:#0B6EC7;}
	.st12{fill:none;stroke:#B4B4B4;stroke-width:5;stroke-linejoin:round;stroke-miterlimit:10;}
	.st13{fill:#585858;}
	.st14{fill:none;stroke:#000000;stroke-width:2.5;stroke-linejoin:bevel;stroke-miterlimit:1;stroke-dasharray:8,8;}
	.st15{clip-path:url(#SVGID_2_);}
	.st16{fill:#FF9090;}
	.st17{clip-path:url(#SVGID_4_);}
	.st18{clip-path:url(#SVGID_6_);}
	.st19{clip-path:url(#SVGID_8_);}
	.st20{clip-path:url(#SVGID_10_);}
	.st21{fill:#70AFEE;}
	.st22{clip-path:url(#SVGID_12_);}
	.st23{clip-path:url(#SVGID_14_);}
	.st24{clip-path:url(#SVGID_16_);}
	.st25{clip-path:url(#SVGID_18_);}
	.st26{fill:#BCBCBC;}
	.st27{clip-path:url(#SVGID_20_);}
	.st28{clip-path:url(#SVGID_22_);}
	.st29{clip-path:url(#SVGID_24_);}
	.st30{fill:none;stroke:#000000;stroke-width:2.5;stroke-linejoin:round;stroke-miterlimit:10;}
	.st31{fill:none;stroke:#000000;stroke-width:2.5;stroke-miterlimit:10;}
	.st32{font-family:'ArialMT';}
	.st33{font-size:23.3333px;}
	.st34{font-size:25.6667px;}
	.st35{fill:none;stroke:#262626;stroke-width:0.8333;stroke-linejoin:round;stroke-miterlimit:10;}
	.st36{fill:#B4B4B4;}
	.st37{font-family:'MyriadPro-Bold';}
	.st38{font-size:70.8661px;}
	.st39{fill:none;stroke:#CC0000;stroke-width:5;stroke-linejoin:round;stroke-miterlimit:10;stroke-dasharray:12;}
	.st40{fill:none;stroke:#0B6EC7;stroke-width:5;stroke-linejoin:round;stroke-miterlimit:10;stroke-dasharray:12;}
	.st41{fill:none;stroke:#585858;stroke-width:4;stroke-linecap:square;stroke-linejoin:round;}
	.st42{fill:none;stroke:#585858;stroke-width:4;stroke-linecap:square;stroke-linejoin:round;stroke-dasharray:12.0608,12.0608;}
	.st43{fill:none;stroke:#585858;stroke-width:5;stroke-linejoin:round;stroke-miterlimit:10;stroke-dasharray:12;}
	.st44{clip-path:url(#SVGID_26_);}
	.st45{clip-path:url(#SVGID_28_);}
	.st46{clip-path:url(#SVGID_30_);}
	.st47{fill:#FFFFFF;}
</style>
<path class="st0" d="M738.6,59.5l-195.3,44.6l-72.5,16.7L415,137.6l-61.4,89.3l-173,390.6"/>
<g>
	<g>
		<line class="st1" x1="738" y1="60" x2="732.1" y2="61.3"/>
		<polyline class="st2" points="720.4,64 542.7,104.6 470.1,121.4 414.3,138.1 353,227.4 184.8,607 		"/>
		<line class="st1" x1="182.4" y1="612.5" x2="180" y2="618"/>
	</g>
</g>
<path class="st3" d="M738,60l-251.1,44.6l-106,11.2l-33.5,27.9L291.6,166L180,618"/>
<g>
	<g>
		<line class="st4" x1="738.1" y1="60.5" x2="732.2" y2="61.6"/>
		<polyline class="st5" points="720.1,63.7 487,105.1 381,116.3 347.5,144.2 302.9,162 		"/>
		<polyline class="st4" points="297.2,164.3 291.7,166.5 290.2,172.3 		"/>
		<line class="st6" x1="287.3" y1="184.2" x2="183" y2="606.7"/>
		<line class="st4" x1="181.5" y1="612.7" x2="180.1" y2="618.5"/>
	</g>
</g>
<g>
	<line class="st7" x1="180" y1="618" x2="180" y2="60"/>
	<line class="st7" x1="291.6" y1="618" x2="291.6" y2="60"/>
	<line class="st7" x1="403.2" y1="618" x2="403.2" y2="60"/>
	<line class="st7" x1="514.8" y1="618" x2="514.8" y2="60"/>
	<line class="st7" x1="626.4" y1="618" x2="626.4" y2="60"/>
	<line class="st7" x1="738" y1="618" x2="738" y2="60"/>
	<line class="st7" x1="738" y1="618" x2="180" y2="618"/>
	<line class="st7" x1="738" y1="506.4" x2="180" y2="506.4"/>
	<line class="st7" x1="738" y1="394.8" x2="180" y2="394.8"/>
	<line class="st7" x1="738" y1="283.2" x2="180" y2="283.2"/>
	<line class="st7" x1="738" y1="171.6" x2="180" y2="171.6"/>
	<line class="st7" x1="738" y1="60" x2="180" y2="60"/>
	<line class="st8" x1="180" y1="618" x2="738" y2="618"/>
	<line class="st8" x1="180" y1="618" x2="180" y2="612.4"/>
	<line class="st8" x1="291.6" y1="618" x2="291.6" y2="612.4"/>
	<line class="st8" x1="403.2" y1="618" x2="403.2" y2="612.4"/>
	<line class="st8" x1="514.8" y1="618" x2="514.8" y2="612.4"/>
	<line class="st8" x1="626.4" y1="618" x2="626.4" y2="612.4"/>
	<line class="st8" x1="738" y1="618" x2="738" y2="612.4"/>
</g>
<g transform="translate(94,686)">
	<path class="st9" d="M80.4-46.1c0-1.9,0.2-3.5,0.6-4.7c0.4-1.2,1-2.1,1.8-2.7c0.8-0.6,1.8-1,3-1c0.9,0,1.6,0.2,2.3,0.5
		c0.7,0.4,1.2,0.9,1.7,1.5c0.4,0.7,0.8,1.5,1,2.5c0.2,1,0.4,2.3,0.4,3.9c0,1.9-0.2,3.5-0.6,4.7c-0.4,1.2-1,2.1-1.8,2.8s-1.8,1-3,1
		c-1.6,0-2.8-0.6-3.8-1.7C81-40.8,80.4-43,80.4-46.1z M82.5-46.1c0,2.7,0.3,4.5,1,5.4c0.6,0.9,1.4,1.3,2.3,1.3
		c0.9,0,1.7-0.5,2.3-1.4c0.6-0.9,0.9-2.7,0.9-5.4c0-2.7-0.3-4.5-0.9-5.4c-0.6-0.9-1.4-1.3-2.4-1.3c-0.9,0-1.7,0.4-2.2,1.2
		C82.9-50.7,82.5-48.8,82.5-46.1z"/>
</g>
<g transform="translate(205.6,686)">
	<path class="st9" d="M70.4-46.1c0-1.9,0.2-3.5,0.6-4.7c0.4-1.2,1-2.1,1.8-2.7c0.8-0.6,1.8-1,3-1c0.9,0,1.6,0.2,2.3,0.5
		c0.7,0.4,1.2,0.9,1.7,1.5c0.4,0.7,0.8,1.5,1,2.5c0.2,1,0.4,2.3,0.4,3.9c0,1.9-0.2,3.5-0.6,4.7c-0.4,1.2-1,2.1-1.8,2.8s-1.8,1-3,1
		c-1.6,0-2.8-0.6-3.8-1.7C71-40.8,70.4-43,70.4-46.1z M72.5-46.1c0,2.7,0.3,4.5,1,5.4c0.6,0.9,1.4,1.3,2.3,1.3
		c0.9,0,1.7-0.5,2.3-1.4c0.6-0.9,0.9-2.7,0.9-5.4c0-2.7-0.3-4.5-0.9-5.4c-0.6-0.9-1.4-1.3-2.4-1.3c-0.9,0-1.7,0.4-2.2,1.2
		C72.9-50.7,72.5-48.8,72.5-46.1z M84.5-38v-2.3h2.3v2.3H84.5z M100.5-39.9v1.9H89.6c0-0.5,0.1-1,0.2-1.4c0.3-0.7,0.7-1.5,1.3-2.2
		c0.6-0.7,1.5-1.6,2.6-2.5c1.8-1.5,3-2.6,3.6-3.5c0.6-0.9,0.9-1.7,0.9-2.4c0-0.8-0.3-1.5-0.9-2c-0.6-0.6-1.3-0.8-2.3-0.8
		c-1,0-1.7,0.3-2.3,0.9c-0.6,0.6-0.9,1.4-0.9,2.4L90-49.8c0.1-1.6,0.7-2.7,1.6-3.5c0.9-0.8,2.2-1.2,3.7-1.2c1.6,0,2.8,0.4,3.8,1.3
		c0.9,0.9,1.4,2,1.4,3.3c0,0.7-0.1,1.3-0.4,1.9c-0.3,0.6-0.7,1.3-1.3,2s-1.7,1.7-3.1,2.9c-1.2,1-2,1.7-2.3,2.1
		c-0.3,0.4-0.6,0.7-0.9,1.1H100.5z"/>
</g>
<g transform="translate(317.2,686)">
	<path class="st9" d="M70.4-46.1c0-1.9,0.2-3.5,0.6-4.7c0.4-1.2,1-2.1,1.8-2.7c0.8-0.6,1.8-1,3-1c0.9,0,1.6,0.2,2.3,0.5
		c0.7,0.4,1.2,0.9,1.7,1.5c0.4,0.7,0.8,1.5,1,2.5c0.2,1,0.4,2.3,0.4,3.9c0,1.9-0.2,3.5-0.6,4.7c-0.4,1.2-1,2.1-1.8,2.8s-1.8,1-3,1
		c-1.6,0-2.8-0.6-3.8-1.7C71-40.8,70.4-43,70.4-46.1z M72.5-46.1c0,2.7,0.3,4.5,1,5.4c0.6,0.9,1.4,1.3,2.3,1.3
		c0.9,0,1.7-0.5,2.3-1.4c0.6-0.9,0.9-2.7,0.9-5.4c0-2.7-0.3-4.5-0.9-5.4c-0.6-0.9-1.4-1.3-2.4-1.3c-0.9,0-1.7,0.4-2.2,1.2
		C72.9-50.7,72.5-48.8,72.5-46.1z M84.5-38v-2.3h2.3v2.3H84.5z M96.4-38v-3.9h-7.1v-1.9l7.5-10.7h1.6v10.7h2.2v1.9h-2.2v3.9H96.4z
		 M96.4-43.8v-7.4l-5.2,7.4H96.4z"/>
</g>
<g transform="translate(428.8,686)">
	<path class="st9" d="M70.4-46.1c0-1.9,0.2-3.5,0.6-4.7c0.4-1.2,1-2.1,1.8-2.7c0.8-0.6,1.8-1,3-1c0.9,0,1.6,0.2,2.3,0.5
		c0.7,0.4,1.2,0.9,1.7,1.5c0.4,0.7,0.8,1.5,1,2.5c0.2,1,0.4,2.3,0.4,3.9c0,1.9-0.2,3.5-0.6,4.7c-0.4,1.2-1,2.1-1.8,2.8s-1.8,1-3,1
		c-1.6,0-2.8-0.6-3.8-1.7C71-40.8,70.4-43,70.4-46.1z M72.5-46.1c0,2.7,0.3,4.5,1,5.4c0.6,0.9,1.4,1.3,2.3,1.3
		c0.9,0,1.7-0.5,2.3-1.4c0.6-0.9,0.9-2.7,0.9-5.4c0-2.7-0.3-4.5-0.9-5.4c-0.6-0.9-1.4-1.3-2.4-1.3c-0.9,0-1.7,0.4-2.2,1.2
		C72.9-50.7,72.5-48.8,72.5-46.1z M84.5-38v-2.3h2.3v2.3H84.5z M100.4-50.4l-2,0.2c-0.2-0.8-0.4-1.4-0.8-1.7c-0.6-0.6-1.2-0.9-2-0.9
		c-0.6,0-1.2,0.2-1.7,0.5c-0.6,0.5-1.1,1.1-1.5,2c-0.4,0.9-0.6,2.2-0.6,3.8c0.5-0.8,1.1-1.3,1.8-1.7c0.7-0.4,1.4-0.5,2.2-0.5
		c1.3,0,2.5,0.5,3.4,1.5c0.9,1,1.4,2.3,1.4,3.9c0,1-0.2,2-0.7,2.9c-0.4,0.9-1.1,1.6-1.8,2c-0.8,0.5-1.7,0.7-2.7,0.7
		c-1.7,0-3.1-0.6-4.1-1.9c-1.1-1.2-1.6-3.3-1.6-6.1c0-3.2,0.6-5.5,1.8-6.9c1-1.3,2.4-1.9,4.1-1.9c1.3,0,2.4,0.4,3.2,1.1
		S100.2-51.7,100.4-50.4z M92.1-43.3c0,0.7,0.1,1.4,0.4,2c0.3,0.6,0.7,1.1,1.2,1.5c0.5,0.3,1.1,0.5,1.7,0.5c0.9,0,1.6-0.3,2.2-1
		c0.6-0.7,0.9-1.6,0.9-2.8c0-1.1-0.3-2-0.9-2.7c-0.6-0.7-1.4-1-2.3-1c-0.9,0-1.7,0.3-2.3,1C92.4-45.3,92.1-44.4,92.1-43.3z"/>
</g>
<g transform="translate(540.4,686)">
	<path class="st9" d="M70.4-46.1c0-1.9,0.2-3.5,0.6-4.7c0.4-1.2,1-2.1,1.8-2.7c0.8-0.6,1.8-1,3-1c0.9,0,1.6,0.2,2.3,0.5
		c0.7,0.4,1.2,0.9,1.7,1.5c0.4,0.7,0.8,1.5,1,2.5c0.2,1,0.4,2.3,0.4,3.9c0,1.9-0.2,3.5-0.6,4.7c-0.4,1.2-1,2.1-1.8,2.8s-1.8,1-3,1
		c-1.6,0-2.8-0.6-3.8-1.7C71-40.8,70.4-43,70.4-46.1z M72.5-46.1c0,2.7,0.3,4.5,1,5.4c0.6,0.9,1.4,1.3,2.3,1.3
		c0.9,0,1.7-0.5,2.3-1.4c0.6-0.9,0.9-2.7,0.9-5.4c0-2.7-0.3-4.5-0.9-5.4c-0.6-0.9-1.4-1.3-2.4-1.3c-0.9,0-1.7,0.4-2.2,1.2
		C72.9-50.7,72.5-48.8,72.5-46.1z M84.5-38v-2.3h2.3v2.3H84.5z M93-46.9c-0.8-0.3-1.5-0.8-1.9-1.3s-0.6-1.2-0.6-2
		c0-1.2,0.4-2.2,1.3-3c0.9-0.8,2-1.2,3.4-1.2c1.4,0,2.6,0.4,3.5,1.3s1.3,1.8,1.3,3c0,0.8-0.2,1.4-0.6,2c-0.4,0.6-1,1-1.8,1.3
		c1,0.3,1.8,0.9,2.3,1.6c0.5,0.7,0.8,1.6,0.8,2.6c0,1.4-0.5,2.6-1.5,3.5c-1,1-2.3,1.4-3.9,1.4c-1.6,0-2.9-0.5-3.9-1.4
		c-1-1-1.5-2.2-1.5-3.6c0-1.1,0.3-2,0.8-2.7C91.2-46.2,92-46.7,93-46.9z M92.6-50.4c0,0.8,0.3,1.4,0.8,1.9s1.2,0.7,2,0.7
		c0.8,0,1.4-0.2,1.9-0.7s0.8-1.1,0.8-1.8c0-0.8-0.3-1.4-0.8-1.9c-0.5-0.5-1.2-0.8-1.9-0.8c-0.8,0-1.4,0.2-1.9,0.7
		C92.8-51.6,92.6-51,92.6-50.4z M91.9-42.8c0,0.6,0.1,1.1,0.4,1.7c0.3,0.5,0.7,1,1.2,1.3c0.5,0.3,1.1,0.4,1.7,0.4
		c1,0,1.8-0.3,2.4-0.9c0.6-0.6,0.9-1.4,0.9-2.4c0-1-0.3-1.8-1-2.4c-0.7-0.6-1.5-1-2.4-1c-0.9,0-1.7,0.3-2.4,0.9S91.9-43.7,91.9-42.8
		z"/>
</g>
<g transform="translate(652,686)">
	<path class="st9" d="M88-38h-2v-12.9c-0.5,0.5-1.1,0.9-1.9,1.4c-0.8,0.5-1.5,0.8-2.1,1.1v-2c1.1-0.5,2.1-1.2,3-1.9
		c0.8-0.8,1.4-1.5,1.8-2.2H88V-38z"/>
</g>
<g>
	<line class="st8" x1="180" y1="618" x2="180" y2="60"/>
	<line class="st8" x1="180" y1="618" x2="185.6" y2="618"/>
	<line class="st8" x1="180" y1="506.4" x2="185.6" y2="506.4"/>
	<line class="st8" x1="180" y1="394.8" x2="185.6" y2="394.8"/>
	<line class="st8" x1="180" y1="283.2" x2="185.6" y2="283.2"/>
	<line class="st8" x1="180" y1="171.6" x2="185.6" y2="171.6"/>
	<line class="st8" x1="180" y1="60" x2="185.6" y2="60"/>
</g>
<g transform="translate(86,678)">
	<path class="st9" d="M73.9-59.6c0-1.9,0.2-3.5,0.6-4.7c0.4-1.2,1-2.1,1.8-2.7c0.8-0.6,1.8-1,3-1c0.9,0,1.6,0.2,2.3,0.5
		c0.7,0.4,1.2,0.9,1.7,1.5c0.4,0.7,0.8,1.5,1,2.5c0.2,1,0.4,2.3,0.4,3.9c0,1.9-0.2,3.5-0.6,4.7c-0.4,1.2-1,2.1-1.8,2.8s-1.8,1-3,1
		c-1.6,0-2.8-0.6-3.8-1.7C74.5-54.3,73.9-56.5,73.9-59.6z M76-59.6c0,2.7,0.3,4.5,1,5.4c0.6,0.9,1.4,1.3,2.3,1.3
		c0.9,0,1.7-0.5,2.3-1.4c0.6-0.9,0.9-2.7,0.9-5.4c0-2.7-0.3-4.5-0.9-5.4c-0.6-0.9-1.4-1.3-2.4-1.3c-0.9,0-1.7,0.4-2.2,1.2
		C76.4-64.2,76-62.3,76-59.6z"/>
</g>
<g transform="translate(86,566.4)">
	<path class="st9" d="M53.9-59.6c0-1.9,0.2-3.5,0.6-4.7c0.4-1.2,1-2.1,1.8-2.7c0.8-0.6,1.8-1,3-1c0.9,0,1.6,0.2,2.3,0.5
		c0.7,0.4,1.2,0.9,1.7,1.5c0.4,0.7,0.8,1.5,1,2.5c0.2,1,0.4,2.3,0.4,3.9c0,1.9-0.2,3.5-0.6,4.7c-0.4,1.2-1,2.1-1.8,2.8s-1.8,1-3,1
		c-1.6,0-2.8-0.6-3.8-1.7C54.5-54.3,53.9-56.5,53.9-59.6z M56-59.6c0,2.7,0.3,4.5,1,5.4c0.6,0.9,1.4,1.3,2.3,1.3
		c0.9,0,1.7-0.5,2.3-1.4c0.6-0.9,0.9-2.7,0.9-5.4c0-2.7-0.3-4.5-0.9-5.4c-0.6-0.9-1.4-1.3-2.4-1.3c-0.9,0-1.7,0.4-2.2,1.2
		C56.4-64.2,56-62.3,56-59.6z M68-51.5v-2.3h2.3v2.3H68z M84-53.4v1.9H73.1c0-0.5,0.1-1,0.2-1.4c0.3-0.7,0.7-1.5,1.3-2.2
		c0.6-0.7,1.5-1.6,2.6-2.5c1.8-1.5,3-2.6,3.6-3.5c0.6-0.9,0.9-1.7,0.9-2.4c0-0.8-0.3-1.5-0.9-2c-0.6-0.6-1.3-0.8-2.3-0.8
		c-1,0-1.7,0.3-2.3,0.9c-0.6,0.6-0.9,1.4-0.9,2.4l-2.1-0.2c0.1-1.6,0.7-2.7,1.6-3.5c0.9-0.8,2.2-1.2,3.7-1.2c1.6,0,2.8,0.4,3.8,1.3
		c0.9,0.9,1.4,2,1.4,3.3c0,0.7-0.1,1.3-0.4,1.9c-0.3,0.6-0.7,1.3-1.3,2c-0.6,0.7-1.7,1.7-3.1,2.9c-1.2,1-2,1.7-2.3,2.1
		c-0.3,0.4-0.6,0.7-0.9,1.1H84z"/>
</g>
<g transform="translate(86,454.8)">
	<path class="st9" d="M53.9-59.6c0-1.9,0.2-3.5,0.6-4.7c0.4-1.2,1-2.1,1.8-2.7c0.8-0.6,1.8-1,3-1c0.9,0,1.6,0.2,2.3,0.5
		c0.7,0.4,1.2,0.9,1.7,1.5c0.4,0.7,0.8,1.5,1,2.5c0.2,1,0.4,2.3,0.4,3.9c0,1.9-0.2,3.5-0.6,4.7c-0.4,1.2-1,2.1-1.8,2.8s-1.8,1-3,1
		c-1.6,0-2.8-0.6-3.8-1.7C54.5-54.3,53.9-56.5,53.9-59.6z M56-59.6c0,2.7,0.3,4.5,1,5.4c0.6,0.9,1.4,1.3,2.3,1.3
		c0.9,0,1.7-0.5,2.3-1.4c0.6-0.9,0.9-2.7,0.9-5.4c0-2.7-0.3-4.5-0.9-5.4c-0.6-0.9-1.4-1.3-2.4-1.3c-0.9,0-1.7,0.4-2.2,1.2
		C56.4-64.2,56-62.3,56-59.6z M68-51.5v-2.3h2.3v2.3H68z M79.9-51.5v-3.9h-7.1v-1.9L80.2-68h1.6v10.7h2.2v1.9h-2.2v3.9H79.9z
		 M79.9-57.3v-7.4l-5.2,7.4H79.9z"/>
</g>
<g transform="translate(86,343.2)">
	<path class="st9" d="M53.9-59.6c0-1.9,0.2-3.5,0.6-4.7c0.4-1.2,1-2.1,1.8-2.7c0.8-0.6,1.8-1,3-1c0.9,0,1.6,0.2,2.3,0.5
		c0.7,0.4,1.2,0.9,1.7,1.5c0.4,0.7,0.8,1.5,1,2.5c0.2,1,0.4,2.3,0.4,3.9c0,1.9-0.2,3.5-0.6,4.7c-0.4,1.2-1,2.1-1.8,2.8s-1.8,1-3,1
		c-1.6,0-2.8-0.6-3.8-1.7C54.5-54.3,53.9-56.5,53.9-59.6z M56-59.6c0,2.7,0.3,4.5,1,5.4c0.6,0.9,1.4,1.3,2.3,1.3
		c0.9,0,1.7-0.5,2.3-1.4c0.6-0.9,0.9-2.7,0.9-5.4c0-2.7-0.3-4.5-0.9-5.4c-0.6-0.9-1.4-1.3-2.4-1.3c-0.9,0-1.7,0.4-2.2,1.2
		C56.4-64.2,56-62.3,56-59.6z M68-51.5v-2.3h2.3v2.3H68z M83.9-63.9l-2,0.2c-0.2-0.8-0.4-1.4-0.8-1.7c-0.6-0.6-1.2-0.9-2-0.9
		c-0.6,0-1.2,0.2-1.7,0.5c-0.6,0.5-1.1,1.1-1.5,2c-0.4,0.9-0.6,2.2-0.6,3.8c0.5-0.8,1.1-1.3,1.8-1.7c0.7-0.4,1.4-0.5,2.2-0.5
		c1.3,0,2.5,0.5,3.4,1.5c0.9,1,1.4,2.3,1.4,3.9c0,1-0.2,2-0.7,2.9c-0.4,0.9-1.1,1.6-1.8,2c-0.8,0.5-1.7,0.7-2.7,0.7
		c-1.7,0-3.1-0.6-4.1-1.9c-1.1-1.2-1.6-3.3-1.6-6.1c0-3.2,0.6-5.5,1.8-6.9c1-1.3,2.4-1.9,4.1-1.9c1.3,0,2.4,0.4,3.2,1.1
		C83.2-66.2,83.7-65.2,83.9-63.9z M75.6-56.8c0,0.7,0.1,1.4,0.4,2c0.3,0.6,0.7,1.1,1.2,1.5c0.5,0.3,1.1,0.5,1.7,0.5
		c0.9,0,1.6-0.3,2.2-1c0.6-0.7,0.9-1.6,0.9-2.8c0-1.1-0.3-2-0.9-2.7c-0.6-0.7-1.4-1-2.3-1c-0.9,0-1.7,0.3-2.3,1
		C75.9-58.8,75.6-57.9,75.6-56.8z"/>
</g>
<g transform="translate(86,231.6)">
	<path class="st9" d="M53.9-59.6c0-1.9,0.2-3.5,0.6-4.7c0.4-1.2,1-2.1,1.8-2.7c0.8-0.6,1.8-1,3-1c0.9,0,1.6,0.2,2.3,0.5
		c0.7,0.4,1.2,0.9,1.7,1.5c0.4,0.7,0.8,1.5,1,2.5c0.2,1,0.4,2.3,0.4,3.9c0,1.9-0.2,3.5-0.6,4.7c-0.4,1.2-1,2.1-1.8,2.8s-1.8,1-3,1
		c-1.6,0-2.8-0.6-3.8-1.7C54.5-54.3,53.9-56.5,53.9-59.6z M56-59.6c0,2.7,0.3,4.5,1,5.4c0.6,0.9,1.4,1.3,2.3,1.3
		c0.9,0,1.7-0.5,2.3-1.4c0.6-0.9,0.9-2.7,0.9-5.4c0-2.7-0.3-4.5-0.9-5.4c-0.6-0.9-1.4-1.3-2.4-1.3c-0.9,0-1.7,0.4-2.2,1.2
		C56.4-64.2,56-62.3,56-59.6z M68-51.5v-2.3h2.3v2.3H68z M76.5-60.4c-0.8-0.3-1.5-0.8-1.9-1.3S74-63,74-63.8c0-1.2,0.4-2.2,1.3-3
		c0.9-0.8,2-1.2,3.4-1.2c1.4,0,2.6,0.4,3.5,1.3c0.9,0.8,1.3,1.8,1.3,3c0,0.8-0.2,1.4-0.6,2c-0.4,0.6-1,1-1.8,1.3
		c1,0.3,1.8,0.9,2.3,1.6c0.5,0.7,0.8,1.6,0.8,2.6c0,1.4-0.5,2.6-1.5,3.5c-1,1-2.3,1.4-3.9,1.4s-2.9-0.5-3.9-1.4
		c-1-1-1.5-2.2-1.5-3.6c0-1.1,0.3-2,0.8-2.7C74.7-59.7,75.5-60.2,76.5-60.4z M76.1-63.9c0,0.8,0.3,1.4,0.8,1.9s1.2,0.7,2,0.7
		c0.8,0,1.4-0.2,1.9-0.7s0.8-1.1,0.8-1.8c0-0.7-0.3-1.4-0.8-1.9c-0.5-0.5-1.2-0.8-1.9-0.8c-0.8,0-1.4,0.2-1.9,0.7
		C76.3-65.1,76.1-64.5,76.1-63.9z M75.4-56.3c0,0.6,0.1,1.1,0.4,1.7c0.3,0.5,0.7,1,1.2,1.3c0.5,0.3,1.1,0.4,1.7,0.4
		c1,0,1.8-0.3,2.4-0.9c0.6-0.6,0.9-1.4,0.9-2.4c0-1-0.3-1.8-1-2.4c-0.7-0.6-1.5-1-2.4-1c-0.9,0-1.7,0.3-2.4,0.9S75.4-57.2,75.4-56.3
		z"/>
</g>
<g transform="translate(86,120)">
	<path class="st9" d="M81.5-51.5h-2v-12.9c-0.5,0.5-1.1,0.9-1.9,1.4c-0.8,0.5-1.5,0.8-2.1,1.1v-2c1.1-0.5,2.1-1.2,3-1.9
		c0.8-0.8,1.4-1.5,1.8-2.2h1.3V-51.5z"/>
</g>
<path class="st10" d="M738,57.5c1.4,0,2.5,1.1,2.5,2.5l0,0c0,1.4-1.1,2.5-2.5,2.5s-2.5-1.1-2.5-2.5S736.6,57.5,738,57.5z M738,52.5
	c-4.1,0-7.5,3.4-7.5,7.5s3.4,7.5,7.5,7.5s7.5-3.4,7.5-7.5l0,0C745.5,55.9,742.1,52.5,738,52.5z"/>
<path class="st10" d="M486.9,102.1c1.4,0,2.5,1.1,2.5,2.5l0,0c0,1.4-1.1,2.5-2.5,2.5s-2.5-1.1-2.5-2.5S485.5,102.1,486.9,102.1z
	 M486.9,97.1c-4.1,0-7.5,3.4-7.5,7.5s3.4,7.5,7.5,7.5s7.5-3.4,7.5-7.5l0,0C494.4,100.5,491,97.1,486.9,97.1z"/>
<path class="st10" d="M380.9,113.3c1.4,0,2.5,1.1,2.5,2.5l0,0c0,1.4-1.1,2.5-2.5,2.5s-2.5-1.1-2.5-2.5S379.5,113.3,380.9,113.3z
	 M380.9,108.3c-4.1,0-7.5,3.4-7.5,7.5s3.4,7.5,7.5,7.5s7.5-3.4,7.5-7.5l0,0C388.4,111.7,385,108.3,380.9,108.3z"/>
<path class="st10" d="M347.4,141.2c1.4,0,2.5,1.1,2.5,2.5l0,0c0,1.4-1.1,2.5-2.5,2.5s-2.5-1.1-2.5-2.5S346,141.2,347.4,141.2z
	 M347.4,136.2c-4.1,0-7.5,3.4-7.5,7.5s3.4,7.5,7.5,7.5s7.5-3.4,7.5-7.5l0,0C354.9,139.6,351.5,136.2,347.4,136.2z"/>
<path class="st10" d="M291.6,163.5c1.4,0,2.5,1.1,2.5,2.5l0,0c0,1.4-1.1,2.5-2.5,2.5s-2.5-1.1-2.5-2.5S290.2,163.5,291.6,163.5z
	 M291.6,158.5c-4.1,0-7.5,3.4-7.5,7.5s3.4,7.5,7.5,7.5s7.5-3.4,7.5-7.5l0,0C299.1,161.9,295.7,158.5,291.6,158.5z"/>
<path class="st10" d="M180,615.5c1.4,0,2.5,1.1,2.5,2.5l0,0c0,1.4-1.1,2.5-2.5,2.5s-2.5-1.1-2.5-2.5S178.6,615.5,180,615.5z
	 M180,610.5c-4.1,0-7.5,3.4-7.5,7.5s3.4,7.5,7.5,7.5s7.5-3.4,7.5-7.5l0,0C187.5,613.9,184.1,610.5,180,610.5z"/>
<path class="st11" d="M738,57.5c1.4,0,2.5,1.1,2.5,2.5l0,0c0,1.4-1.1,2.5-2.5,2.5s-2.5-1.1-2.5-2.5S736.6,57.5,738,57.5z M738,52.5
	c-4.1,0-7.5,3.4-7.5,7.5s3.4,7.5,7.5,7.5s7.5-3.4,7.5-7.5l0,0C745.5,55.9,742.1,52.5,738,52.5z"/>
<path class="st11" d="M542.7,102.1c1.4,0,2.5,1.1,2.5,2.5l0,0c0,1.4-1.1,2.5-2.5,2.5s-2.5-1.1-2.5-2.5S541.3,102.1,542.7,102.1z
	 M542.7,97.1c-4.1,0-7.5,3.4-7.5,7.5s3.4,7.5,7.5,7.5s7.5-3.4,7.5-7.5l0,0C550.2,100.5,546.8,97.1,542.7,97.1z"/>
<path class="st11" d="M470.1,118.9c1.4,0,2.5,1.1,2.5,2.5l0,0c0,1.4-1.1,2.5-2.5,2.5s-2.5-1.1-2.5-2.5S468.8,118.9,470.1,118.9z
	 M470.1,113.9c-4.1,0-7.5,3.4-7.5,7.5s3.4,7.5,7.5,7.5s7.5-3.4,7.5-7.5l0,0C477.6,117.2,474.3,113.9,470.1,113.9z"/>
<path class="st11" d="M414.3,135.6c1.4,0,2.5,1.1,2.5,2.5l0,0c0,1.4-1.1,2.5-2.5,2.5s-2.5-1.1-2.5-2.5S413,135.6,414.3,135.6z
	 M414.3,130.6c-4.1,0-7.5,3.4-7.5,7.5s3.4,7.5,7.5,7.5s7.5-3.4,7.5-7.5l0,0C421.8,134,418.5,130.6,414.3,130.6z"/>
<path class="st11" d="M353,224.9c1.4,0,2.5,1.1,2.5,2.5l0,0c0,1.4-1.1,2.5-2.5,2.5s-2.5-1.1-2.5-2.5S351.6,224.9,353,224.9z
	 M353,219.9c-4.1,0-7.5,3.4-7.5,7.5s3.4,7.5,7.5,7.5s7.5-3.4,7.5-7.5l0,0C360.5,223.3,357.1,219.9,353,219.9z"/>
<path class="st11" d="M180,615.5c1.4,0,2.5,1.1,2.5,2.5l0,0c0,1.4-1.1,2.5-2.5,2.5s-2.5-1.1-2.5-2.5S178.6,615.5,180,615.5z
	 M180,610.5c-4.1,0-7.5,3.4-7.5,7.5s3.4,7.5,7.5,7.5s7.5-3.4,7.5-7.5l0,0C187.5,613.9,184.1,610.5,180,610.5z"/>
<path class="st12" d="M738,60l-340.4,78.1l-100.4,22.3l-44.6,33.5L219,277.6L180,618"/>
<path class="st13" d="M738,57.5c1.4,0,2.5,1.1,2.5,2.5l0,0c0,1.4-1.1,2.5-2.5,2.5s-2.5-1.1-2.5-2.5S736.6,57.5,738,57.5z M738,52.5
	c-4.1,0-7.5,3.4-7.5,7.5s3.4,7.5,7.5,7.5s7.5-3.4,7.5-7.5l0,0C745.5,55.9,742.1,52.5,738,52.5z"/>
<path class="st13" d="M397.6,135.6c1.4,0,2.5,1.1,2.5,2.5l0,0c0,1.4-1.1,2.5-2.5,2.5s-2.5-1.1-2.5-2.5S396.2,135.6,397.6,135.6z
	 M397.6,130.6c-4.1,0-7.5,3.4-7.5,7.5s3.4,7.5,7.5,7.5s7.5-3.4,7.5-7.5l0,0C405.1,134,401.7,130.6,397.6,130.6z"/>
<path class="st13" d="M297.2,157.9c1.4,0,2.5,1.1,2.5,2.5l0,0c0,1.4-1.1,2.5-2.5,2.5s-2.5-1.1-2.5-2.5S295.8,157.9,297.2,157.9z
	 M297.2,152.9c-4.1,0-7.5,3.4-7.5,7.5s3.4,7.5,7.5,7.5s7.5-3.4,7.5-7.5l0,0C304.7,156.3,301.3,152.9,297.2,152.9z"/>
<path class="st13" d="M252.5,191.4c1.4,0,2.5,1.1,2.5,2.5l0,0c0,1.4-1.1,2.5-2.5,2.5s-2.5-1.1-2.5-2.5S251.1,191.4,252.5,191.4z
	 M252.5,186.4c-4.1,0-7.5,3.4-7.5,7.5s3.4,7.5,7.5,7.5s7.5-3.4,7.5-7.5l0,0C260,189.8,256.7,186.4,252.5,186.4z"/>
<path class="st13" d="M219,275.1c1.4,0,2.5,1.1,2.5,2.5l0,0c0,1.4-1.1,2.5-2.5,2.5s-2.5-1.1-2.5-2.5S217.7,275.1,219,275.1z
	 M219,270.1c-4.1,0-7.5,3.4-7.5,7.5s3.4,7.5,7.5,7.5s7.5-3.4,7.5-7.5l0,0C226.5,273.5,223.2,270.1,219,270.1z"/>
<path class="st13" d="M180,615.5c1.4,0,2.5,1.1,2.5,2.5l0,0c0,1.4-1.1,2.5-2.5,2.5s-2.5-1.1-2.5-2.5S178.6,615.5,180,615.5z
	 M180,610.5c-4.1,0-7.5,3.4-7.5,7.5s3.4,7.5,7.5,7.5s7.5-3.4,7.5-7.5l0,0C187.5,613.9,184.1,610.5,180,610.5z"/>
<g transform="translate(311.62,184.17)">
	<path d="M87-54.7l2.2-0.3c0.3,1.2,0.7,2.1,1.3,2.7c0.6,0.6,1.3,0.8,2.2,0.8c1,0,1.9-0.4,2.6-1.1c0.7-0.7,1.1-1.6,1.1-2.7
		c0-1-0.3-1.8-1-2.5c-0.7-0.7-1.5-1-2.5-1c-0.4,0-0.9,0.1-1.5,0.3l0.2-1.9c0.1,0,0.3,0,0.4,0c0.9,0,1.8-0.2,2.5-0.7
		c0.7-0.5,1.1-1.2,1.1-2.3c0-0.8-0.3-1.5-0.8-2c-0.5-0.5-1.2-0.8-2.1-0.8c-0.9,0-1.6,0.3-2.1,0.8c-0.6,0.5-0.9,1.3-1.1,2.4l-2.2-0.4
		c0.3-1.5,0.9-2.6,1.8-3.4c1-0.8,2.1-1.2,3.6-1.2c1,0,1.9,0.2,2.7,0.6c0.8,0.4,1.4,1,1.9,1.7c0.4,0.7,0.7,1.5,0.7,2.3
		c0,0.8-0.2,1.5-0.6,2.1c-0.4,0.6-1,1.1-1.8,1.5c1.1,0.2,1.9,0.7,2.5,1.5c0.6,0.8,0.9,1.7,0.9,2.9c0,1.6-0.6,2.9-1.7,4
		c-1.1,1.1-2.6,1.6-4.3,1.6c-1.6,0-2.9-0.5-3.9-1.4C87.8-52,87.2-53.2,87-54.7z"/>
</g>
<g transform="translate(194.44,186.96)">
	<path d="M94.1-50v-4.3h-7.8v-2l8.2-11.6h1.8v11.6h2.4v2h-2.4v4.3H94.1z M94.1-56.3v-8.1l-5.6,8.1H94.1z"/>
</g>
<g transform="translate(149.8,220.44)">
	<path d="M87-54.7l2.3-0.2c0.2,1.1,0.6,2,1.2,2.5c0.6,0.6,1.4,0.9,2.3,0.9c1.1,0,2-0.4,2.7-1.2c0.7-0.8,1.1-1.9,1.1-3.2
		c0-1.3-0.4-2.2-1.1-3c-0.7-0.7-1.6-1.1-2.8-1.1c-0.7,0-1.3,0.2-1.9,0.5c-0.6,0.3-1,0.7-1.4,1.3l-2.1-0.3l1.7-9.2H98v2.1h-7.1
		l-1,4.8c1.1-0.7,2.2-1.1,3.4-1.1c1.6,0,2.9,0.5,4,1.6c1.1,1.1,1.6,2.5,1.6,4.2c0,1.6-0.5,3-1.4,4.2c-1.1,1.5-2.7,2.2-4.7,2.2
		c-1.6,0-3-0.5-4-1.4C87.7-52,87.2-53.2,87-54.7z"/>
</g>
<g transform="translate(116.32,304.14)">
	<path d="M98.4-63.5l-2.2,0.2c-0.2-0.9-0.5-1.5-0.8-1.9c-0.6-0.6-1.3-0.9-2.2-0.9c-0.7,0-1.3,0.2-1.8,0.6c-0.7,0.5-1.2,1.2-1.6,2.2
		c-0.4,1-0.6,2.3-0.6,4.1c0.5-0.8,1.2-1.4,1.9-1.8c0.8-0.4,1.6-0.6,2.4-0.6c1.5,0,2.7,0.5,3.7,1.6c1,1.1,1.5,2.5,1.5,4.2
		c0,1.1-0.2,2.2-0.7,3.1c-0.5,1-1.1,1.7-2,2.2c-0.8,0.5-1.8,0.8-2.9,0.8c-1.8,0-3.3-0.7-4.5-2c-1.2-1.3-1.7-3.6-1.7-6.7
		c0-3.5,0.6-6,1.9-7.5c1.1-1.4,2.6-2,4.5-2c1.4,0,2.6,0.4,3.5,1.2C97.7-66,98.2-64.9,98.4-63.5z M89.4-55.8c0,0.8,0.2,1.5,0.5,2.2
		c0.3,0.7,0.8,1.2,1.4,1.6c0.6,0.4,1.2,0.5,1.8,0.5c0.9,0,1.7-0.4,2.4-1.1c0.7-0.8,1-1.8,1-3c0-1.2-0.3-2.2-1-2.9
		c-0.7-0.7-1.5-1.1-2.5-1.1c-1,0-1.8,0.4-2.5,1.1C89.8-57.9,89.4-57,89.4-55.8z"/>
</g>
<g transform="translate(400.9,142.32)">
	<path class="st10" d="M87-54.7l2.2-0.3c0.3,1.2,0.7,2.1,1.3,2.7c0.6,0.6,1.3,0.8,2.2,0.8c1,0,1.9-0.4,2.6-1.1
		c0.7-0.7,1.1-1.6,1.1-2.7c0-1-0.3-1.8-1-2.5c-0.7-0.7-1.5-1-2.5-1c-0.4,0-0.9,0.1-1.5,0.3l0.2-1.9c0.1,0,0.3,0,0.4,0
		c0.9,0,1.8-0.2,2.5-0.7c0.7-0.5,1.1-1.2,1.1-2.3c0-0.8-0.3-1.5-0.8-2c-0.5-0.5-1.2-0.8-2.1-0.8c-0.9,0-1.6,0.3-2.1,0.8
		c-0.6,0.5-0.9,1.3-1.1,2.4l-2.2-0.4c0.3-1.5,0.9-2.6,1.8-3.4c1-0.8,2.1-1.2,3.6-1.2c1,0,1.9,0.2,2.7,0.6c0.8,0.4,1.4,1,1.9,1.7
		c0.4,0.7,0.7,1.5,0.7,2.3c0,0.8-0.2,1.5-0.6,2.1c-0.4,0.6-1,1.1-1.8,1.5c1.1,0.2,1.9,0.7,2.5,1.5c0.6,0.8,0.9,1.7,0.9,2.9
		c0,1.6-0.6,2.9-1.7,4c-1.1,1.1-2.6,1.6-4.3,1.6c-1.6,0-2.9-0.5-3.9-1.4C87.8-52,87.2-53.2,87-54.7z"/>
</g>
<g transform="translate(294.88,153.48)">
	<path class="st10" d="M94.1-50v-4.3h-7.8v-2l8.2-11.6h1.8v11.6h2.4v2h-2.4v4.3H94.1z M94.1-56.3v-8.1l-5.6,8.1H94.1z"/>
</g>
<g transform="translate(261.4,181.38)">
	<path class="st10" d="M87-54.7l2.3-0.2c0.2,1.1,0.6,2,1.2,2.5c0.6,0.6,1.4,0.9,2.3,0.9c1.1,0,2-0.4,2.7-1.2
		c0.7-0.8,1.1-1.9,1.1-3.2c0-1.3-0.4-2.2-1.1-3c-0.7-0.7-1.6-1.1-2.8-1.1c-0.7,0-1.3,0.2-1.9,0.5c-0.6,0.3-1,0.7-1.4,1.3l-2.1-0.3
		l1.7-9.2H98v2.1h-7.1l-1,4.8c1.1-0.7,2.2-1.1,3.4-1.1c1.6,0,2.9,0.5,4,1.6c1.1,1.1,1.6,2.5,1.6,4.2c0,1.6-0.5,3-1.4,4.2
		c-1.1,1.5-2.7,2.2-4.7,2.2c-1.6,0-3-0.5-4-1.4C87.7-52,87.2-53.2,87-54.7z"/>
</g>
<g transform="translate(205.6,203.7)">
	<path class="st10" d="M98.4-63.5l-2.2,0.2c-0.2-0.9-0.5-1.5-0.8-1.9c-0.6-0.6-1.3-0.9-2.2-0.9c-0.7,0-1.3,0.2-1.8,0.6
		c-0.7,0.5-1.2,1.2-1.6,2.2c-0.4,1-0.6,2.3-0.6,4.1c0.5-0.8,1.2-1.4,1.9-1.8c0.8-0.4,1.6-0.6,2.4-0.6c1.5,0,2.7,0.5,3.7,1.6
		c1,1.1,1.5,2.5,1.5,4.2c0,1.1-0.2,2.2-0.7,3.1c-0.5,1-1.1,1.7-2,2.2c-0.8,0.5-1.8,0.8-2.9,0.8c-1.8,0-3.3-0.7-4.5-2
		c-1.2-1.3-1.7-3.6-1.7-6.7c0-3.5,0.6-6,1.9-7.5c1.1-1.4,2.6-2,4.5-2c1.4,0,2.6,0.4,3.5,1.2C97.7-66,98.2-64.9,98.4-63.5z
		 M89.4-55.8c0,0.8,0.2,1.5,0.5,2.2c0.3,0.7,0.8,1.2,1.4,1.6c0.6,0.4,1.2,0.5,1.8,0.5c0.9,0,1.7-0.4,2.4-1.1c0.7-0.8,1-1.8,1-3
		c0-1.2-0.3-2.2-1-2.9c-0.7-0.7-1.5-1.1-2.5-1.1c-1,0-1.8,0.4-2.5,1.1C89.8-57.9,89.4-57,89.4-55.8z"/>
</g>
<g transform="translate(456.7,178.59)">
	<path class="st11" d="M87-54.7l2.2-0.3c0.3,1.2,0.7,2.1,1.3,2.7c0.6,0.6,1.3,0.8,2.2,0.8c1,0,1.9-0.4,2.6-1.1
		c0.7-0.7,1.1-1.6,1.1-2.7c0-1-0.3-1.8-1-2.5c-0.7-0.7-1.5-1-2.5-1c-0.4,0-0.9,0.1-1.5,0.3l0.2-1.9c0.1,0,0.3,0,0.4,0
		c0.9,0,1.8-0.2,2.5-0.7c0.7-0.5,1.1-1.2,1.1-2.3c0-0.8-0.3-1.5-0.8-2c-0.5-0.5-1.2-0.8-2.1-0.8c-0.9,0-1.6,0.3-2.1,0.8
		c-0.6,0.5-0.9,1.3-1.1,2.4l-2.2-0.4c0.3-1.5,0.9-2.6,1.8-3.4c1-0.8,2.1-1.2,3.6-1.2c1,0,1.9,0.2,2.7,0.6c0.8,0.4,1.4,1,1.9,1.7
		c0.4,0.7,0.7,1.5,0.7,2.3c0,0.8-0.2,1.5-0.6,2.1c-0.4,0.6-1,1.1-1.8,1.5c1.1,0.2,1.9,0.7,2.5,1.5c0.6,0.8,0.9,1.7,0.9,2.9
		c0,1.6-0.6,2.9-1.7,4c-1.1,1.1-2.6,1.6-4.3,1.6c-1.6,0-2.9-0.5-3.9-1.4C87.8-52,87.2-53.2,87-54.7z"/>
</g>
<g transform="translate(384.16,195.33)">
	<path class="st11" d="M94.1-50v-4.3h-7.8v-2l8.2-11.6h1.8v11.6h2.4v2h-2.4v4.3H94.1z M94.1-56.3v-8.1l-5.6,8.1H94.1z"/>
</g>
<g transform="translate(328.36,212.07)">
	<path class="st11" d="M87-54.7l2.3-0.2c0.2,1.1,0.6,2,1.2,2.5c0.6,0.6,1.4,0.9,2.3,0.9c1.1,0,2-0.4,2.7-1.2
		c0.7-0.8,1.1-1.9,1.1-3.2c0-1.3-0.4-2.2-1.1-3c-0.7-0.7-1.6-1.1-2.8-1.1c-0.7,0-1.3,0.2-1.9,0.5c-0.6,0.3-1,0.7-1.4,1.3l-2.1-0.3
		l1.7-9.2H98v2.1h-7.1l-1,4.8c1.1-0.7,2.2-1.1,3.4-1.1c1.6,0,2.9,0.5,4,1.6c1.1,1.1,1.6,2.5,1.6,4.2c0,1.6-0.5,3-1.4,4.2
		c-1.1,1.5-2.7,2.2-4.7,2.2c-1.6,0-3-0.5-4-1.4C87.7-52,87.2-53.2,87-54.7z"/>
</g>
<g transform="translate(266.98,301.35)">
	<path class="st11" d="M98.4-63.5l-2.2,0.2c-0.2-0.9-0.5-1.5-0.8-1.9c-0.6-0.6-1.3-0.9-2.2-0.9c-0.7,0-1.3,0.2-1.8,0.6
		c-0.7,0.5-1.2,1.2-1.6,2.2c-0.4,1-0.6,2.3-0.6,4.1c0.5-0.8,1.2-1.4,1.9-1.8c0.8-0.4,1.6-0.6,2.4-0.6c1.5,0,2.7,0.5,3.7,1.6
		c1,1.1,1.5,2.5,1.5,4.2c0,1.1-0.2,2.2-0.7,3.1c-0.5,1-1.1,1.7-2,2.2c-0.8,0.5-1.8,0.8-2.9,0.8c-1.8,0-3.3-0.7-4.5-2
		c-1.2-1.3-1.7-3.6-1.7-6.7c0-3.5,0.6-6,1.9-7.5c1.1-1.4,2.6-2,4.5-2c1.4,0,2.6,0.4,3.5,1.2C97.7-66,98.2-64.9,98.4-63.5z
		 M89.4-55.8c0,0.8,0.2,1.5,0.5,2.2c0.3,0.7,0.8,1.2,1.4,1.6c0.6,0.4,1.2,0.5,1.8,0.5c0.9,0,1.7-0.4,2.4-1.1c0.7-0.8,1-1.8,1-3
		c0-1.2-0.3-2.2-1-2.9c-0.7-0.7-1.5-1.1-2.5-1.1c-1,0-1.8,0.4-2.5,1.1C89.8-57.9,89.4-57,89.4-55.8z"/>
</g>
<g>
	<line class="st14" x1="180" y1="618" x2="738" y2="60"/>
</g>
<g transform="translate(571.8668,364.455)">
	<path d="M88.4-49v-21.5h2.8v8.8h11.2v-8.8h2.8V-49h-2.8v-10.1H91.2V-49H88.4z M110-49v-21.5h8.1c1.4,0,2.5,0.1,3.3,0.2
		c1.1,0.2,1.9,0.5,2.6,1c0.7,0.5,1.3,1.2,1.7,2.1c0.4,0.9,0.6,1.9,0.6,2.9c0,1.8-0.6,3.4-1.7,4.6c-1.2,1.3-3.3,1.9-6.3,1.9h-5.5v8.7
		H110z M112.8-60.3h5.5c1.8,0,3.2-0.3,3.9-1c0.8-0.7,1.2-1.6,1.2-2.9c0-0.9-0.2-1.7-0.7-2.3c-0.5-0.6-1.1-1.1-1.8-1.3
		c-0.5-0.1-1.4-0.2-2.6-0.2h-5.5V-60.3z"/>
</g>
<line class="st3" x1="604" y1="304.5" x2="654.1" y2="304.5"/>
<path class="st10" d="M629,302c1.4,0,2.5,1.1,2.5,2.5l0,0c0,1.4-1.1,2.5-2.5,2.5s-2.5-1.1-2.5-2.5S627.7,302,629,302z M629,297
	c-4.1,0-7.5,3.4-7.5,7.5s3.4,7.5,7.5,7.5s7.5-3.4,7.5-7.5l0,0C636.5,300.3,633.2,297,629,297z"/>
<g transform="translate(571.8668,399)">
	<path d="M85.9-49l8.3-21.5h3.1L106-49h-3.2l-2.5-6.5h-9L88.9-49H85.9z M92.1-57.8h7.3l-2.3-6c-0.7-1.8-1.2-3.3-1.5-4.5
		c-0.3,1.4-0.7,2.7-1.2,4.1L92.1-57.8z M108.3-49v-21.5h8.1c1.4,0,2.5,0.1,3.3,0.2c1.1,0.2,1.9,0.5,2.6,1s1.3,1.2,1.7,2.1
		c0.4,0.9,0.6,1.9,0.6,2.9c0,1.8-0.6,3.4-1.7,4.6c-1.2,1.3-3.3,1.9-6.3,1.9h-5.5v8.7H108.3z M111.1-60.3h5.5c1.8,0,3.2-0.3,3.9-1
		c0.8-0.7,1.2-1.6,1.2-2.9c0-0.9-0.2-1.7-0.7-2.3c-0.5-0.6-1.1-1.1-1.8-1.3c-0.5-0.1-1.4-0.2-2.6-0.2h-5.5V-60.3z"/>
</g>
<line class="st0" x1="604" y1="339" x2="654.1" y2="339"/>
<path class="st11" d="M629,336.5c1.4,0,2.5,1.1,2.5,2.5l0,0c0,1.4-1.1,2.5-2.5,2.5s-2.5-1.1-2.5-2.5S627.7,336.5,629,336.5z
	 M629,331.5c-4.1,0-7.5,3.4-7.5,7.5s3.4,7.5,7.5,7.5s7.5-3.4,7.5-7.5l0,0C636.5,334.9,633.2,331.5,629,331.5z"/>
<g transform="translate(571.8668,433.545)">
	<path d="M88.2-49v-21.5h8c1.6,0,3,0.2,4,0.6c1,0.4,1.8,1.1,2.3,2c0.6,0.9,0.8,1.8,0.8,2.8c0,0.9-0.3,1.8-0.8,2.6
		c-0.5,0.8-1.3,1.5-2.3,2c1.3,0.4,2.3,1,3,1.9c0.7,0.9,1,2,1,3.3c0,1-0.2,1.9-0.6,2.8c-0.4,0.9-0.9,1.5-1.6,2
		c-0.6,0.5-1.4,0.8-2.4,1.1c-0.9,0.2-2.1,0.4-3.5,0.4H88.2z M91-61.5h4.6c1.3,0,2.2-0.1,2.7-0.3c0.7-0.2,1.3-0.6,1.6-1.1
		c0.4-0.5,0.5-1.1,0.5-1.9c0-0.7-0.2-1.3-0.5-1.9c-0.3-0.5-0.8-0.9-1.5-1.1c-0.6-0.2-1.7-0.3-3.3-0.3H91V-61.5z M91-51.5h5.3
		c0.9,0,1.6,0,1.9-0.1c0.7-0.1,1.2-0.3,1.6-0.6c0.4-0.3,0.8-0.7,1.1-1.2c0.3-0.5,0.4-1.1,0.4-1.8c0-0.8-0.2-1.5-0.6-2.1
		s-1-1-1.7-1.3c-0.7-0.2-1.8-0.4-3.1-0.4h-5V-51.5z M107-56.8c0-2.9,0.8-5,2.4-6.4c1.3-1.1,3-1.7,4.9-1.7c2.1,0,3.9,0.7,5.2,2.1
		c1.4,1.4,2,3.3,2,5.8c0,2-0.3,3.6-0.9,4.7c-0.6,1.2-1.5,2-2.6,2.7c-1.1,0.6-2.4,1-3.8,1c-2.2,0-3.9-0.7-5.3-2.1S107-54.2,107-56.8z
		 M109.7-56.8c0,2,0.4,3.5,1.3,4.5c0.9,1,2,1.5,3.3,1.5c1.3,0,2.4-0.5,3.3-1.5c0.9-1,1.3-2.5,1.3-4.5c0-1.9-0.4-3.4-1.3-4.4
		c-0.9-1-2-1.5-3.3-1.5c-1.3,0-2.4,0.5-3.3,1.5C110.1-60.3,109.7-58.8,109.7-56.8z M130.4-51.4l0.4,2.3c-0.7,0.2-1.4,0.2-2,0.2
		c-1,0-1.7-0.2-2.2-0.5c-0.5-0.3-0.9-0.7-1.1-1.2c-0.2-0.5-0.3-1.5-0.3-3.1v-8.9h-1.9v-2.1h1.9v-3.8l2.6-1.6v5.4h2.7v2.1h-2.7v9.1
		c0,0.8,0,1.2,0.1,1.4c0.1,0.2,0.2,0.4,0.5,0.5c0.2,0.1,0.5,0.2,0.9,0.2C129.5-51.3,129.9-51.3,130.4-51.4z M133-49v-21.5h2.6v7.7
		c1.2-1.4,2.8-2.1,4.7-2.1c1.2,0,2.2,0.2,3,0.7c0.8,0.5,1.5,1.1,1.8,1.9c0.4,0.8,0.6,2,0.6,3.5v9.9H143v-9.9c0-1.3-0.3-2.3-0.9-2.9
		c-0.6-0.6-1.4-0.9-2.4-0.9c-0.8,0-1.5,0.2-2.2,0.6c-0.7,0.4-1.2,1-1.5,1.6c-0.3,0.7-0.4,1.6-0.4,2.9v8.5H133z"/>
</g>
<line class="st12" x1="604" y1="373.5" x2="654.1" y2="373.5"/>
<path class="st13" d="M629,371c1.4,0,2.5,1.1,2.5,2.5l0,0c0,1.4-1.1,2.5-2.5,2.5s-2.5-1.1-2.5-2.5S627.7,371,629,371z M629,366
	c-4.1,0-7.5,3.4-7.5,7.5s3.4,7.5,7.5,7.5s7.5-3.4,7.5-7.5l0,0C636.5,369.4,633.2,366,629,366z"/>
<g>
	<line class="st8" x1="180" y1="1008" x2="738" y2="1008"/>
	<line class="st8" x1="298" y1="1008" x2="298" y2="1002.4"/>
	<line class="st8" x1="405.3" y1="1008" x2="405.3" y2="1002.4"/>
	<line class="st8" x1="512.6" y1="1008" x2="512.6" y2="1002.4"/>
	<line class="st8" x1="619.9" y1="1008" x2="619.9" y2="1002.4"/>
</g>
<g transform="translate(212.0385,1076)">
	<path class="st9" d="M90.9-50.4l-2,0.2c-0.2-0.8-0.4-1.4-0.8-1.7c-0.6-0.6-1.2-0.9-2-0.9c-0.6,0-1.2,0.2-1.7,0.5
		c-0.6,0.5-1.1,1.1-1.5,2c-0.4,0.9-0.6,2.2-0.6,3.8c0.5-0.8,1.1-1.3,1.8-1.7c0.7-0.4,1.4-0.5,2.2-0.5c1.3,0,2.5,0.5,3.4,1.5
		c0.9,1,1.4,2.3,1.4,3.9c0,1-0.2,2-0.7,2.9c-0.4,0.9-1.1,1.6-1.8,2c-0.8,0.5-1.7,0.7-2.7,0.7c-1.7,0-3.1-0.6-4.1-1.9
		c-1.1-1.2-1.6-3.3-1.6-6.1c0-3.2,0.6-5.5,1.8-6.9c1-1.3,2.4-1.9,4.1-1.9c1.3,0,2.4,0.4,3.2,1.1C90.3-52.7,90.8-51.7,90.9-50.4z
		 M82.7-43.3c0,0.7,0.1,1.4,0.4,2c0.3,0.6,0.7,1.1,1.2,1.5c0.5,0.3,1.1,0.5,1.7,0.5c0.9,0,1.6-0.3,2.2-1c0.6-0.7,0.9-1.6,0.9-2.8
		c0-1.1-0.3-2-0.9-2.7c-0.6-0.7-1.4-1-2.3-1c-0.9,0-1.7,0.3-2.3,1C83-45.3,82.7-44.4,82.7-43.3z"/>
</g>
<g transform="translate(319.3462,1076)">
	<path class="st9" d="M80.4-42.3l2.1-0.2c0.2,1,0.5,1.8,1.1,2.3c0.6,0.5,1.3,0.8,2.1,0.8c1,0,1.8-0.4,2.5-1.1c0.7-0.7,1-1.7,1-2.9
		c0-1.1-0.3-2.1-1-2.7s-1.5-1-2.5-1c-0.6,0-1.2,0.1-1.8,0.4c-0.5,0.3-0.9,0.7-1.2,1.2l-1.9-0.3l1.6-8.5h8.2v1.9H84l-0.9,4.4
		c1-0.7,2-1,3.1-1c1.4,0,2.7,0.5,3.6,1.5s1.5,2.3,1.5,3.8c0,1.5-0.4,2.8-1.3,3.9c-1.1,1.3-2.5,2-4.3,2c-1.5,0-2.7-0.4-3.7-1.3
		C81.1-39.8,80.6-40.9,80.4-42.3z"/>
</g>
<g transform="translate(426.6538,1076)">
	<path class="st9" d="M86.9-38v-3.9h-7.1v-1.9l7.5-10.7h1.6v10.7h2.2v1.9h-2.2v3.9H86.9z M86.9-43.8v-7.4l-5.2,7.4H86.9z"/>
</g>
<g transform="translate(533.9615,1076)">
	<path class="st9" d="M80.4-42.3l2-0.3c0.2,1.1,0.6,2,1.2,2.5c0.6,0.5,1.2,0.8,2,0.8c1,0,1.8-0.3,2.4-1c0.7-0.7,1-1.5,1-2.4
		c0-0.9-0.3-1.7-0.9-2.3c-0.6-0.6-1.4-0.9-2.3-0.9c-0.4,0-0.8,0.1-1.4,0.2l0.2-1.8c0.1,0,0.2,0,0.3,0c0.9,0,1.6-0.2,2.3-0.7
		c0.7-0.4,1-1.1,1-2.1c0-0.7-0.3-1.4-0.8-1.8c-0.5-0.5-1.1-0.7-1.9-0.7c-0.8,0-1.4,0.2-2,0.7c-0.5,0.5-0.9,1.2-1,2.2l-2-0.4
		c0.2-1.4,0.8-2.4,1.7-3.1c0.9-0.7,2-1.1,3.3-1.1c0.9,0,1.7,0.2,2.5,0.6c0.8,0.4,1.3,0.9,1.7,1.6c0.4,0.7,0.6,1.4,0.6,2.1
		c0,0.7-0.2,1.4-0.6,1.9c-0.4,0.6-0.9,1-1.7,1.4c1,0.2,1.7,0.7,2.3,1.4c0.5,0.7,0.8,1.6,0.8,2.7c0,1.4-0.5,2.7-1.6,3.7
		s-2.4,1.5-4,1.5c-1.4,0-2.6-0.4-3.6-1.3C81.1-39.9,80.6-41,80.4-42.3z"/>
</g>
<g transform="translate(373.0002,1104.6666)">
	<path class="st9" d="M35.2-34.4v-16.4h-6.1V-53h14.8v2.2h-6.2v16.4H35.2z M45.9-34.4V-53h2.3v6.7c1.1-1.2,2.4-1.8,4-1.8
		c1,0,1.9,0.2,2.6,0.6c0.7,0.4,1.3,0.9,1.6,1.6c0.3,0.7,0.5,1.7,0.5,3v8.5h-2.3V-43c0-1.1-0.2-2-0.7-2.5c-0.5-0.5-1.2-0.8-2.1-0.8
		c-0.7,0-1.3,0.2-1.9,0.5c-0.6,0.3-1,0.8-1.3,1.4c-0.3,0.6-0.4,1.4-0.4,2.5v7.4H45.9z M60.1-34.4v-13.5h2.1v2c0.5-1,1-1.6,1.4-1.9
		c0.4-0.3,0.9-0.5,1.5-0.5c0.8,0,1.6,0.2,2.3,0.7l-0.8,2.1c-0.6-0.3-1.1-0.5-1.7-0.5c-0.5,0-0.9,0.1-1.3,0.4
		c-0.4,0.3-0.7,0.7-0.8,1.3c-0.3,0.8-0.4,1.7-0.4,2.7v7.1H60.1z M77.9-38.8l2.4,0.3c-0.4,1.4-1.1,2.4-2.1,3.2
		c-1,0.8-2.3,1.1-3.9,1.1c-2,0-3.5-0.6-4.7-1.8c-1.2-1.2-1.7-2.9-1.7-5.1c0-2.3,0.6-4,1.8-5.3s2.7-1.9,4.5-1.9
		c1.8,0,3.3,0.6,4.4,1.8c1.1,1.2,1.7,3,1.7,5.2c0,0.1,0,0.3,0,0.6H70.3c0.1,1.5,0.5,2.6,1.3,3.4c0.8,0.8,1.7,1.2,2.8,1.2
		c0.8,0,1.5-0.2,2.1-0.7C77.1-37.1,77.6-37.8,77.9-38.8z M70.4-42.4h7.5c-0.1-1.1-0.4-2-0.9-2.6c-0.7-0.9-1.7-1.3-2.8-1.3
		c-1.1,0-1.9,0.4-2.6,1.1C70.9-44.6,70.5-43.6,70.4-42.4z M82-38.4l2.3-0.3c0.1,0.9,0.5,1.6,1.1,2.1c0.6,0.5,1.4,0.7,2.4,0.7
		c1.1,0,1.8-0.2,2.3-0.6c0.5-0.4,0.8-0.9,0.8-1.5c0-0.5-0.2-0.9-0.7-1.2c-0.3-0.2-1.1-0.5-2.3-0.8c-1.7-0.4-2.8-0.8-3.5-1.1
		c-0.6-0.3-1.1-0.7-1.5-1.3c-0.3-0.5-0.5-1.1-0.5-1.8c0-0.6,0.1-1.1,0.4-1.7c0.3-0.5,0.6-0.9,1.1-1.3c0.4-0.3,0.8-0.5,1.5-0.7
		c0.6-0.2,1.3-0.3,2-0.3c1.1,0,2,0.2,2.8,0.5c0.8,0.3,1.4,0.7,1.8,1.2c0.4,0.5,0.6,1.2,0.8,2.1l-2.2,0.3c-0.1-0.7-0.4-1.2-0.9-1.6
		c-0.5-0.4-1.2-0.6-2.1-0.6c-1.1,0-1.8,0.2-2.3,0.5c-0.4,0.3-0.7,0.7-0.7,1.2c0,0.3,0.1,0.6,0.3,0.8c0.2,0.3,0.5,0.5,0.9,0.6
		c0.2,0.1,0.9,0.3,2,0.6c1.6,0.4,2.7,0.8,3.4,1.1c0.6,0.3,1.1,0.7,1.5,1.2c0.4,0.5,0.5,1.2,0.5,1.9c0,0.8-0.2,1.5-0.7,2.2
		c-0.4,0.7-1.1,1.2-1.9,1.6s-1.8,0.6-2.9,0.6c-1.8,0-3.1-0.4-4-1.1C82.9-35.9,82.3-37,82-38.4z M95.8-34.4V-53h2.3v6.7
		c1.1-1.2,2.4-1.8,4-1.8c1,0,1.9,0.2,2.6,0.6c0.7,0.4,1.3,0.9,1.6,1.6c0.3,0.7,0.5,1.7,0.5,3v8.5h-2.3V-43c0-1.1-0.2-2-0.7-2.5
		c-0.5-0.5-1.2-0.8-2.1-0.8c-0.7,0-1.3,0.2-1.9,0.5c-0.6,0.3-1,0.8-1.3,1.4c-0.3,0.6-0.4,1.4-0.4,2.5v7.4H95.8z M109.2-41.2
		c0-2.5,0.7-4.4,2.1-5.6c1.2-1,2.6-1.5,4.2-1.5c1.9,0,3.4,0.6,4.5,1.8c1.2,1.2,1.8,2.9,1.8,5c0,1.7-0.3,3.1-0.8,4.1
		c-0.5,1-1.3,1.8-2.3,2.3c-1,0.6-2.1,0.8-3.3,0.8c-1.9,0-3.4-0.6-4.6-1.8C109.8-37.1,109.2-38.9,109.2-41.2z M111.5-41.2
		c0,1.7,0.4,3,1.1,3.9c0.8,0.9,1.7,1.3,2.8,1.3c1.1,0,2.1-0.4,2.8-1.3c0.8-0.9,1.1-2.2,1.1-3.9c0-1.7-0.4-2.9-1.1-3.8
		c-0.8-0.9-1.7-1.3-2.8-1.3c-1.1,0-2.1,0.4-2.8,1.3C111.9-44.2,111.5-42.9,111.5-41.2z M124.2-34.4V-53h2.3v18.6H124.2z M138.8-34.4
		v-1.7c-0.9,1.3-2.1,2-3.8,2c-1.1,0-2.1-0.3-3-0.9c-0.9-0.6-1.6-1.4-2.1-2.5c-0.5-1.1-0.7-2.3-0.7-3.7c0-1.3,0.2-2.6,0.7-3.7
		c0.4-1.1,1.1-1.9,2-2.5c0.9-0.6,1.9-0.9,3-0.9c0.8,0,1.5,0.2,2.2,0.5c0.6,0.3,1.2,0.8,1.5,1.3V-53h2.3v18.6H138.8z M131.5-41.2
		c0,1.7,0.4,3,1.1,3.9c0.7,0.9,1.6,1.3,2.6,1.3c1,0,1.8-0.4,2.5-1.2c0.7-0.8,1-2.1,1-3.7c0-1.9-0.4-3.2-1.1-4.1
		c-0.7-0.9-1.6-1.3-2.6-1.3c-1,0-1.9,0.4-2.6,1.2C131.9-44.2,131.5-42.9,131.5-41.2z"/>
</g>
<g>
	<line class="st8" x1="180" y1="1008" x2="180" y2="749"/>
	<line class="st8" x1="180" y1="1008" x2="185.6" y2="1008"/>
	<line class="st8" x1="180" y1="956.2" x2="185.6" y2="956.2"/>
	<line class="st8" x1="180" y1="904.4" x2="185.6" y2="904.4"/>
	<line class="st8" x1="180" y1="852.6" x2="185.6" y2="852.6"/>
	<line class="st8" x1="180" y1="800.8" x2="185.6" y2="800.8"/>
	<line class="st8" x1="180" y1="749" x2="185.6" y2="749"/>
</g>
<g transform="translate(86,1068)">
	<path class="st9" d="M73.9-59.6c0-1.9,0.2-3.5,0.6-4.7c0.4-1.2,1-2.1,1.8-2.7c0.8-0.6,1.8-1,3-1c0.9,0,1.6,0.2,2.3,0.5
		c0.7,0.4,1.2,0.9,1.7,1.5c0.4,0.7,0.8,1.5,1,2.5c0.2,1,0.4,2.3,0.4,3.9c0,1.9-0.2,3.5-0.6,4.7c-0.4,1.2-1,2.1-1.8,2.8s-1.8,1-3,1
		c-1.6,0-2.8-0.6-3.8-1.7C74.5-54.3,73.9-56.5,73.9-59.6z M76-59.6c0,2.7,0.3,4.5,1,5.4c0.6,0.9,1.4,1.3,2.3,1.3
		c0.9,0,1.7-0.5,2.3-1.4c0.6-0.9,0.9-2.7,0.9-5.4c0-2.7-0.3-4.5-0.9-5.4c-0.6-0.9-1.4-1.3-2.4-1.3c-0.9,0-1.7,0.4-2.2,1.2
		C76.4-64.2,76-62.3,76-59.6z"/>
</g>
<g transform="translate(86,1016.2)">
	<path class="st9" d="M53.9-59.6c0-1.9,0.2-3.5,0.6-4.7c0.4-1.2,1-2.1,1.8-2.7c0.8-0.6,1.8-1,3-1c0.9,0,1.6,0.2,2.3,0.5
		c0.7,0.4,1.2,0.9,1.7,1.5c0.4,0.7,0.8,1.5,1,2.5c0.2,1,0.4,2.3,0.4,3.9c0,1.9-0.2,3.5-0.6,4.7c-0.4,1.2-1,2.1-1.8,2.8s-1.8,1-3,1
		c-1.6,0-2.8-0.6-3.8-1.7C54.5-54.3,53.9-56.5,53.9-59.6z M56-59.6c0,2.7,0.3,4.5,1,5.4c0.6,0.9,1.4,1.3,2.3,1.3
		c0.9,0,1.7-0.5,2.3-1.4c0.6-0.9,0.9-2.7,0.9-5.4c0-2.7-0.3-4.5-0.9-5.4c-0.6-0.9-1.4-1.3-2.4-1.3c-0.9,0-1.7,0.4-2.2,1.2
		C56.4-64.2,56-62.3,56-59.6z M68-51.5v-2.3h2.3v2.3H68z M73.4-55.8l2.1-0.2c0.2,1,0.5,1.8,1.1,2.3c0.6,0.5,1.3,0.8,2.1,0.8
		c1,0,1.8-0.4,2.5-1.1c0.7-0.7,1-1.7,1-2.9c0-1.1-0.3-2.1-1-2.7c-0.6-0.7-1.5-1-2.5-1c-0.6,0-1.2,0.1-1.8,0.4
		c-0.5,0.3-0.9,0.7-1.2,1.2l-1.9-0.3l1.6-8.5h8.2v1.9h-6.6l-0.9,4.4c1-0.7,2-1,3.1-1c1.4,0,2.7,0.5,3.6,1.5s1.5,2.3,1.5,3.8
		c0,1.5-0.4,2.8-1.3,3.9c-1.1,1.3-2.5,2-4.3,2c-1.5,0-2.7-0.4-3.7-1.3C74-53.3,73.5-54.4,73.4-55.8z"/>
</g>
<g transform="translate(86,964.4)">
	<path class="st9" d="M81.5-51.5h-2v-12.9c-0.5,0.5-1.1,0.9-1.9,1.4c-0.8,0.5-1.5,0.8-2.1,1.1v-2c1.1-0.5,2.1-1.2,3-1.9
		c0.8-0.8,1.4-1.5,1.8-2.2h1.3V-51.5z"/>
</g>
<g transform="translate(86,912.6)">
	<path class="st9" d="M61.5-51.5h-2v-12.9c-0.5,0.5-1.1,0.9-1.9,1.4c-0.8,0.5-1.5,0.8-2.1,1.1v-2c1.1-0.5,2.1-1.2,3-1.9
		c0.8-0.8,1.4-1.5,1.8-2.2h1.3V-51.5z M68-51.5v-2.3h2.3v2.3H68z M73.4-55.8l2.1-0.2c0.2,1,0.5,1.8,1.1,2.3c0.6,0.5,1.3,0.8,2.1,0.8
		c1,0,1.8-0.4,2.5-1.1c0.7-0.7,1-1.7,1-2.9c0-1.1-0.3-2.1-1-2.7c-0.6-0.7-1.5-1-2.5-1c-0.6,0-1.2,0.1-1.8,0.4
		c-0.5,0.3-0.9,0.7-1.2,1.2l-1.9-0.3l1.6-8.5h8.2v1.9h-6.6l-0.9,4.4c1-0.7,2-1,3.1-1c1.4,0,2.7,0.5,3.6,1.5s1.5,2.3,1.5,3.8
		c0,1.5-0.4,2.8-1.3,3.9c-1.1,1.3-2.5,2-4.3,2c-1.5,0-2.7-0.4-3.7-1.3C74-53.3,73.5-54.4,73.4-55.8z"/>
</g>
<g transform="translate(86,860.8)">
	<path class="st9" d="M84.6-53.4v1.9H73.7c0-0.5,0.1-1,0.2-1.4c0.3-0.7,0.7-1.5,1.3-2.2c0.6-0.7,1.5-1.6,2.6-2.5
		c1.8-1.5,3-2.6,3.6-3.5c0.6-0.9,0.9-1.7,0.9-2.4c0-0.8-0.3-1.5-0.9-2c-0.6-0.6-1.3-0.8-2.3-0.8c-1,0-1.7,0.3-2.3,0.9
		c-0.6,0.6-0.9,1.4-0.9,2.4l-2.1-0.2c0.1-1.6,0.7-2.7,1.6-3.5s2.2-1.2,3.7-1.2c1.6,0,2.8,0.4,3.8,1.3c0.9,0.9,1.4,2,1.4,3.3
		c0,0.7-0.1,1.3-0.4,1.9c-0.3,0.6-0.7,1.3-1.3,2s-1.7,1.7-3.1,2.9c-1.2,1-2,1.7-2.3,2.1c-0.3,0.4-0.6,0.7-0.9,1.1H84.6z"/>
</g>
<g transform="translate(86,809)">
	<path class="st9" d="M64.6-53.4v1.9H53.7c0-0.5,0.1-1,0.2-1.4c0.3-0.7,0.7-1.5,1.3-2.2c0.6-0.7,1.5-1.6,2.6-2.5
		c1.8-1.5,3-2.6,3.6-3.5c0.6-0.9,0.9-1.7,0.9-2.4c0-0.8-0.3-1.5-0.9-2c-0.6-0.6-1.3-0.8-2.3-0.8c-1,0-1.7,0.3-2.3,0.9
		c-0.6,0.6-0.9,1.4-0.9,2.4l-2.1-0.2c0.1-1.6,0.7-2.7,1.6-3.5s2.2-1.2,3.7-1.2c1.6,0,2.8,0.4,3.8,1.3c0.9,0.9,1.4,2,1.4,3.3
		c0,0.7-0.1,1.3-0.4,1.9c-0.3,0.6-0.7,1.3-1.3,2s-1.7,1.7-3.1,2.9c-1.2,1-2,1.7-2.3,2.1c-0.3,0.4-0.6,0.7-0.9,1.1H64.6z M68-51.5
		v-2.3h2.3v2.3H68z M73.4-55.8l2.1-0.2c0.2,1,0.5,1.8,1.1,2.3c0.6,0.5,1.3,0.8,2.1,0.8c1,0,1.8-0.4,2.5-1.1c0.7-0.7,1-1.7,1-2.9
		c0-1.1-0.3-2.1-1-2.7c-0.6-0.7-1.5-1-2.5-1c-0.6,0-1.2,0.1-1.8,0.4c-0.5,0.3-0.9,0.7-1.2,1.2l-1.9-0.3l1.6-8.5h8.2v1.9h-6.6
		l-0.9,4.4c1-0.7,2-1,3.1-1c1.4,0,2.7,0.5,3.6,1.5s1.5,2.3,1.5,3.8c0,1.5-0.4,2.8-1.3,3.9c-1.1,1.3-2.5,2-4.3,2
		c-1.5,0-2.7-0.4-3.7-1.3C74-53.3,73.5-54.4,73.4-55.8z"/>
</g>
<g transform="translate(48,938.4999) rotate(-90)">
	<path class="st9" d="M-96.8,74l2.3-0.2c0.1,0.9,0.4,1.7,0.8,2.3c0.4,0.6,1,1.1,1.9,1.4c0.8,0.4,1.8,0.6,2.9,0.6
		c0.9,0,1.8-0.1,2.5-0.4c0.7-0.3,1.3-0.7,1.6-1.1c0.3-0.5,0.5-1,0.5-1.6c0-0.6-0.2-1.1-0.5-1.5c-0.3-0.4-0.9-0.8-1.7-1.1
		c-0.5-0.2-1.6-0.5-3.3-0.9c-1.7-0.4-2.9-0.8-3.6-1.2c-0.9-0.5-1.5-1-2-1.7c-0.4-0.7-0.7-1.5-0.7-2.3c0-0.9,0.3-1.8,0.8-2.6
		c0.5-0.8,1.3-1.4,2.3-1.9c1-0.4,2.2-0.6,3.4-0.6c1.4,0,2.6,0.2,3.6,0.7c1.1,0.4,1.9,1.1,2.4,2c0.6,0.9,0.9,1.8,0.9,2.9l-2.4,0.2
		c-0.1-1.2-0.6-2.1-1.3-2.7c-0.7-0.6-1.8-0.9-3.2-0.9c-1.5,0-2.6,0.3-3.3,0.8c-0.7,0.5-1,1.2-1,2c0,0.7,0.2,1.2,0.7,1.7
		c0.5,0.4,1.7,0.9,3.7,1.3s3.4,0.9,4.1,1.2c1.1,0.5,1.9,1.1,2.4,1.9c0.5,0.8,0.8,1.6,0.8,2.6c0,1-0.3,1.9-0.9,2.8
		c-0.6,0.9-1.4,1.6-2.4,2c-1.1,0.5-2.3,0.7-3.6,0.7c-1.7,0-3.1-0.2-4.2-0.7c-1.1-0.5-2-1.2-2.7-2.2C-96.5,76.4-96.8,75.2-96.8,74z
		 M-69.9,75.6l2.4,0.3c-0.4,1.4-1.1,2.4-2.1,3.2c-1,0.8-2.3,1.1-3.9,1.1c-2,0-3.5-0.6-4.7-1.8c-1.2-1.2-1.7-2.9-1.7-5.1
		c0-2.3,0.6-4,1.8-5.3c1.2-1.3,2.7-1.9,4.5-1.9c1.8,0,3.3,0.6,4.4,1.8c1.1,1.2,1.7,3,1.7,5.2c0,0.1,0,0.3,0,0.6h-10.1
		c0.1,1.5,0.5,2.6,1.3,3.4c0.8,0.8,1.7,1.2,2.8,1.2c0.8,0,1.5-0.2,2.1-0.7C-70.8,77.3-70.3,76.6-69.9,75.6z M-77.4,71.9h7.5
		c-0.1-1.1-0.4-2-0.9-2.6c-0.7-0.9-1.7-1.3-2.8-1.3c-1.1,0-1.9,0.4-2.6,1.1C-77,69.8-77.4,70.8-77.4,71.9z M-64.9,80V66.5h2v1.9
		c1-1.5,2.4-2.2,4.3-2.2c0.8,0,1.6,0.1,2.2,0.4c0.7,0.3,1.2,0.7,1.5,1.1c0.3,0.5,0.6,1,0.7,1.7c0.1,0.4,0.1,1.2,0.1,2.2V80h-2.3
		v-8.2c0-0.9-0.1-1.6-0.3-2.1s-0.5-0.8-0.9-1.1c-0.5-0.3-1-0.4-1.6-0.4c-1,0-1.8,0.3-2.5,0.9c-0.7,0.6-1.1,1.8-1.1,3.5V80H-64.9z
		 M-51.6,75.9l2.3-0.3c0.1,0.9,0.5,1.6,1.1,2.1c0.6,0.5,1.4,0.7,2.4,0.7c1.1,0,1.8-0.2,2.3-0.6c0.5-0.4,0.8-0.9,0.8-1.5
		c0-0.5-0.2-0.9-0.7-1.2c-0.3-0.2-1.1-0.5-2.3-0.8c-1.7-0.4-2.8-0.8-3.5-1.1c-0.6-0.3-1.1-0.7-1.5-1.3c-0.3-0.5-0.5-1.1-0.5-1.8
		c0-0.6,0.1-1.1,0.4-1.7c0.3-0.5,0.6-0.9,1.1-1.3c0.4-0.3,0.8-0.5,1.5-0.7c0.6-0.2,1.3-0.3,2-0.3c1.1,0,2,0.2,2.8,0.5
		c0.8,0.3,1.4,0.7,1.8,1.2c0.4,0.5,0.6,1.2,0.8,2.1l-2.2,0.3c-0.1-0.7-0.4-1.2-0.9-1.6c-0.5-0.4-1.2-0.6-2.1-0.6
		c-1.1,0-1.8,0.2-2.3,0.5s-0.7,0.7-0.7,1.2c0,0.3,0.1,0.6,0.3,0.8c0.2,0.3,0.5,0.5,0.9,0.6c0.2,0.1,0.9,0.3,2,0.6
		c1.6,0.4,2.7,0.8,3.4,1.1c0.6,0.3,1.1,0.7,1.5,1.2c0.4,0.5,0.5,1.2,0.5,1.9c0,0.8-0.2,1.5-0.7,2.2c-0.4,0.7-1.1,1.2-1.9,1.6
		c-0.8,0.4-1.8,0.6-2.9,0.6c-1.7,0-3.1-0.4-4-1.1C-50.7,78.5-51.3,77.4-51.6,75.9z M-37.8,64v-2.6h2.3V64H-37.8z M-37.8,80V66.5h2.3
		V80H-37.8z M-27.1,77.9l0.3,2c-0.6,0.1-1.2,0.2-1.7,0.2c-0.8,0-1.5-0.1-1.9-0.4c-0.5-0.3-0.8-0.6-1-1c-0.2-0.4-0.3-1.3-0.3-2.7
		v-7.8h-1.7v-1.8h1.7v-3.3l2.3-1.4v4.7h2.3v1.8h-2.3v7.9c0,0.7,0,1.1,0.1,1.3c0.1,0.2,0.2,0.3,0.4,0.4c0.2,0.1,0.4,0.2,0.8,0.2
		C-27.9,78-27.5,78-27.1,77.9z M-25,64v-2.6h2.3V64H-25z M-25,80V66.5h2.3V80H-25z M-15.5,80l-5.1-13.5h2.4l2.9,8.1
		c0.3,0.9,0.6,1.8,0.9,2.7c0.2-0.7,0.5-1.6,0.8-2.6l3-8.2h2.4L-13.4,80H-15.5z M-6.4,64v-2.6h2.3V64H-6.4z M-6.4,80V66.5h2.3V80
		H-6.4z M4.2,77.9l0.3,2c-0.6,0.1-1.2,0.2-1.7,0.2c-0.8,0-1.5-0.1-1.9-0.4c-0.5-0.3-0.8-0.6-1-1c-0.2-0.4-0.3-1.3-0.3-2.7v-7.8H-2
		v-1.8h1.7v-3.3l2.3-1.4v4.7h2.3v1.8H1.9v7.9c0,0.7,0,1.1,0.1,1.3c0.1,0.2,0.2,0.3,0.4,0.4C2.6,78,2.9,78,3.2,78
		C3.5,78,3.8,78,4.2,77.9z M6.3,85.2L6,83c0.5,0.1,0.9,0.2,1.3,0.2c0.5,0,0.9-0.1,1.2-0.3s0.6-0.4,0.8-0.7c0.1-0.2,0.4-0.8,0.7-1.7
		c0-0.1,0.1-0.3,0.2-0.5L5.1,66.5h2.5l2.8,7.8c0.4,1,0.7,2,1,3.1c0.3-1.1,0.6-2.1,0.9-3.1l2.9-7.9h2.3l-5.1,13.7
		c-0.6,1.5-1,2.5-1.3,3c-0.4,0.8-0.9,1.3-1.4,1.7c-0.5,0.3-1.2,0.5-1.9,0.5C7.3,85.4,6.8,85.3,6.3,85.2z M31.3,77.9l0.3,2
		c-0.6,0.1-1.2,0.2-1.7,0.2c-0.8,0-1.5-0.1-1.9-0.4c-0.5-0.3-0.8-0.6-1-1c-0.2-0.4-0.3-1.3-0.3-2.7v-7.8h-1.7v-1.8h1.7v-3.3l2.3-1.4
		v4.7h2.3v1.8H29v7.9c0,0.7,0,1.1,0.1,1.3c0.1,0.2,0.2,0.3,0.4,0.4C29.7,78,30,78,30.3,78C30.6,78,30.9,78,31.3,77.9z M32.6,73.2
		c0-2.5,0.7-4.4,2.1-5.6c1.2-1,2.6-1.5,4.2-1.5c1.9,0,3.4,0.6,4.5,1.8c1.2,1.2,1.8,2.9,1.8,5c0,1.7-0.3,3.1-0.8,4.1
		c-0.5,1-1.3,1.8-2.3,2.3c-1,0.6-2.1,0.8-3.3,0.8c-1.9,0-3.4-0.6-4.6-1.8C33.2,77.3,32.6,75.5,32.6,73.2z M35,73.2
		c0,1.7,0.4,3,1.1,3.9c0.8,0.9,1.7,1.3,2.8,1.3c1.1,0,2.1-0.4,2.8-1.3s1.1-2.2,1.1-3.9c0-1.7-0.4-2.9-1.1-3.8
		c-0.8-0.9-1.7-1.3-2.8-1.3c-1.1,0-2.1,0.4-2.8,1.3C35.3,70.2,35,71.5,35,73.2z M64.1,75.6l2.4,0.3c-0.4,1.4-1.1,2.4-2.1,3.2
		c-1,0.8-2.3,1.1-3.9,1.1c-2,0-3.5-0.6-4.7-1.8c-1.2-1.2-1.7-2.9-1.7-5.1c0-2.3,0.6-4,1.8-5.3s2.7-1.9,4.5-1.9
		c1.8,0,3.3,0.6,4.4,1.8c1.1,1.2,1.7,3,1.7,5.2c0,0.1,0,0.3,0,0.6H56.5c0.1,1.5,0.5,2.6,1.3,3.4c0.8,0.8,1.7,1.2,2.8,1.2
		c0.8,0,1.5-0.2,2.1-0.7C63.3,77.3,63.7,76.6,64.1,75.6z M56.6,71.9h7.5c-0.1-1.1-0.4-2-0.9-2.6c-0.7-0.9-1.7-1.3-2.8-1.3
		c-1.1,0-1.9,0.4-2.6,1.1C57.1,69.8,56.7,70.8,56.6,71.9z M77.7,85.1v-6.6c-0.4,0.5-0.9,0.9-1.5,1.3c-0.6,0.3-1.3,0.5-2,0.5
		c-1.6,0-3-0.6-4.1-1.9c-1.2-1.3-1.7-3-1.7-5.3c0-1.4,0.2-2.6,0.7-3.6c0.5-1.1,1.1-1.9,2-2.4c0.9-0.6,1.9-0.8,2.9-0.8
		c1.7,0,3,0.7,3.9,2.1v-1.8H80v18.7H77.7z M70.7,73.2c0,1.7,0.4,3,1.1,3.9c0.7,0.9,1.6,1.3,2.6,1.3c1,0,1.8-0.4,2.5-1.2
		c0.7-0.8,1-2.1,1-3.8c0-1.8-0.4-3.1-1.1-4c-0.7-0.9-1.6-1.4-2.6-1.4c-1,0-1.8,0.4-2.5,1.3C71,70.1,70.7,71.4,70.7,73.2z M92.2,80
		v-2c-1.1,1.5-2.5,2.3-4.3,2.3c-0.8,0-1.5-0.2-2.2-0.5c-0.7-0.3-1.2-0.7-1.5-1.2c-0.3-0.5-0.6-1-0.7-1.7c-0.1-0.4-0.1-1.2-0.1-2.1
		v-8.4h2.3V74c0,1.2,0,2,0.1,2.4c0.1,0.6,0.4,1.1,0.9,1.4c0.5,0.3,1,0.5,1.7,0.5c0.7,0,1.3-0.2,1.9-0.5c0.6-0.4,1-0.8,1.3-1.4
		s0.4-1.5,0.4-2.6v-7.2h2.3V80H92.2z M97.7,64v-2.6h2.3V64H97.7z M97.7,80V66.5h2.3V80H97.7z M103.4,85.1V66.5h2.1v1.8
		c0.5-0.7,1-1.2,1.7-1.5c0.6-0.3,1.4-0.5,2.2-0.5c1.2,0,2.2,0.3,3.1,0.9c0.9,0.6,1.5,1.4,2,2.5c0.4,1.1,0.7,2.3,0.7,3.5
		c0,1.4-0.2,2.6-0.7,3.7c-0.5,1.1-1.2,2-2.2,2.5c-0.9,0.6-1.9,0.9-3,0.9c-0.8,0-1.4-0.2-2.1-0.5c-0.6-0.3-1.1-0.7-1.5-1.2v6.6H103.4
		z M105.4,73.3c0,1.7,0.4,3,1.1,3.9c0.7,0.8,1.6,1.2,2.6,1.2c1,0,1.9-0.4,2.6-1.3c0.7-0.9,1.1-2.2,1.1-4c0-1.7-0.4-3-1.1-3.9
		c-0.7-0.9-1.5-1.3-2.5-1.3c-1,0-1.8,0.5-2.6,1.4C105.8,70.3,105.4,71.6,105.4,73.3z M117.6,80V66.5h2v1.9c0.4-0.7,1-1.2,1.7-1.6
		c0.7-0.4,1.5-0.6,2.4-0.6c1,0,1.8,0.2,2.5,0.6c0.6,0.4,1.1,1,1.4,1.7c1.1-1.6,2.4-2.4,4.2-2.4c1.3,0,2.4,0.4,3.1,1.1
		c0.7,0.7,1.1,1.9,1.1,3.4V80h-2.3v-8.5c0-0.9-0.1-1.6-0.2-2c-0.1-0.4-0.4-0.7-0.8-1c-0.4-0.2-0.8-0.4-1.4-0.4
		c-0.9,0-1.7,0.3-2.4,0.9c-0.6,0.6-0.9,1.6-0.9,3V80h-2.3v-8.8c0-1-0.2-1.8-0.6-2.3c-0.4-0.5-1-0.8-1.8-0.8c-0.6,0-1.2,0.2-1.8,0.5
		c-0.5,0.3-0.9,0.8-1.2,1.5c-0.2,0.7-0.4,1.6-0.4,2.8v7H117.6z M148.2,75.6l2.4,0.3c-0.4,1.4-1.1,2.4-2.1,3.2
		c-1,0.8-2.3,1.1-3.9,1.1c-2,0-3.5-0.6-4.7-1.8c-1.2-1.2-1.7-2.9-1.7-5.1c0-2.3,0.6-4,1.8-5.3c1.2-1.3,2.7-1.9,4.5-1.9
		c1.8,0,3.3,0.6,4.4,1.8c1.1,1.2,1.7,3,1.7,5.2c0,0.1,0,0.3,0,0.6h-10.1c0.1,1.5,0.5,2.6,1.3,3.4c0.8,0.8,1.7,1.2,2.8,1.2
		c0.8,0,1.5-0.2,2.1-0.7C147.4,77.3,147.9,76.6,148.2,75.6z M140.7,71.9h7.5c-0.1-1.1-0.4-2-0.9-2.6c-0.7-0.9-1.7-1.3-2.8-1.3
		c-1.1,0-1.9,0.4-2.6,1.1C141.2,69.8,140.8,70.8,140.7,71.9z M153.3,80V66.5h2v1.9c1-1.5,2.4-2.2,4.3-2.2c0.8,0,1.6,0.1,2.2,0.4
		c0.7,0.3,1.2,0.7,1.5,1.1c0.3,0.5,0.6,1,0.7,1.7c0.1,0.4,0.1,1.2,0.1,2.2V80H162v-8.2c0-0.9-0.1-1.6-0.3-2.1
		c-0.2-0.5-0.5-0.8-0.9-1.1c-0.5-0.3-1-0.4-1.6-0.4c-1,0-1.8,0.3-2.5,0.9c-0.7,0.6-1.1,1.8-1.1,3.5V80H153.3z M172.5,77.9l0.3,2
		c-0.6,0.1-1.2,0.2-1.7,0.2c-0.8,0-1.5-0.1-1.9-0.4c-0.5-0.3-0.8-0.6-1-1S168,77.4,168,76v-7.8h-1.7v-1.8h1.7v-3.3l2.3-1.4v4.7h2.3
		v1.8h-2.3v7.9c0,0.7,0,1.1,0.1,1.3c0.1,0.2,0.2,0.3,0.4,0.4c0.2,0.1,0.4,0.2,0.8,0.2C171.8,78,172.1,78,172.5,77.9z M186.2,85.4
		c-1.3-1.6-2.3-3.5-3.2-5.6c-0.9-2.1-1.3-4.3-1.3-6.6c0-2,0.3-4,1-5.8c0.8-2.1,1.9-4.3,3.5-6.4h1.6c-1,1.8-1.7,3-2,3.8
		c-0.5,1.2-0.9,2.4-1.2,3.7c-0.4,1.6-0.5,3.2-0.5,4.8c0,4.1,1.3,8.1,3.8,12.2H186.2z M199.1,80v-1.7c-0.9,1.3-2.1,2-3.8,2
		c-1.1,0-2.1-0.3-3-0.9c-0.9-0.6-1.6-1.4-2.1-2.5s-0.7-2.3-0.7-3.7c0-1.3,0.2-2.6,0.7-3.7s1.1-1.9,2-2.5c0.9-0.6,1.9-0.9,3-0.9
		c0.8,0,1.5,0.2,2.2,0.5c0.6,0.3,1.2,0.8,1.5,1.3v-6.7h2.3V80H199.1z M191.9,73.2c0,1.7,0.4,3,1.1,3.9c0.7,0.9,1.6,1.3,2.6,1.3
		c1,0,1.8-0.4,2.5-1.2c0.7-0.8,1-2.1,1-3.7c0-1.9-0.4-3.2-1.1-4.1c-0.7-0.9-1.6-1.3-2.6-1.3c-1,0-1.9,0.4-2.6,1.2
		S191.9,71.5,191.9,73.2z M204.5,63.8v-2.6h2.5v2.1c0,1.1-0.1,2-0.4,2.5c-0.4,0.7-0.9,1.2-1.7,1.5l-0.6-0.9c0.5-0.2,0.8-0.5,1-0.9
		c0.2-0.4,0.3-1,0.4-1.7H204.5z M211.8,85.4h-1.6c2.5-4.1,3.8-8.1,3.8-12.2c0-1.6-0.2-3.2-0.5-4.7c-0.3-1.3-0.7-2.5-1.2-3.7
		c-0.3-0.8-1-2-2-3.8h1.6c1.6,2.1,2.8,4.2,3.5,6.4c0.7,1.8,1,3.8,1,5.8c0,2.3-0.4,4.5-1.3,6.6C214.1,82,213.1,83.8,211.8,85.4z"/>
</g>
<g>
	<defs>
		<rect id="SVGID_1_" x="265.8" y="829.9" width="21.5" height="178.1"/>
	</defs>
	<clipPath id="SVGID_2_">
		<use xlink:href="#SVGID_1_"  style="overflow:visible;"/>
	</clipPath>
	<g class="st15">
		
			<rect x="155.8" y="830.2" transform="matrix(0.8653 -0.5012 0.5012 0.8653 -390.1422 230.5582)" class="st10" width="156.4" height="22.3"/>
		
			<rect x="167" y="849.4" transform="matrix(0.8653 -0.5012 0.5012 0.8653 -398.3002 238.7499)" class="st16" width="156.4" height="22.3"/>
		
			<rect x="178.2" y="868.5" transform="matrix(0.8653 -0.5012 0.5012 0.8653 -406.3486 246.9309)" class="st10" width="156.4" height="22.3"/>
		
			<rect x="189.3" y="887.8" transform="matrix(0.8653 -0.5012 0.5012 0.8653 -414.5065 255.1226)" class="st16" width="156.4" height="22.3"/>
		
			<rect x="200" y="906.6" transform="matrix(0.8653 -0.5012 0.5012 0.8653 -422.4995 263.0135)" class="st10" width="156.4" height="22.3"/>
		
			<rect x="211.2" y="925.9" transform="matrix(0.8653 -0.5012 0.5012 0.8653 -430.6574 271.2052)" class="st16" width="156.4" height="22.3"/>
		
			<rect x="222.1" y="944.6" transform="matrix(0.8653 -0.5012 0.5012 0.8653 -438.5649 279.1812)" class="st10" width="156.4" height="22.3"/>
		
			<rect x="233.2" y="963.9" transform="matrix(0.8653 -0.5012 0.5012 0.8653 -446.7229 287.3728)" class="st16" width="156.4" height="22.3"/>
		
			<rect x="244.1" y="982.6" transform="matrix(0.8653 -0.5012 0.5012 0.8653 -454.6483 295.331)" class="st10" width="156.4" height="22.3"/>
		
			<rect x="255.2" y="1001.9" transform="matrix(0.8653 -0.5012 0.5012 0.8653 -462.8063 303.5227)" class="st16" width="156.4" height="22.3"/>
	</g>
</g>
<g>
	<defs>
		<rect id="SVGID_3_" x="373.1" y="846.3" width="21.5" height="161.7"/>
	</defs>
	<clipPath id="SVGID_4_">
		<use xlink:href="#SVGID_3_"  style="overflow:visible;"/>
	</clipPath>
	<g class="st17">
		
			<rect x="256" y="818.1" transform="matrix(0.8653 -0.5012 0.5012 0.8653 -370.629 279.1375)" class="st10" width="156.4" height="22.3"/>
		
			<rect x="267.1" y="837.4" transform="matrix(0.8653 -0.5012 0.5012 0.8653 -378.787 287.3292)" class="st16" width="156.4" height="22.3"/>
		
			<rect x="278.3" y="856.5" transform="matrix(0.8653 -0.5012 0.5012 0.8653 -386.8354 295.5102)" class="st10" width="156.4" height="22.3"/>
		
			<rect x="289.5" y="875.8" transform="matrix(0.8653 -0.5012 0.5012 0.8653 -394.9933 303.7018)" class="st16" width="156.4" height="22.3"/>
		
			<rect x="300.2" y="894.6" transform="matrix(0.8653 -0.5012 0.5012 0.8653 -402.9862 311.5928)" class="st10" width="156.4" height="22.3"/>
		
			<rect x="311.3" y="913.9" transform="matrix(0.8653 -0.5012 0.5012 0.8653 -411.1442 319.7845)" class="st16" width="156.4" height="22.3"/>
		
			<rect x="322.2" y="932.6" transform="matrix(0.8653 -0.5012 0.5012 0.8653 -419.0517 327.7604)" class="st10" width="156.4" height="22.3"/>
		
			<rect x="333.4" y="951.8" transform="matrix(0.8653 -0.5012 0.5012 0.8653 -427.2097 335.9521)" class="st16" width="156.4" height="22.3"/>
		
			<rect x="344.2" y="970.6" transform="matrix(0.8653 -0.5012 0.5012 0.8653 -435.1351 343.9103)" class="st10" width="156.4" height="22.3"/>
		
			<rect x="355.4" y="989.8" transform="matrix(0.8653 -0.5012 0.5012 0.8653 -443.293 352.102)" class="st16" width="156.4" height="22.3"/>
	</g>
</g>
<g>
	<defs>
		<rect id="SVGID_5_" x="480.4" y="838.1" width="21.5" height="169.9"/>
	</defs>
	<clipPath id="SVGID_6_">
		<use xlink:href="#SVGID_5_"  style="overflow:visible;"/>
	</clipPath>
	<g class="st18">
		
			<rect x="366" y="816.4" transform="matrix(0.8653 -0.5012 0.5012 0.8653 -354.9492 334.0408)" class="st10" width="156.4" height="22.3"/>
		
			<rect x="377.1" y="835.7" transform="matrix(0.8653 -0.5012 0.5012 0.8653 -363.1072 342.2325)" class="st16" width="156.4" height="22.3"/>
		
			<rect x="388.3" y="854.8" transform="matrix(0.8653 -0.5012 0.5012 0.8653 -371.1556 350.4135)" class="st10" width="156.4" height="22.3"/>
		
			<rect x="399.5" y="874" transform="matrix(0.8653 -0.5012 0.5012 0.8653 -379.3136 358.6052)" class="st16" width="156.4" height="22.3"/>
		
			<rect x="410.2" y="892.9" transform="matrix(0.8653 -0.5012 0.5012 0.8653 -387.3065 366.4961)" class="st10" width="156.4" height="22.3"/>
		
			<rect x="421.3" y="912.1" transform="matrix(0.8653 -0.5012 0.5012 0.8653 -395.4644 374.6878)" class="st16" width="156.4" height="22.3"/>
		
			<rect x="432.2" y="930.8" transform="matrix(0.8653 -0.5012 0.5012 0.8653 -403.372 382.6638)" class="st10" width="156.4" height="22.3"/>
		
			<rect x="443.4" y="950.1" transform="matrix(0.8653 -0.5012 0.5012 0.8653 -411.5299 390.8554)" class="st16" width="156.4" height="22.3"/>
		
			<rect x="454.2" y="968.8" transform="matrix(0.8653 -0.5012 0.5012 0.8653 -419.4554 398.8136)" class="st10" width="156.4" height="22.3"/>
		
			<rect x="465.4" y="988.1" transform="matrix(0.8653 -0.5012 0.5012 0.8653 -427.6133 407.0053)" class="st16" width="156.4" height="22.3"/>
	</g>
</g>
<g>
	<defs>
		<rect id="SVGID_7_" x="587.7" y="875.5" width="21.5" height="132.5"/>
	</defs>
	<clipPath id="SVGID_8_">
		<use xlink:href="#SVGID_7_"  style="overflow:visible;"/>
	</clipPath>
	<g class="st19">
		
			<rect x="470.6" y="838.5" transform="matrix(0.8653 -0.5012 0.5012 0.8653 -351.9258 389.4406)" class="st10" width="156.4" height="22.3"/>
		
			<rect x="481.7" y="857.8" transform="matrix(0.8653 -0.5012 0.5012 0.8653 -360.0837 397.6323)" class="st16" width="156.4" height="22.3"/>
		
			<rect x="492.9" y="876.8" transform="matrix(0.8653 -0.5012 0.5012 0.8653 -368.1321 405.8133)" class="st10" width="156.4" height="22.3"/>
		
			<rect x="504.1" y="896.1" transform="matrix(0.8653 -0.5012 0.5012 0.8653 -376.2901 414.005)" class="st16" width="156.4" height="22.3"/>
		
			<rect x="514.8" y="914.9" transform="matrix(0.8653 -0.5012 0.5012 0.8653 -384.283 421.8959)" class="st10" width="156.4" height="22.3"/>
		
			<rect x="526" y="934.2" transform="matrix(0.8653 -0.5012 0.5012 0.8653 -392.4409 430.0876)" class="st16" width="156.4" height="22.3"/>
		
			<rect x="536.8" y="952.9" transform="matrix(0.8653 -0.5012 0.5012 0.8653 -400.3485 438.0636)" class="st10" width="156.4" height="22.3"/>
		
			<rect x="548" y="972.2" transform="matrix(0.8653 -0.5012 0.5012 0.8653 -408.5064 446.2552)" class="st16" width="156.4" height="22.3"/>
		
			<rect x="558.9" y="990.9" transform="matrix(0.8653 -0.5012 0.5012 0.8653 -416.4319 454.2134)" class="st10" width="156.4" height="22.3"/>
		
			<rect x="570" y="1010.2" transform="matrix(0.8653 -0.5012 0.5012 0.8653 -424.5898 462.4051)" class="st16" width="156.4" height="22.3"/>
	</g>
</g>
<g>
	<defs>
		<rect id="SVGID_9_" x="287.3" y="902.3" width="21.5" height="105.7"/>
	</defs>
	<clipPath id="SVGID_10_">
		<use xlink:href="#SVGID_9_"  style="overflow:visible;"/>
	</clipPath>
	<g class="st20">
		
			<rect x="170.1" y="855.5" transform="matrix(0.8653 -0.5012 0.5012 0.8653 -400.9207 241.1451)" class="st11" width="156.4" height="22.3"/>
		
			<rect x="181.3" y="874.8" transform="matrix(0.8653 -0.5012 0.5012 0.8653 -409.0786 249.3368)" class="st21" width="156.4" height="22.3"/>
		
			<rect x="192.5" y="893.9" transform="matrix(0.8653 -0.5012 0.5012 0.8653 -417.1271 257.5178)" class="st11" width="156.4" height="22.3"/>
		
			<rect x="203.6" y="913.1" transform="matrix(0.8653 -0.5012 0.5012 0.8653 -425.285 265.7095)" class="st21" width="156.4" height="22.3"/>
		
			<rect x="214.3" y="932" transform="matrix(0.8653 -0.5012 0.5012 0.8653 -433.278 273.6004)" class="st11" width="156.4" height="22.3"/>
		
			<rect x="225.5" y="951.2" transform="matrix(0.8653 -0.5012 0.5012 0.8653 -441.4359 281.7921)" class="st21" width="156.4" height="22.3"/>
		
			<rect x="236.4" y="969.9" transform="matrix(0.8653 -0.5012 0.5012 0.8653 -449.3434 289.7681)" class="st11" width="156.4" height="22.3"/>
		
			<rect x="247.5" y="989.2" transform="matrix(0.8653 -0.5012 0.5012 0.8653 -457.5014 297.9597)" class="st21" width="156.4" height="22.3"/>
		
			<rect x="258.4" y="1007.9" transform="matrix(0.8653 -0.5012 0.5012 0.8653 -465.4268 305.9179)" class="st11" width="156.4" height="22.3"/>
		
			<rect x="269.6" y="1027.2" transform="matrix(0.8653 -0.5012 0.5012 0.8653 -473.5847 314.1096)" class="st21" width="156.4" height="22.3"/>
	</g>
</g>
<g>
	<defs>
		<rect id="SVGID_11_" x="394.6" y="875.2" width="21.5" height="132.8"/>
	</defs>
	<clipPath id="SVGID_12_">
		<use xlink:href="#SVGID_11_"  style="overflow:visible;"/>
	</clipPath>
	<g class="st22">
		
			<rect x="298.9" y="838.5" transform="matrix(0.8653 -0.5012 0.5012 0.8653 -375.0464 303.3901)" class="st11" width="156.4" height="22.3"/>
		
			<rect x="310" y="857.8" transform="matrix(0.8653 -0.5012 0.5012 0.8653 -383.2043 311.5818)" class="st21" width="156.4" height="22.3"/>
		
			<rect x="321.2" y="876.8" transform="matrix(0.8653 -0.5012 0.5012 0.8653 -391.2527 319.7628)" class="st11" width="156.4" height="22.3"/>
		
			<rect x="332.4" y="896.1" transform="matrix(0.8653 -0.5012 0.5012 0.8653 -399.4107 327.9544)" class="st21" width="156.4" height="22.3"/>
		
			<rect x="343.1" y="914.9" transform="matrix(0.8653 -0.5012 0.5012 0.8653 -407.4036 335.8454)" class="st11" width="156.4" height="22.3"/>
		
			<rect x="354.3" y="934.2" transform="matrix(0.8653 -0.5012 0.5012 0.8653 -415.5616 344.037)" class="st21" width="156.4" height="22.3"/>
		
			<rect x="365.1" y="952.9" transform="matrix(0.8653 -0.5012 0.5012 0.8653 -423.4691 352.013)" class="st11" width="156.4" height="22.3"/>
		
			<rect x="376.3" y="972.2" transform="matrix(0.8653 -0.5012 0.5012 0.8653 -431.627 360.2047)" class="st21" width="156.4" height="22.3"/>
		
			<rect x="387.2" y="990.9" transform="matrix(0.8653 -0.5012 0.5012 0.8653 -439.5525 368.1629)" class="st11" width="156.4" height="22.3"/>
		
			<rect x="398.3" y="1010.2" transform="matrix(0.8653 -0.5012 0.5012 0.8653 -447.7104 376.3546)" class="st21" width="156.4" height="22.3"/>
	</g>
</g>
<g>
	<defs>
		<rect id="SVGID_13_" x="501.9" y="886.1" width="21.5" height="121.9"/>
	</defs>
	<clipPath id="SVGID_14_">
		<use xlink:href="#SVGID_13_"  style="overflow:visible;"/>
	</clipPath>
	<g class="st23">
		
			<rect x="389.7" y="822.4" transform="matrix(0.8653 -0.5012 0.5012 0.8653 -354.7283 346.7491)" class="st11" width="156.4" height="22.3"/>
		
			<rect x="400.9" y="841.6" transform="matrix(0.8653 -0.5012 0.5012 0.8653 -362.8863 354.9408)" class="st21" width="156.4" height="22.3"/>
		
			<rect x="412.1" y="860.7" transform="matrix(0.8653 -0.5012 0.5012 0.8653 -370.9347 363.1218)" class="st11" width="156.4" height="22.3"/>
		
			<rect x="423.3" y="880" transform="matrix(0.8653 -0.5012 0.5012 0.8653 -379.0926 371.3134)" class="st21" width="156.4" height="22.3"/>
		
			<rect x="433.9" y="898.8" transform="matrix(0.8653 -0.5012 0.5012 0.8653 -387.0855 379.2044)" class="st11" width="156.4" height="22.3"/>
		
			<rect x="445.1" y="918.1" transform="matrix(0.8653 -0.5012 0.5012 0.8653 -395.2435 387.3961)" class="st21" width="156.4" height="22.3"/>
		
			<rect x="456" y="936.8" transform="matrix(0.8653 -0.5012 0.5012 0.8653 -403.151 395.372)" class="st11" width="156.4" height="22.3"/>
		
			<rect x="467.2" y="956.1" transform="matrix(0.8653 -0.5012 0.5012 0.8653 -411.309 403.5637)" class="st21" width="156.4" height="22.3"/>
		
			<rect x="478" y="974.8" transform="matrix(0.8653 -0.5012 0.5012 0.8653 -419.2344 411.5219)" class="st11" width="156.4" height="22.3"/>
		
			<rect x="489.2" y="994.1" transform="matrix(0.8653 -0.5012 0.5012 0.8653 -427.3924 419.7136)" class="st21" width="156.4" height="22.3"/>
	</g>
</g>
<g>
	<defs>
		<rect id="SVGID_15_" x="609.2" y="902.4" width="21.5" height="105.6"/>
	</defs>
	<clipPath id="SVGID_16_">
		<use xlink:href="#SVGID_15_"  style="overflow:visible;"/>
	</clipPath>
	<g class="st24">
		
			<rect x="498.1" y="859.6" transform="matrix(0.8653 -0.5012 0.5012 0.8653 -358.8004 406.0592)" class="st11" width="156.4" height="22.3"/>
		
			<rect x="509.2" y="878.9" transform="matrix(0.8653 -0.5012 0.5012 0.8653 -366.9583 414.2509)" class="st21" width="156.4" height="22.3"/>
		
			<rect x="520.4" y="897.9" transform="matrix(0.8653 -0.5012 0.5012 0.8653 -375.0067 422.4319)" class="st11" width="156.4" height="22.3"/>
		
			<rect x="531.6" y="917.2" transform="matrix(0.8653 -0.5012 0.5012 0.8653 -383.1647 430.6235)" class="st21" width="156.4" height="22.3"/>
		
			<rect x="542.3" y="936" transform="matrix(0.8653 -0.5012 0.5012 0.8653 -391.1576 438.5145)" class="st11" width="156.4" height="22.3"/>
		
			<rect x="553.4" y="955.3" transform="matrix(0.8653 -0.5012 0.5012 0.8653 -399.3155 446.7062)" class="st21" width="156.4" height="22.3"/>
		
			<rect x="564.3" y="974" transform="matrix(0.8653 -0.5012 0.5012 0.8653 -407.2231 454.6821)" class="st11" width="156.4" height="22.3"/>
		
			<rect x="575.5" y="993.3" transform="matrix(0.8653 -0.5012 0.5012 0.8653 -415.381 462.8738)" class="st21" width="156.4" height="22.3"/>
		
			<rect x="586.3" y="1012" transform="matrix(0.8653 -0.5012 0.5012 0.8653 -423.3064 470.832)" class="st11" width="156.4" height="22.3"/>
		
			<rect x="597.5" y="1031.3" transform="matrix(0.8653 -0.5012 0.5012 0.8653 -431.4644 479.0237)" class="st21" width="156.4" height="22.3"/>
	</g>
</g>
<g>
	<defs>
		<rect id="SVGID_17_" x="308.7" y="826.2" width="21.5" height="181.8"/>
	</defs>
	<clipPath id="SVGID_18_">
		<use xlink:href="#SVGID_17_"  style="overflow:visible;"/>
	</clipPath>
	<g class="st25">
		
			<rect x="200.5" y="813.8" transform="matrix(0.8653 -0.5012 0.5012 0.8653 -375.9382 250.7696)" class="st13" width="156.4" height="22.3"/>
		
			<rect x="211.7" y="833.1" transform="matrix(0.8653 -0.5012 0.5012 0.8653 -384.0962 258.9612)" class="st26" width="156.4" height="22.3"/>
		
			<rect x="222.9" y="852.2" transform="matrix(0.8653 -0.5012 0.5012 0.8653 -392.1446 267.1422)" class="st13" width="156.4" height="22.3"/>
		
			<rect x="234" y="871.5" transform="matrix(0.8653 -0.5012 0.5012 0.8653 -400.3025 275.3339)" class="st26" width="156.4" height="22.3"/>
		
			<rect x="244.7" y="890.3" transform="matrix(0.8653 -0.5012 0.5012 0.8653 -408.2954 283.2248)" class="st13" width="156.4" height="22.3"/>
		
			<rect x="255.9" y="909.6" transform="matrix(0.8653 -0.5012 0.5012 0.8653 -416.4534 291.4165)" class="st26" width="156.4" height="22.3"/>
		
			<rect x="266.8" y="928.3" transform="matrix(0.8653 -0.5012 0.5012 0.8653 -424.3609 299.3925)" class="st13" width="156.4" height="22.3"/>
		
			<rect x="277.9" y="947.5" transform="matrix(0.8653 -0.5012 0.5012 0.8653 -432.5189 307.5842)" class="st26" width="156.4" height="22.3"/>
		
			<rect x="288.8" y="966.3" transform="matrix(0.8653 -0.5012 0.5012 0.8653 -440.4443 315.5423)" class="st13" width="156.4" height="22.3"/>
		
			<rect x="300" y="985.5" transform="matrix(0.8653 -0.5012 0.5012 0.8653 -448.6023 323.734)" class="st26" width="156.4" height="22.3"/>
	</g>
</g>
<g>
	<defs>
		<rect id="SVGID_19_" x="416.1" y="818.1" width="21.5" height="189.9"/>
	</defs>
	<clipPath id="SVGID_20_">
		<use xlink:href="#SVGID_19_"  style="overflow:visible;"/>
	</clipPath>
	<g class="st27">
		
			<rect x="303.9" y="807.6" transform="matrix(0.8653 -0.5012 0.5012 0.8653 -358.9172 301.7433)" class="st13" width="156.4" height="22.3"/>
		
			<rect x="315" y="826.9" transform="matrix(0.8653 -0.5012 0.5012 0.8653 -367.0751 309.9349)" class="st26" width="156.4" height="22.3"/>
		
			<rect x="326.2" y="846" transform="matrix(0.8653 -0.5012 0.5012 0.8653 -375.1235 318.1159)" class="st13" width="156.4" height="22.3"/>
		
			<rect x="337.4" y="865.3" transform="matrix(0.8653 -0.5012 0.5012 0.8653 -383.2815 326.3076)" class="st26" width="156.4" height="22.3"/>
		
			<rect x="348.1" y="884.1" transform="matrix(0.8653 -0.5012 0.5012 0.8653 -391.2744 334.1985)" class="st13" width="156.4" height="22.3"/>
		
			<rect x="359.3" y="903.4" transform="matrix(0.8653 -0.5012 0.5012 0.8653 -399.4323 342.3902)" class="st26" width="156.4" height="22.3"/>
		
			<rect x="370.1" y="922.1" transform="matrix(0.8653 -0.5012 0.5012 0.8653 -407.3399 350.3662)" class="st13" width="156.4" height="22.3"/>
		
			<rect x="381.3" y="941.3" transform="matrix(0.8653 -0.5012 0.5012 0.8653 -415.4978 358.5579)" class="st26" width="156.4" height="22.3"/>
		
			<rect x="392.2" y="960.1" transform="matrix(0.8653 -0.5012 0.5012 0.8653 -423.4232 366.516)" class="st13" width="156.4" height="22.3"/>
		
			<rect x="403.3" y="979.3" transform="matrix(0.8653 -0.5012 0.5012 0.8653 -431.5812 374.7077)" class="st26" width="156.4" height="22.3"/>
	</g>
</g>
<g>
	<defs>
		<rect id="SVGID_21_" x="523.4" y="829.6" width="21.5" height="178.4"/>
	</defs>
	<clipPath id="SVGID_22_">
		<use xlink:href="#SVGID_21_"  style="overflow:visible;"/>
	</clipPath>
	<g class="st28">
		
			<rect x="407.3" y="830.2" transform="matrix(0.8653 -0.5012 0.5012 0.8653 -356.278 356.5944)" class="st13" width="156.4" height="22.3"/>
		
			<rect x="418.4" y="849.4" transform="matrix(0.8653 -0.5012 0.5012 0.8653 -364.436 364.786)" class="st26" width="156.4" height="22.3"/>
		
			<rect x="429.6" y="868.5" transform="matrix(0.8653 -0.5012 0.5012 0.8653 -372.4844 372.967)" class="st13" width="156.4" height="22.3"/>
		
			<rect x="440.8" y="887.8" transform="matrix(0.8653 -0.5012 0.5012 0.8653 -380.6424 381.1587)" class="st26" width="156.4" height="22.3"/>
		
			<rect x="451.5" y="906.6" transform="matrix(0.8653 -0.5012 0.5012 0.8653 -388.6353 389.0496)" class="st13" width="156.4" height="22.3"/>
		
			<rect x="462.7" y="925.9" transform="matrix(0.8653 -0.5012 0.5012 0.8653 -396.7932 397.2413)" class="st26" width="156.4" height="22.3"/>
		
			<rect x="473.5" y="944.6" transform="matrix(0.8653 -0.5012 0.5012 0.8653 -404.7008 405.2173)" class="st13" width="156.4" height="22.3"/>
		
			<rect x="484.7" y="963.9" transform="matrix(0.8653 -0.5012 0.5012 0.8653 -412.8587 413.409)" class="st26" width="156.4" height="22.3"/>
		
			<rect x="495.6" y="982.6" transform="matrix(0.8653 -0.5012 0.5012 0.8653 -420.7841 421.3671)" class="st13" width="156.4" height="22.3"/>
		
			<rect x="506.7" y="1001.9" transform="matrix(0.8653 -0.5012 0.5012 0.8653 -428.9421 429.5588)" class="st26" width="156.4" height="22.3"/>
	</g>
</g>
<g>
	<defs>
		<rect id="SVGID_23_" x="630.7" y="867.1" width="21.5" height="140.9"/>
	</defs>
	<clipPath id="SVGID_24_">
		<use xlink:href="#SVGID_23_"  style="overflow:visible;"/>
	</clipPath>
	<g class="st29">
		
			<rect x="520.9" y="851.2" transform="matrix(0.8653 -0.5012 0.5012 0.8653 -351.5179 416.3508)" class="st13" width="156.4" height="22.3"/>
		
			<rect x="532" y="870.5" transform="matrix(0.8653 -0.5012 0.5012 0.8653 -359.6758 424.5425)" class="st26" width="156.4" height="22.3"/>
		
			<rect x="543.2" y="889.5" transform="matrix(0.8653 -0.5012 0.5012 0.8653 -367.7242 432.7234)" class="st13" width="156.4" height="22.3"/>
		
			<rect x="554.4" y="908.8" transform="matrix(0.8653 -0.5012 0.5012 0.8653 -375.8822 440.9151)" class="st26" width="156.4" height="22.3"/>
		
			<rect x="565.1" y="927.6" transform="matrix(0.8653 -0.5012 0.5012 0.8653 -383.8751 448.8061)" class="st13" width="156.4" height="22.3"/>
		
			<rect x="576.2" y="946.9" transform="matrix(0.8653 -0.5012 0.5012 0.8653 -392.0331 456.9978)" class="st26" width="156.4" height="22.3"/>
		
			<rect x="587.1" y="965.6" transform="matrix(0.8653 -0.5012 0.5012 0.8653 -399.9406 464.9737)" class="st13" width="156.4" height="22.3"/>
		
			<rect x="598.3" y="984.9" transform="matrix(0.8653 -0.5012 0.5012 0.8653 -408.0985 473.1654)" class="st26" width="156.4" height="22.3"/>
		
			<rect x="609.1" y="1003.6" transform="matrix(0.8653 -0.5012 0.5012 0.8653 -416.024 481.1236)" class="st13" width="156.4" height="22.3"/>
		
			<rect x="620.3" y="1022.9" transform="matrix(0.8653 -0.5012 0.5012 0.8653 -424.1819 489.3152)" class="st26" width="156.4" height="22.3"/>
	</g>
</g>
<g>
	<line class="st30" x1="276.6" y1="829.9" x2="276.6" y2="849.8"/>
	<line class="st30" x1="383.9" y1="846.3" x2="383.9" y2="867.7"/>
	<line class="st30" x1="491.2" y1="838.1" x2="491.2" y2="859.6"/>
	<line class="st30" x1="598.5" y1="875.5" x2="598.5" y2="902.5"/>
	<line class="st30" x1="276.6" y1="829.9" x2="276.6" y2="809.9"/>
	<line class="st30" x1="383.9" y1="846.3" x2="383.9" y2="824.9"/>
	<line class="st30" x1="491.2" y1="838.1" x2="491.2" y2="816.6"/>
	<line class="st30" x1="598.5" y1="875.5" x2="598.5" y2="848.4"/>
</g>
<g transform="translate(190.5769,909.7934)">
	<path d="M81-60h10"/>
</g>
<g transform="translate(190.5769,909.7934)">
	<path class="st31" d="M81-60h10"/>
</g>
<g transform="translate(297.8846,927.7323)">
	<path d="M81-60h10"/>
</g>
<g transform="translate(297.8846,927.7323)">
	<path class="st31" d="M81-60h10"/>
</g>
<g transform="translate(405.1923,919.6385)">
	<path d="M81-60h10"/>
</g>
<g transform="translate(405.1923,919.6385)">
	<path class="st31" d="M81-60h10"/>
</g>
<g transform="translate(512.5,962.5364)">
	<path d="M81-60h10"/>
</g>
<g transform="translate(512.5,962.5364)">
	<path class="st31" d="M81-60h10"/>
</g>
<g transform="translate(190.5769,869.9225)">
	<path d="M81-60h10"/>
</g>
<g transform="translate(190.5769,869.9225)">
	<path class="st31" d="M81-60h10"/>
</g>
<g transform="translate(297.8846,884.8629)">
	<path d="M81-60h10"/>
</g>
<g transform="translate(297.8846,884.8629)">
	<path class="st31" d="M81-60h10"/>
</g>
<g transform="translate(405.1923,876.5513)">
	<path d="M81-60h10"/>
</g>
<g transform="translate(405.1923,876.5513)">
	<path class="st31" d="M81-60h10"/>
</g>
<g transform="translate(512.5,908.3698)">
	<path d="M81-60h10"/>
</g>
<g transform="translate(512.5,908.3698)">
	<path class="st31" d="M81-60h10"/>
	<line class="st30" x1="-214.5" y1="-6.1" x2="-214.5" y2="11"/>
	<line class="st30" x1="-107.2" y1="-33.2" x2="-107.2" y2="-10.5"/>
	<line class="st30" x1="0.1" y1="-22.2" x2="0.1" y2="-0.7"/>
	<line class="st30" x1="107.4" y1="-6" x2="107.4" y2="16.1"/>
	<line class="st30" x1="-214.5" y1="-6.1" x2="-214.5" y2="-23.1"/>
	<line class="st30" x1="-107.2" y1="-33.2" x2="-107.2" y2="-55.9"/>
	<line class="st30" x1="0.1" y1="-22.2" x2="0.1" y2="-43.8"/>
	<line class="st30" x1="107.4" y1="-6" x2="107.4" y2="-28.1"/>
</g>
<g transform="translate(212.0385,979.3423)">
	<path d="M81-60h10"/>
</g>
<g transform="translate(212.0385,979.3423)">
	<path class="st31" d="M81-60h10"/>
</g>
<g transform="translate(319.3462,957.8702)">
	<path d="M81-60h10"/>
</g>
<g transform="translate(319.3462,957.8702)">
	<path class="st31" d="M81-60h10"/>
</g>
<g transform="translate(426.6538,967.6498)">
	<path d="M81-60h10"/>
</g>
<g transform="translate(426.6538,967.6498)">
	<path class="st31" d="M81-60h10"/>
</g>
<g transform="translate(533.9615,984.4448)">
	<path d="M81-60h10"/>
</g>
<g transform="translate(533.9615,984.4448)">
	<path class="st31" d="M81-60h10"/>
</g>
<g transform="translate(212.0385,945.2618)">
	<path d="M81-60h10"/>
</g>
<g transform="translate(212.0385,945.2618)">
	<path class="st31" d="M81-60h10"/>
</g>
<g transform="translate(319.3462,912.4553)">
	<path d="M81-60h10"/>
</g>
<g transform="translate(319.3462,912.4553)">
	<path class="st31" d="M81-60h10"/>
</g>
<g transform="translate(426.6538,924.6053)">
	<path d="M81-60h10"/>
</g>
<g transform="translate(426.6538,924.6053)">
	<path class="st31" d="M81-60h10"/>
</g>
<g transform="translate(533.9615,940.2628)">
	<path d="M81-60h10"/>
</g>
<g transform="translate(533.9615,940.2628)">
	<path class="st31" d="M81-60h10"/>
	<line class="st30" x1="-214.5" y1="-114.1" x2="-214.5" y2="-90.1"/>
	<line class="st30" x1="-107.2" y1="-122.1" x2="-107.2" y2="-99.1"/>
	<line class="st30" x1="0.1" y1="-110.6" x2="0.1" y2="-88.1"/>
	<line class="st30" x1="107.4" y1="-73.1" x2="107.4" y2="-44.4"/>
	<line class="st30" x1="-214.5" y1="-114.1" x2="-214.5" y2="-138.1"/>
	<line class="st30" x1="-107.2" y1="-122.1" x2="-107.2" y2="-145.2"/>
	<line class="st30" x1="0.1" y1="-110.6" x2="0.1" y2="-133.2"/>
	<line class="st30" x1="107.4" y1="-73.1" x2="107.4" y2="-101.9"/>
</g>
<g transform="translate(233.5,910.1988)">
	<path d="M81-60h10"/>
</g>
<g transform="translate(233.5,910.1988)">
	<path class="st31" d="M81-60h10"/>
</g>
<g transform="translate(340.8077,901.2123)">
	<path d="M81-60h10"/>
</g>
<g transform="translate(340.8077,901.2123)">
	<path class="st31" d="M81-60h10"/>
</g>
<g transform="translate(448.1154,912.2125)">
	<path d="M81-60h10"/>
</g>
<g transform="translate(448.1154,912.2125)">
	<path class="st31" d="M81-60h10"/>
</g>
<g transform="translate(555.423,955.8792)">
	<path d="M81-60h10"/>
</g>
<g transform="translate(555.423,955.8792)">
	<path class="st31" d="M81-60h10"/>
</g>
<g transform="translate(233.5,862.1424)">
	<path d="M81-60h10"/>
</g>
<g transform="translate(233.5,862.1424)">
	<path class="st31" d="M81-60h10"/>
</g>
<g transform="translate(340.8077,855.0536)">
	<path d="M81-60h10"/>
</g>
<g transform="translate(340.8077,855.0536)">
	<path class="st31" d="M81-60h10"/>
</g>
<g transform="translate(448.1154,867.0334)">
	<path d="M81-60h10"/>
</g>
<g transform="translate(448.1154,867.0334)">
	<path class="st31" d="M81-60h10"/>
</g>
<g transform="translate(555.423,898.4037)">
	<path d="M81-60h10"/>
</g>
<g transform="translate(555.423,898.4037)">
	<path class="st31" d="M81-60h10"/>
</g>
<g>
	<line class="st8" x1="949" y1="446.5" x2="1244" y2="446.5"/>
	<line class="st8" x1="985.8" y1="446.5" x2="985.8" y2="443.6"/>
	<line class="st8" x1="1059.6" y1="446.5" x2="1059.6" y2="443.6"/>
	<line class="st8" x1="1133.3" y1="446.5" x2="1133.3" y2="443.6"/>
	<line class="st8" x1="1207.1" y1="446.5" x2="1207.1" y2="443.6"/>
</g>
<g transform="translate(199.875,507)">
	<text transform="matrix(1 0 0 1 779.4736 -30.462)" class="st9 st32 st33">6</text>
</g>
<g transform="translate(273.625,507)">
	<text transform="matrix(1 0 0 1 779.4736 -30.462)" class="st9 st32 st33">5</text>
</g>
<g transform="translate(347.375,507)">
	<text transform="matrix(1 0 0 1 779.4736 -30.462)" class="st9 st32 st33">4</text>
</g>
<g transform="translate(421.125,507)">
	<text transform="matrix(1 0 0 1 779.4736 -30.462)" class="st9 st32 st33">3</text>
</g>
<g transform="translate(310.5002,535.6667)">
	<text transform="matrix(1 0 0 1 728.4736 -28.462)" class="st9 st32 st34">Threshold</text>
</g>
<g>
	<line class="st8" x1="949" y1="446.5" x2="949" y2="151.5"/>
	<line class="st8" x1="949" y1="446.5" x2="951.9" y2="446.5"/>
	<line class="st8" x1="949" y1="387.5" x2="951.9" y2="387.5"/>
	<line class="st8" x1="949" y1="328.5" x2="951.9" y2="328.5"/>
	<line class="st8" x1="949" y1="269.5" x2="951.9" y2="269.5"/>
	<line class="st8" x1="949" y1="210.5" x2="951.9" y2="210.5"/>
	<line class="st8" x1="949" y1="151.5" x2="951.9" y2="151.5"/>
</g>
<g transform="translate(155,499)">
	<text transform="matrix(1 0 0 1 772.9736 -43.962)" class="st9 st32 st33">0</text>
</g>
<g transform="translate(155,440)">
	<text transform="matrix(1 0 0 1 759.9736 -43.962)" class="st9 st32 st33">20</text>
</g>
<g transform="translate(155,381)">
	<text transform="matrix(1 0 0 1 759.9736 -43.962)" class="st9 st32 st33">40</text>
</g>
<g transform="translate(155,322)">
	<text transform="matrix(1 0 0 1 759.9736 -43.962)" class="st9 st32 st33">60</text>
</g>
<g transform="translate(155,263)">
	<text transform="matrix(1 0 0 1 759.9736 -43.962)" class="st9 st32 st33">80</text>
</g>
<g transform="translate(155,204)">
	<text transform="matrix(1 0 0 1 746.9736 -43.962)" class="st9 st32 st33">100</text>
</g>
<g transform="translate(111,351.4999) rotate(-90)">
	<text transform="matrix(1 0 0 1 -100.5392 749.9736)" class="st9 st32 st34">% participants who passed</text>
	<text transform="matrix(1 0 0 1 -87.5392 779.9736)" class="st9 st32 st34">at least one speaker test</text>
</g>
<g>
	<line class="st35" x1="949" y1="446.5" x2="1244" y2="446.5"/>
</g>
<g>
	<path class="st16" d="M978.5,446.5V317h-14.8v129.5H978.5z M1052.2,446.5V304.7h-14.8v141.8H1052.2z M1126,446.5V316.9h-14.8v129.6
		H1126z M1199.7,446.5V280.1H1185v166.4H1199.7z"/>
	<path class="st21" d="M993.2,446.5V237.9h-14.8v208.7H993.2z M1067,446.5V231h-14.8v215.6H1067z M1140.7,446.5V209.6H1126v236.9
		H1140.7z M1214.5,446.5V196.9h-14.8v249.6H1214.5z"/>
	<path class="st36" d="M1008,446.5v-43.2h-14.8v43.2H1008z M1081.7,446.5v-62.4H1067v62.4H1081.7z M1155.5,446.5V375h-14.8v71.5
		H1155.5z M1229.2,446.5v-121h-14.8v121H1229.2z"/>
</g>
<g>
	<g transform="translate(233.8042,105.9542)">
		<text transform="matrix(1 0 0 1 744.9731 -43.962)" class="st32 st33">Passed HP </text>
	</g>
	<g>
		<path class="st16" d="M975,63.6V43.4h-50v20.2H975z"/>
	</g>
	<g transform="translate(233.8042,133.5)">
		<text transform="matrix(1 0 0 1 744.9731 -43.962)" class="st32 st33">Passed AP </text>
	</g>
	<g>
		<path class="st21" d="M975,91.1V70.9h-50v20.2H975z"/>
	</g>
	<g transform="translate(233.8042,161.0458)">
		<text transform="matrix(1 0 0 1 744.9731 -43.9621)" class="st32 st33">Passed both</text>
	</g>
	<path class="st36" d="M975,118.7V98.5h-50v20.2H975z"/>
</g>
<text transform="matrix(1 0 0 1 57.4121 77.4038)" class="st37 st38">a</text>
<text transform="matrix(1 0 0 1 53 704.9038)" class="st37 st38">b</text>
<text transform="matrix(1 0 0 1 813.2002 77.4038)" class="st37 st38">c</text>
<g>
	<line class="st8" x1="949" y1="1003" x2="1244" y2="1003"/>
	<line class="st8" x1="985.8" y1="1003" x2="985.8" y2="1000.1"/>
	<line class="st8" x1="1059.6" y1="1003" x2="1059.6" y2="1000.1"/>
	<line class="st8" x1="1133.3" y1="1003" x2="1133.3" y2="1000.1"/>
	<line class="st8" x1="1207.1" y1="1003" x2="1207.1" y2="1000.1"/>
</g>
<g transform="translate(199.875,1076)">
	<text transform="matrix(1 0 0 1 779.4736 -43)" class="st9 st32 st33">6</text>
</g>
<g transform="translate(273.625,1076)">
	<text transform="matrix(1 0 0 1 779.4736 -43)" class="st9 st32 st33">5</text>
</g>
<g transform="translate(347.375,1076)">
	<text transform="matrix(1 0 0 1 779.4736 -43)" class="st9 st32 st33">4</text>
</g>
<g transform="translate(421.125,1076)">
	<text transform="matrix(1 0 0 1 779.4736 -43)" class="st9 st32 st33">3</text>
</g>
<text transform="matrix(1 0 0 1 1038.9739 1073.6667)" class="st9 st32 st34">Threshold</text>
<g>
	<line class="st8" x1="949" y1="1003" x2="949" y2="708"/>
	<line class="st8" x1="949" y1="1003" x2="951.9" y2="1003"/>
	<line class="st8" x1="949" y1="944" x2="951.9" y2="944"/>
	<line class="st8" x1="949" y1="885" x2="951.9" y2="885"/>
	<line class="st8" x1="949" y1="826" x2="951.9" y2="826"/>
	<line class="st8" x1="949" y1="767" x2="951.9" y2="767"/>
	<line class="st8" x1="949" y1="708" x2="951.9" y2="708"/>
</g>
<g transform="translate(155,1068)">
	<text transform="matrix(1 0 0 1 772.9736 -56.5)" class="st9 st32 st33">0</text>
</g>
<g transform="translate(155,1009)">
	<text transform="matrix(1 0 0 1 759.9736 -56.5)" class="st9 st32 st33">20</text>
</g>
<g transform="translate(155,950)">
	<text transform="matrix(1 0 0 1 759.9736 -56.5)" class="st9 st32 st33">40</text>
</g>
<g transform="translate(155,891)">
	<text transform="matrix(1 0 0 1 759.9736 -56.5)" class="st9 st32 st33">60</text>
</g>
<g transform="translate(155,832)">
	<text transform="matrix(1 0 0 1 759.9736 -56.5)" class="st9 st32 st33">80</text>
</g>
<g transform="translate(155,773)">
	<text transform="matrix(1 0 0 1 746.9736 -56.5)" class="st9 st32 st33">100</text>
</g>
<g transform="translate(111,920.4999) rotate(-90)">
	<text transform="matrix(1 0 0 1 -88.0001 749.9736)" class="st9 st32 st34">% participants who passed</text>
	<text transform="matrix(1 0 0 1 -93.5001 779.9736)" class="st9 st32 st34">at least one headphone test</text>
</g>
<g>
	<line class="st35" x1="949" y1="1003" x2="1244" y2="1003"/>
</g>
<path class="st10" d="M978.5,1003V727.7h-14.8V1003H978.5z M1052.2,1003V735.9h-14.8V1003H1052.2z M1126,1003V720.2h-14.8V1003H1126
	z M1199.7,1003V720.2H1185V1003H1199.7z"/>
<path class="st11" d="M993.2,1003V806.3h-14.8V1003H993.2z M1067,1003V735.9h-14.8V1003H1067z M1140.7,1003V732.3H1126V1003H1140.7z
	 M1214.5,1003V729.3h-14.8V1003H1214.5z"/>
<path class="st13" d="M1008,1003V826h-14.8v177H1008z M1081.7,1003V763.9H1067V1003H1081.7z M1155.5,1003V744.5h-14.8V1003H1155.5z
	 M1229.2,1003V741.5h-14.8V1003H1229.2z"/>
<g>
	<g transform="translate(212.7984,674.9542)">
		<text transform="matrix(1 0 0 1 765.9736 -56.5001)" class="st32 st33">Passed HP</text>
	</g>
	<g>
		<path class="st10" d="M975,620.1v-20.2h-50v20.2H975z"/>
	</g>
	<g transform="translate(212.7984,702.5)">
		<text transform="matrix(1 0 0 1 765.9736 -56.5)" class="st32 st33">Passed AP</text>
	</g>
	<g>
		<path class="st11" d="M975,647.6v-20.2h-50v20.2H975z"/>
	</g>
	<g transform="translate(212.7984,730.0458)">
		<text transform="matrix(1 0 0 1 765.9736 -56.5001)" class="st32 st33">Passed both</text>
	</g>
	<g>
		<path class="st13" d="M975,675.1v-20.2h-50v20.2H975z"/>
	</g>
</g>
<text transform="matrix(1 0 0 1 813.2002 649.5002)" class="st37 st38">d</text>
<text transform="matrix(1 0 0 1 328.416 677.6665)" class="st9 st32 st34">Loudspeaker pass rate</text>
<text transform="matrix(0 -1 1 0 125.1086 472.7188)" class="st9 st32 st34">Headphone pass rate</text>
<line class="st39" x1="604" y1="304.5" x2="654.1" y2="304.5"/>
<line class="st40" x1="604" y1="339.3" x2="654.1" y2="339.3"/>
<g>
	<g>
		<line class="st41" x1="738" y1="59.5" x2="732.1" y2="60.8"/>
		<polyline class="st42" points="720.4,63.5 397.6,137.6 297.2,159.9 252.5,193.4 219,277.1 181.3,605.5 		"/>
		<line class="st41" x1="180.7" y1="611.5" x2="180" y2="617.5"/>
	</g>
</g>
<line class="st43" x1="605" y1="373.5" x2="655.1" y2="373.5"/>
<g>
	<line class="st35" x1="180" y1="1008" x2="738" y2="1008"/>
</g>
<g>
	<g>
		<defs>
			<rect id="SVGID_25_" x="604" y="708.5" width="42.5" height="19.8"/>
		</defs>
		<clipPath id="SVGID_26_">
			<use xlink:href="#SVGID_25_"  style="overflow:visible;"/>
		</clipPath>
		<g class="st44">
			<polygon class="st10" points="648.6,676.9 590.6,731.8 585.8,718.3 643.8,663.4 			"/>
			<polygon class="st16" points="653.4,690.4 595.4,745.2 590.6,731.8 648.6,676.9 			"/>
			<polygon class="st10" points="658.2,703.7 600.2,758.6 595.4,745.1 653.4,690.2 			"/>
			<polygon class="st16" points="663,717.2 605,772.1 600.2,758.6 658.2,703.7 			"/>
			<polygon class="st10" points="667.5,730.4 609.6,785.3 604.8,771.8 662.8,716.9 			"/>
			<polygon class="st16" points="672.3,743.9 614.3,798.8 609.6,785.3 667.5,730.4 			"/>
			<polygon class="st10" points="677,757 619,811.8 614.2,798.4 672.2,743.5 			"/>
			<polygon class="st16" points="681.8,770.5 623.8,825.3 619,811.8 677,757 			"/>
			<polygon class="st10" points="686.4,783.6 628.4,838.5 623.7,825 681.6,770.1 			"/>
			<polygon class="st16" points="691.2,797.1 633.2,851.9 628.4,838.5 686.4,783.6 			"/>
		</g>
	</g>
	<g transform="translate(233.8042,105.9542)">
		<text transform="matrix(1 0 0 1 428.1743 618.6437)" class="st32 st33">HP</text>
	</g>
</g>
<g>
	<g>
		<defs>
			<rect id="SVGID_27_" x="604" y="738" width="42.5" height="19.8"/>
		</defs>
		<clipPath id="SVGID_28_">
			<use xlink:href="#SVGID_27_"  style="overflow:visible;"/>
		</clipPath>
		<g class="st45">
			<polygon class="st11" points="635.3,665.3 577.3,720.1 572.5,706.7 630.5,651.8 			"/>
			<polygon class="st21" points="640.1,678.8 582.1,733.6 577.3,720.1 635.3,665.3 			"/>
			<polygon class="st11" points="644.9,692.1 586.9,747 582.1,733.5 640.1,678.6 			"/>
			<polygon class="st21" points="649.7,705.6 591.7,760.5 586.9,747 644.9,692.1 			"/>
			<polygon class="st11" points="654.3,718.8 596.3,773.7 591.5,760.2 649.5,705.3 			"/>
			<polygon class="st21" points="659.1,732.3 601.1,787.1 596.3,773.7 654.3,718.8 			"/>
			<polygon class="st11" points="663.7,745.4 605.7,800.2 600.9,786.7 658.9,731.9 			"/>
			<polygon class="st21" points="668.5,758.9 610.5,813.7 605.7,800.2 663.7,745.4 			"/>
			<polygon class="st11" points="673.2,772 615.2,826.8 610.4,813.3 668.4,758.5 			"/>
			<polygon class="st21" points="677.9,785.5 620,840.3 615.2,826.8 673.2,772 			"/>
		</g>
	</g>
	<g transform="translate(233.8042,105.9542)">
		<text transform="matrix(1 0 0 1 428.2095 648.192)" class="st32 st33">AP</text>
	</g>
</g>
<g>
	<g>
		<defs>
			<rect id="SVGID_29_" x="604" y="767.6" width="42.5" height="19.8"/>
		</defs>
		<clipPath id="SVGID_30_">
			<use xlink:href="#SVGID_29_"  style="overflow:visible;"/>
		</clipPath>
		<g class="st46">
			<polygon class="st13" points="639.2,692.3 581.2,747.2 576.4,733.7 634.4,678.8 			"/>
			<polygon class="st26" points="643.9,705.8 585.9,760.7 581.2,747.2 639.2,692.3 			"/>
			<polygon class="st13" points="648.7,719.2 590.7,774 586,760.5 644,705.7 			"/>
			<polygon class="st26" points="653.5,732.6 595.5,787.5 590.7,774 648.7,719.2 			"/>
			<polygon class="st13" points="658.1,745.8 600.1,800.7 595.3,787.2 653.3,732.3 			"/>
			<polygon class="st26" points="662.9,759.3 604.9,814.2 600.1,800.7 658.1,745.8 			"/>
			<polygon class="st13" points="667.6,772.4 609.6,827.3 604.8,813.8 662.8,758.9 			"/>
			<polygon class="st26" points="672.3,785.9 614.4,840.8 609.6,827.3 667.6,772.4 			"/>
			<polygon class="st13" points="677,799 619,853.9 614.2,840.4 672.2,785.5 			"/>
			<polygon class="st26" points="681.8,812.5 623.8,867.4 619,853.9 677,799 			"/>
		</g>
	</g>
	<g transform="translate(233.8042,105.9542)">
		<text transform="matrix(1 0 0 1 428.1741 677.7413)" class="st32 st33">Both</text>
	</g>
</g>
<g>
	<path class="st10" d="M1119.3,610c0-4.8-3.9-8.7-8.7-8.7s-8.7,3.9-8.7,8.7l2.4,0c0-4.2,2.1-6.3,6.3-6.3s6.3,2.1,6.3,6.3L1119.3,610
		z"/>
	<path class="st10" d="M1104.3,617c-2.9,0-5.3-2.4-5.3-5.3c0-2.9,2.4-5.3,5.3-5.3V617z"/>
	<path class="st10" d="M1116.8,617c2.9,0,5.3-2.4,5.3-5.3c0-2.9-2.4-5.3-5.3-5.3V617z"/>
</g>
<g>
	<path class="st11" d="M1119.3,638.7c0-4.8-3.9-8.7-8.7-8.7s-8.7,3.9-8.7,8.7l2.4,0c0-4.2,2.1-6.3,6.3-6.3s6.3,2.1,6.3,6.3
		L1119.3,638.7z"/>
	<path class="st11" d="M1104.3,645.7c-2.9,0-5.3-2.4-5.3-5.3s2.4-5.3,5.3-5.3V645.7z"/>
	<path class="st11" d="M1116.8,645.7c2.9,0,5.3-2.4,5.3-5.3s-2.4-5.3-5.3-5.3V645.7z"/>
</g>
<path class="st16" d="M1112.2,64.1h-8.2c-1.8,0-3.2-1.4-3.2-3.2V46.2c0-1.8,1.4-3.2,3.2-3.2h8.2c1.8,0,3.2,1.4,3.2,3.2v14.7
	C1115.5,62.7,1114,64.1,1112.2,64.1z"/>
<g>
	<circle class="st47" cx="1108.1" cy="46.8" r="1.2"/>
</g>
<circle class="st47" cx="1108.1" cy="56.6" r="5.7"/>
<circle class="st16" cx="1108.1" cy="56.6" r="1.2"/>
<path class="st16" d="M1129.3,64.1h-8.6c-1.7,0-3-1.4-3-3V46c0-1.7,1.4-3,3-3h8.6c1.7,0,3,1.4,3,3v15.1
	C1132.4,62.8,1131,64.1,1129.3,64.1z"/>
<g>
	<circle class="st47" cx="1125" cy="46.8" r="1.2"/>
</g>
<circle class="st47" cx="1125" cy="56.6" r="5.7"/>
<circle class="st16" cx="1125" cy="56.6" r="1.2"/>
<path class="st21" d="M1112.8,92h-8.8c-1.6,0-2.9-1.3-2.9-2.9V73.8c0-1.6,1.3-2.9,2.9-2.9h8.8c1.6,0,2.9,1.3,2.9,2.9v15.3
	C1115.7,90.7,1114.4,92,1112.8,92z"/>
<g>
	<circle class="st47" cx="1108.4" cy="74.7" r="1.2"/>
</g>
<circle class="st47" cx="1108.4" cy="84.5" r="5.7"/>
<circle class="st21" cx="1108.4" cy="84.5" r="1.2"/>
<path class="st21" d="M1129.5,92h-8.5c-1.7,0-3.1-1.4-3.1-3.1v-15c0-1.7,1.4-3.1,3.1-3.1h8.5c1.7,0,3.1,1.4,3.1,3.1v15
	C1132.6,90.6,1131.2,92,1129.5,92z"/>
<g>
	<circle class="st47" cx="1125.3" cy="74.7" r="1.2"/>
</g>
<circle class="st47" cx="1125.3" cy="84.5" r="5.7"/>
<circle class="st21" cx="1125.3" cy="84.5" r="1.2"/>
</svg>
