<?xml version="1.0" encoding="utf-8"?>
<!-- Generator: Adobe Illustrator 21.0.2, SVG Export Plug-In . SVG Version: 6.00 Build 0)  -->
<svg version="1.1" id="Layer_1" xmlns="http://www.w3.org/2000/svg" xmlns:xlink="http://www.w3.org/1999/xlink" x="0px" y="0px"
	 viewBox="0 0 931 876" style="enable-background:new 0 0 931 876;" xml:space="preserve">
<style type="text/css">
	.st0{font-family:'Calibri';}
	.st1{font-size:34px;}
	.st2{fill:#CCCCCC;}
	.st3{fill:#FFFFFF;}
	.st4{fill:#B4B4B4;}
	.st5{fill:none;stroke:#8E7966;stroke-width:4;stroke-miterlimit:10;}
	.st6{fill:#8E7966;}
	.st7{font-family:'Calibri-Italic';}
	.st8{fill:none;stroke:#0B6EC7;stroke-width:4;stroke-miterlimit:10;}
	.st9{fill:none;stroke:#000000;stroke-width:5;stroke-miterlimit:10;}
	.st10{fill:none;stroke:#D07F35;stroke-width:4;stroke-miterlimit:10;}
	.st11{font-family:'MyriadPro-Regular';}
	.st12{font-size:21.7088px;}
	.st13{fill:#4D4D4D;}
</style>
<text transform="matrix(1 0 0 1 374.8574 107.7265)" class="st0 st1">Beat percept</text>
<g>
	<g>
		<circle class="st2" cx="463.6" cy="300.7" r="141.9"/>
	</g>
	<path class="st2" d="M600.8,266.4c0,0,24.4-37.6,32.3,5.4s-59,84.7-59,84.7L600.8,266.4z"/>
	<path class="st2" d="M328.2,266.4c0,0-24.4-37.6-32.3,5.4s59,84.7,59,84.7L328.2,266.4z"/>
</g>
<g>
	<rect x="367.5" y="218.6" class="st3" width="197" height="165"/>
	<path class="st4" d="M561,222.1v158H371v-158H561 M568,215.1H364v172h204V215.1L568,215.1z"/>
</g>
<line class="st5" x1="370" y1="304.1" x2="560" y2="304.1"/>
<g>
	<path class="st6" d="M398,303.1c1,0,5-38,14-38s13,38,13,38H398z"/>
	<path class="st6" d="M425,303.1c1,0,5-38,14-38s13,38,13,38H425z"/>
	<path class="st6" d="M452,303.1c1,0,5-38,14-38s13,38,13,38H452z"/>
	<path class="st6" d="M479,303.1c1,0,5-38,14-38s13,38,13,38H479z"/>
	<path class="st6" d="M506,303.1c1,0,5-38,14-38s13,38,13,38H506z"/>
</g>
<g>
	<path class="st6" d="M398,306.1c1,0,5,38,14,38s13-38,13-38H398z"/>
	<path class="st6" d="M425,306.1c1,0,5,38,14,38s13-38,13-38H425z"/>
	<path class="st6" d="M452,306.1c1,0,5,38,14,38s13-38,13-38H452z"/>
	<path class="st6" d="M479,306.1c1,0,5,38,14,38s13-38,13-38H479z"/>
	<path class="st6" d="M506,306.1c1,0,5,38,14,38s13-38,13-38H506z"/>
</g>
<g>
	<g>
		<circle class="st2" cx="463.6" cy="699.7" r="141.9"/>
	</g>
	<path class="st2" d="M600.8,665.4c0,0,24.4-37.6,32.3,5.4c7.9,43.1-59,84.7-59,84.7L600.8,665.4z"/>
	<path class="st2" d="M328.2,665.4c0,0-24.4-37.6-32.3,5.4c-7.9,43.1,59,84.7,59,84.7L328.2,665.4z"/>
</g>
<g>
	<rect x="31.5" y="386.6" class="st3" width="197" height="165"/>
	<path class="st4" d="M225,390.1v158H35v-158H225 M232,383.1H28v172h204V383.1L232,383.1z"/>
</g>
<g>
	<rect x="697.5" y="386.6" class="st3" width="197" height="165"/>
	<path class="st4" d="M891,390.1v158H701v-158H891 M898,383.1H694v172h204V383.1L898,383.1z"/>
</g>
<g>
	<rect x="367.5" y="617.6" class="st3" width="197" height="165"/>
	<path class="st4" d="M561,621.1v158H371v-158H561 M568,614.1H364v172h204V614.1L568,614.1z"/>
</g>
<text transform="matrix(1 0 0 1 351.3911 502.7265)" class="st0 st1">No beat percept</text>
<text transform="matrix(1 0 0 1 100.8325 349.7265)" class="st7 st1">Left </text>
<text transform="matrix(1 0 0 1 764.0259 349.7265)" class="st7 st1">Right</text>
<path class="st8" d="M208.3,452.8c0,0-2.8,40.3-19.9,40.3S168,452.8,168,452.8v1.2c0,0-2.8-40.3-19.9-40.3S127.6,454,127.6,454v-1.2
	c0,0-2.8,40.3-19.9,40.3s-20.4-40.3-20.4-40.3v1.2c0,0-2.8-40.3-19.9-40.3S47,454,47,454"/>
<polyline class="st9" points="47.1,401.1 47.1,513.4 215.1,513.4 "/>
<line class="st5" x1="370" y1="703.1" x2="560" y2="703.1"/>
<path class="st6" d="M545,702.6c0,0-19.9-38.5-49.1-38.5s-31.9,0-31.9,0h4c0,0-2.7,0-31.9,0S387,702.6,387,702.6"/>
<path class="st6" d="M545,702.6c0,0-19.9,38.5-49.1,38.5s-31.9,0-31.9,0h4c0,0-2.7,0-31.9,0S387,702.6,387,702.6"/>
<path class="st10" d="M874.3,422.8c-2.4-5.8-5.8-10.1-10.4-10.1c-14.1,0-16.9,40.3-16.9,40.3l0.4-1.2c0,0-2.3,40.3-16.4,40.3
	c-14.1,0-16.9-40.3-16.9-40.3v1.2c0,0-2.3-40.3-16.4-40.3c-14.1,0-16.9,40.3-16.9,40.3v-1.2c0,0-2.3,40.3-16.4,40.3
	c-14.1,0-16.9-40.3-16.9-40.3v1.2c0,0-2.3-40.3-16.4-40.3S714,453,714,453"/>
<polyline class="st9" points="712.1,401.1 712.1,513.4 880.1,513.4 "/>
<text transform="matrix(1 0 0 1 121.0596 540.6323)" class="st11 st12">f1</text>
<text transform="matrix(1 0 0 1 737.0596 540.6323)" class="st11 st12">f2 = f1 + 30Hz</text>
<path class="st13" d="M624.4,680.6c0-88.1-71.4-159.5-159.5-159.5s-159.5,71.4-159.5,159.5l21.1-0.6c0-76.1,61.7-137.8,137.8-137.8
	s137.8,61.7,137.8,137.8L624.4,680.6z"/>
<path class="st13" d="M328.4,766.6c-38,0-68.8-30.8-68.8-68.8c0-38,30.8-68.8,68.8-68.8V766.6z"/>
<path class="st13" d="M601.5,766.6c38,0,68.8-30.8,68.8-68.8c0-38-30.8-68.8-68.8-68.8V766.6z"/>
<text transform="matrix(1 0 0 1 366.2935 46.7265)" class="st7 st1">Beat Test (BT)</text>
<path class="st13" d="M311.6,215.1h-53.5c-6.6,0-12-5.4-12-12v-88c0-6.6,5.4-12,12-12h53.5c6.6,0,12,5.4,12,12v88
	C323.6,209.7,318.2,215.1,311.6,215.1z"/>
<g>
	<circle class="st3" cx="284.8" cy="123.4" r="6.5"/>
</g>
<g>
	<circle class="st3" cx="284.8" cy="175.1" r="30"/>
	<circle class="st13" cx="284.8" cy="175.1" r="6.5"/>
</g>
<path class="st13" d="M667.6,215.1h-53.5c-6.6,0-12-5.4-12-12v-88c0-6.6,5.4-12,12-12h53.5c6.6,0,12,5.4,12,12v88
	C679.6,209.7,674.2,215.1,667.6,215.1z"/>
<g>
	<circle class="st3" cx="640.8" cy="123.4" r="6.5"/>
</g>
<g>
	<circle class="st3" cx="640.8" cy="175.1" r="30"/>
	<circle class="st13" cx="640.8" cy="175.1" r="6.5"/>
</g>
</svg>
